<svg version="1.1" xmlns="http://www.w3.org/2000/svg" xmlns:xlink="http://www.w3.org/1999/xlink" width="97" height="97" viewBox="0,0,97,97"><g transform="translate(-191.5,-131.5)"><g stroke="#000000" stroke-width="3" stroke-miterlimit="10"><path d="M200.5,180h79" fill="none" stroke-linecap="round"/><path d="M240,140.5v79" fill="none" stroke-linecap="round"/><path d="M193,210c0,-9.38884 7.61116,-17 17,-17c9.38884,0 17,7.61116 17,17c0,9.38884 -7.61116,17 -17,17c-9.38884,0 -17,-7.61116 -17,-17z" fill="#ff0000" stroke-linecap="butt"/><path d="M193,150c0,-9.38884 7.61116,-17 17,-17c9.38884,0 17,7.61116 17,17c0,9.38884 -7.61116,17 -17,17c-9.38884,0 -17,-7.61116 -17,-17z" fill="#ff0000" stroke-linecap="butt"/><path d="M253,150c0,-9.38884 7.61116,-17 17,-17c9.38884,0 17,7.61116 17,17c0,9.38884 -7.61116,17 -17,17c-9.38884,0 -17,-7.61116 -17,-17z" fill="#ff0000" stroke-linecap="butt"/><path d="M253,210c0,-9.38884 7.61116,-17 17,-17c9.38884,0 17,7.61116 17,17c0,9.38884 -7.61116,17 -17,17c-9.38884,0 -17,-7.61116 -17,-17z" fill="#ff0000" stroke-linecap="butt"/></g></g></svg>