<svg version="1.1" xmlns="http://www.w3.org/2000/svg" xmlns:xlink="http://www.w3.org/1999/xlink" width="39.30136" height="37.2481" viewBox="0,0,39.30136,37.2481"><g transform="translate(-220.34932,-161.37595)"><g stroke-miterlimit="10"><path d="M240,162.37595c10.30048,0 18.65068,7.89055 18.65068,17.62405c0,9.73349 -8.35019,17.62405 -18.65068,17.62405c-10.30049,0 -18.65068,-7.89055 -18.65068,-17.62405c0,-9.73349 8.35019,-17.62405 18.65068,-17.62405z" fill="#ff00ff" stroke="#000000" stroke-width="2"/><path d="M247.582,173.404v8.568c0,0.17 -0.068,0.34 -0.204,0.408c-1.088,0.952 -2.448,1.428 -3.842,1.428c-1.394,0 -2.754,-0.51 -3.842,-1.428c-0.884,-0.748 -1.972,-1.19 -3.128,-1.19c-1.054,0 -2.074,0.34 -2.924,1.02v5.678c0,0.34 -0.272,0.612 -0.612,0.612c-0.34,0 -0.612,-0.272 -0.612,-0.612v-14.484c0,-0.272 0.17,-0.442 0.34,-0.544c1.088,-0.884 2.38,-1.36 3.74,-1.36c1.394,0 2.788,0.51 3.876,1.428c0.884,0.748 1.972,1.156 3.128,1.156c1.156,0 2.244,-0.408 3.128,-1.156c0.204,-0.136 0.442,-0.17 0.646,-0.068c0.204,0.102 0.306,0.306 0.306,0.544z" fill="#549a10" stroke="none" stroke-width="1"/></g></g></svg>