<svg version="1.1" xmlns="http://www.w3.org/2000/svg" xmlns:xlink="http://www.w3.org/1999/xlink" width="486.46826" height="360" viewBox="0,0,486.46826,360"><g stroke="none" stroke-miterlimit="10"><path d="M0,360v-360h480v360zM486.46539,173.05385c1.04482,-50.74883 -283.78329,-45.62481 -283,-1c0.76492,43.57786 281.94143,52.41673 283,1z" fill-opacity="0.90196" fill="#000000" stroke-width="0"/><path d="M190.67883,155.63565c1.76776,-1.76777 3.53553,0 3.53553,0l-0.76777,0.26777c1.3189,0.06343 2.71741,-0.2654 3.95671,0.1903c0.88488,0.32537 1.13945,1.61484 2,2c0.62436,0.27945 1.35973,-0.16451 2.04329,-0.1903c3.32338,-0.1254 6.67387,0 10,0c0,0 0.29047,0 0.67338,0.09901c-0.01318,-0.28337 -0.02583,-0.56684 -0.03793,-0.85039c-4.11463,-2.75179 -7.71195,-6.19175 -11.69652,-9.24775c-5.10238,-3.91461 -10.15077,-8.68663 -15.64335,-12.02045c-3.97829,-2.41469 -8.93482,-4.33806 -13.22099,-6.158c-1.17585,-0.49928 -2.61149,-0.51691 -3.59207,-1.33565c-1.23958,-1.03499 -2.07872,-2.51539 -2.7688,-3.97538c-0.5776,-1.22201 -0.36626,-2.72816 -0.97106,-3.93695c-0.73167,-1.46238 -2.17054,-2.48055 -2.9571,-3.91416c-1.11826,-2.03818 -0.94031,-4.55659 -1.26725,-6.85828c-0.19409,-1.36635 -0.82513,-2.64905 -0.99693,-4.01838c-0.58082,-4.62941 1.5078,-12.16865 -2.28915,-15.51584c0,0 -1.76777,-1.76776 0,-3.53553c1.76776,-1.76777 3.53553,0 3.53553,0c0.82277,0.88324 2.01675,1.53028 2.4683,2.64973c1.98141,4.91223 0.58828,10.64159 1.23937,15.72543c0.17838,1.39281 0.80895,2.70035 1.00625,4.09061c0.37141,2.61721 -0.63656,2.85593 0.73275,5.14172c0.87268,1.45676 2.28385,2.56678 3.0429,4.08584c0.62619,1.25318 0.64035,4.89079 2.26014,6.08766c0.66965,0.49481 1.63513,0.35441 2.40793,0.66435c4.50656,1.80739 9.81705,4.01119 13.9645,6.52856c5.65047,3.42965 10.84448,8.30136 16.09253,12.32774c2.92187,2.24242 5.62826,4.66946 8.48246,6.88586c-0.0181,-1.80755 -0.00807,-3.61507 0.03509,-5.41975c0.03953,-1.65298 -0.30626,-3.37958 0.1903,-4.95671c0.28314,-0.89929 1.68157,-1.11259 2,-2c0.34329,-0.95668 -0.12687,-2.02886 -0.1903,-3.04329c0,0 0,-2.5 2.5,-2.5c2.5,0 2.5,2.5 2.5,2.5c-0.06343,1.65224 0.30626,3.37958 -0.1903,4.95671c-0.28314,0.89929 -1.68157,1.11259 -2,2c-0.34329,0.95668 0.15831,2.02738 0.1903,3.04329c0.09237,2.9336 0.13221,5.92918 -0.03104,8.87936c0.64816,0.38383 1.31136,0.74918 1.99281,1.09254l3.30599,3.26034c0,0 1.76777,1.76776 0,3.53553c-1.76776,1.76777 -3.53553,0 -3.53553,0l-0.73979,-0.75232c-1.67138,1.34115 -3.26021,-0.24768 -3.26021,-0.24768l-0.73247,-0.81002c0.00016,0.01401 0.00024,0.02809 0.00024,0.04226c0,2.5 -2.5,2.5 -2.5,2.5c-3.32954,0 -6.6719,0.09104 -10,0c-1.31994,-0.03611 -2.71741,0.2654 -3.95671,-0.1903c-0.88488,-0.32537 -1.13945,-1.61484 -2,-2c-0.62436,-0.27945 -1.36219,0.12687 -2.04329,0.1903l-2.76777,-1.73223c0,0 -1.76777,-1.76776 0,-3.53553z" fill="#ffffff" stroke-width="0.5"/><text transform="translate(70.63316,80.08124) scale(0.5,0.5)" font-size="40" xml:space="preserve" fill="#ffffff" stroke-width="1" font-family="Sans Serif" font-weight="normal" text-anchor="start"><tspan x="0" dy="0">puis commencez !</tspan></text></g></svg>