<svg version="1.1" xmlns="http://www.w3.org/2000/svg" xmlns:xlink="http://www.w3.org/1999/xlink" width="1021.02102" height="701.2012" viewBox="0,0,1021.02102,701.2012"><g transform="translate(270.51051,170.6006)"><g stroke-miterlimit="10"><path d="M-270.51051,530.6006v-701.2012h1021.02102v701.2012z" fill-opacity="0.50196" fill="#ffffff" stroke="#000000" stroke-width="0" stroke-linecap="butt"/><path d="M95,265.5v-171h290v171z" fill="#fcb1e3" stroke="#000000" stroke-width="5" stroke-linecap="butt"/><path d="M95,121.53211h290" fill="none" stroke="#000000" stroke-width="5" stroke-linecap="round"/><text transform="translate(99.60005,113.76336) scale(0.5,0.5)" font-size="40" xml:space="preserve" fill="#000000" stroke="none" stroke-width="1" stroke-linecap="butt" font-family="Sans Serif" font-weight="normal" text-anchor="start"><tspan x="0" dy="0">en dévelopement</tspan></text><g stroke="#ff0000" stroke-width="0.25"><path d="M176.31732,194.42538c-2.19099,7.33173 -10.37247,13.56018 -18.942,13.6117c-8.68855,0.05224 -17.71127,-6.81873 -20.08825,-13.73656c-1.67336,-5.46976 -1.55754,-21.58102 -1.55754,-21.58102c0,-14.52149 9.43178,-26.29349 21.06648,-26.29349c11.63469,0 21.06648,11.772 21.06648,26.29349c0,0 0.26781,15.63915 -1.54516,21.70588z" fill="#ffedc7" stroke-linecap="butt"/><g stroke-linecap="butt"><path d="M152.22305,177.07785c0,1.72794 -3.09959,3.12872 -6.92312,3.12872c-3.82353,0 -6.92312,-1.40078 -6.92312,-3.12872c0,-1.72794 3.09959,-3.12872 6.92312,-3.12872c3.82353,0 6.92312,1.40078 6.92312,3.12872z" fill="#ffffff"/><g><path d="M142.89214,177.07785c0,-1.3298 1.07801,-2.4078 2.4078,-2.4078c1.3298,0 2.4078,1.07801 2.4078,2.4078c0,1.3298 -1.07801,2.4078 -2.4078,2.4078c-1.3298,0 -2.4078,-1.07801 -2.4078,-2.4078z" fill="#fcb1e3"/><path d="M144.47565,177.07785c0,-0.45523 0.36905,-0.82428 0.82428,-0.82428c0.45523,0 0.82428,0.36905 0.82428,0.82428c0,0.45523 -0.36905,0.82428 -0.82428,0.82428c-0.45523,0 -0.82428,-0.36905 -0.82428,-0.82428z" fill="#ff0000"/></g></g><g stroke-linecap="butt"><path d="M175.23079,177.07785c0,1.72794 -3.09958,3.12872 -6.92312,3.12872c-3.82353,0 -6.92312,-1.40078 -6.92312,-3.12872c0,-1.72794 3.09959,-3.12872 6.92312,-3.12872c3.82353,0 6.92312,1.40078 6.92312,3.12872z" fill="#ffffff"/><g><path d="M165.89986,177.07785c0,-1.3298 1.07801,-2.4078 2.4078,-2.4078c1.3298,0 2.4078,1.07801 2.4078,2.4078c0,1.3298 -1.07801,2.4078 -2.4078,2.4078c-1.3298,0 -2.4078,-1.07801 -2.4078,-2.4078z" fill="#fcb1e3"/><path d="M167.48337,177.07785c0,-0.45523 0.36905,-0.82428 0.82428,-0.82428c0.45523,0 0.82428,0.36905 0.82428,0.82428c0,0.45523 -0.36905,0.82428 -0.82428,0.82428c-0.45523,0 -0.82428,-0.36905 -0.82428,-0.82428z" fill="#ff0000"/></g></g><path d="M155.62124,171.34437c0,0 0.29589,7.41703 -0.41395,10.61132c-0.70003,3.15017 -3.81609,8.42391 -3.81609,8.42391c0,0 2.71672,-4.6146 4.1339,-4.6146c1.36915,0 4.23005,4.6146 4.23005,4.6146h-8.36395" fill="none" stroke-linecap="round"/><path d="M171.67619,192.09451c0,0 -3.48301,9.83062 -14.42062,9.90217c-12.0084,0.07855 -14.32449,-9.51761 -14.32449,-9.51761" fill="none" stroke-linecap="round"/></g><g fill="none" stroke="#ff0000" stroke-width="0.25" stroke-linecap="butt"><g><path d="M130.75074,206.68452v-35.39341c0,-16.72981 11.66361,-30.29199 26.05138,-30.29199c14.38779,0 26.05138,13.5622 26.05138,30.29199v34.09441"/><path d="M131.3998,206.1424v-36.36075c0,-15.89616 11.373,-28.78253 25.40231,-28.78253c14.02931,0 25.40231,12.88638 25.40231,28.78253v36.71839"/><path d="M132.02917,206.41346v-36.72667c0,-15.89616 11.09122,-28.78253 24.77294,-28.78253c13.68171,0 24.77294,12.88638 24.77294,28.78253v36.16952"/><path d="M132.02917,206.73194v-35.39341c0,-16.72981 11.09122,-30.29199 24.77294,-30.29199c13.68171,0 24.77294,13.5622 24.77294,30.29199v34.09441"/><path d="M132.6464,206.18983v-36.36075c0,-15.89616 10.81488,-28.78253 24.15572,-28.78253c13.34084,0 24.15572,12.88638 24.15572,28.78253v36.71839"/><path d="M133.24488,206.46089v-36.72667c0,-15.89616 10.54693,-28.78253 23.55723,-28.78253c13.0103,0 23.55723,12.88638 23.55723,28.78253v36.16952"/><path d="M133.77885,206.5727v-35.39341c0,-16.72981 10.30787,-30.29199 23.02326,-30.29199c12.71539,0 23.02326,13.56218 23.02326,30.29199v34.09441"/><path d="M134.35249,206.03059v-36.36075c0,-15.89616 10.05104,-28.78253 22.44964,-28.78253c12.39858,0 22.44964,12.88638 22.44964,28.78253v36.71839"/><path d="M134.9087,206.30164v-36.72667c0,-15.89616 9.80201,-28.78253 21.89341,-28.78253c12.0914,0 21.89341,12.88638 21.89341,28.78253v36.16952"/><path d="M134.9087,206.62013v-35.39341c0,-16.72981 9.80201,-30.29199 21.89341,-30.29199c12.0914,0 21.89341,13.56218 21.89341,30.29199v34.09441"/><path d="M135.45418,206.07801v-36.36075c0,-15.89616 9.55779,-28.78253 21.34794,-28.78253c11.79014,0 21.34794,12.88638 21.34794,28.78253v36.71839"/><path d="M131.08642,206.68452v-35.39341c0,-16.72981 11.50982,-30.29199 25.7079,-30.29199c14.19808,0 25.7079,13.5622 25.7079,30.29199v34.09441"/><path d="M131.72694,206.1424v-36.36075c0,-15.89616 11.22305,-28.78253 25.06739,-28.78253c13.84434,0 25.06739,12.88638 25.06739,28.78253v36.71839"/><path d="M132.34801,206.41346v-36.72667c0,-15.89616 10.94499,-28.78253 24.44631,-28.78253c13.50133,0 24.44631,12.88638 24.44631,28.78253v36.16952"/><path d="M132.34801,206.73194v-35.39341c0,-16.72981 10.94499,-30.29199 24.44631,-30.29199c13.50133,0 24.44631,13.5622 24.44631,30.29199v34.09441"/><path d="M132.95709,206.18983v-36.36075c0,-15.89616 10.6723,-28.78253 23.83723,-28.78253c13.16494,0 23.83723,12.88638 23.83723,28.78253v36.71839"/><path d="M133.5477,206.46089v-36.72667c0,-15.89616 10.40788,-28.78253 23.24663,-28.78253c12.83876,0 23.24663,12.88638 23.24663,28.78253v36.16952"/><path d="M134.07463,206.5727v-35.39341c0,-16.72981 10.17196,-30.29199 22.7197,-30.29199c12.54775,0 22.7197,13.56218 22.7197,30.29199v34.09441"/><path d="M134.64069,206.03059v-36.36075c0,-15.89616 9.91852,-28.78253 22.15364,-28.78253c12.23512,0 22.15364,12.88638 22.15364,28.78253v36.71839"/><path d="M135.18957,206.30164v-36.72667c0,-15.89616 9.67277,-28.78253 21.60475,-28.78253c11.93198,0 21.60475,12.88638 21.60475,28.78253v36.16952"/><path d="M135.18957,206.62013v-35.39341c0,-16.72981 9.67277,-30.29199 21.60475,-30.29199c11.93198,0 21.60475,13.56218 21.60475,30.29199v34.09441"/><path d="M135.72786,206.07801v-36.36075c0,-15.89616 9.43178,-28.78253 21.06648,-28.78253c11.63469,0 21.06648,12.88638 21.06648,28.78253v36.71839"/><path d="M123.82787,206.68452v-35.39341c0,-16.72981 14.76307,-30.29199 32.97424,-30.29199c18.21117,0 32.97424,13.5622 32.97424,30.29199v34.09441"/><path d="M124.64943,206.1424v-36.36075c0,-15.89616 14.39524,-28.78253 32.15269,-28.78253c17.75745,0 32.15269,12.88638 32.15269,28.78253v36.71839"/><path d="M125.44605,206.41346v-36.72667c0,-15.89616 14.03859,-28.78253 31.35606,-28.78253c17.31748,0 31.35606,12.88638 31.35606,28.78253v36.16952"/><path d="M125.44605,206.73194v-35.39341c0,-16.72981 14.03859,-30.29199 31.35606,-30.29199c17.31748,0 31.35606,13.5622 31.35606,30.29199v34.09441"/><path d="M126.22729,206.18983v-36.36075c0,-15.89616 13.68881,-28.78253 30.57482,-28.78253c16.88601,0 30.57482,12.88638 30.57482,28.78253v36.71839"/><path d="M126.98481,206.46089v-36.72667c0,-15.89616 13.34965,-28.78253 29.8173,-28.78253c16.46763,0 29.8173,12.88638 29.8173,28.78253v36.16952"/><path d="M127.66068,206.5727v-35.39341c0,-16.72981 13.04706,-30.29199 29.14142,-30.29199c16.09436,0 29.14142,13.56218 29.14142,30.29199v34.09441"/><path d="M128.38674,206.03059v-36.36075c0,-15.89616 12.722,-28.78253 28.41537,-28.78253c15.69337,0 28.41537,12.88638 28.41537,28.78253v36.71839"/><path d="M129.09077,206.30164v-36.72667c0,-15.89616 12.40679,-28.78253 27.71134,-28.78253c15.30455,0 27.71134,12.88638 27.71134,28.78253v36.16952"/><path d="M129.09077,206.62013v-35.39341c0,-16.72981 12.40679,-30.29199 27.71134,-30.29199c15.30455,0 27.71134,13.56218 27.71134,30.29199v34.09441"/><path d="M129.7812,206.07801v-36.36075c0,-15.89616 12.09767,-28.78253 27.02091,-28.78253c14.92323,0 27.02091,12.88638 27.02091,28.78253v36.71839"/><path d="M130.45069,206.34907v-36.72667c0,-15.89616 11.79794,-28.78253 26.35143,-28.78253c14.55349,0 26.35143,12.88638 26.35143,28.78253v36.16952"/><path d="M124.25278,206.68452v-35.39341c0,-16.72981 14.56842,-30.29199 32.53948,-30.29199c17.97106,0 32.5395,13.5622 32.5395,30.29199v34.09441"/><path d="M125.06349,206.1424v-36.36075c0,-15.89616 14.20545,-28.78253 31.72877,-28.78253c17.52332,0 31.72877,12.88638 31.72877,28.78253v36.71839"/><path d="M125.84962,206.41346v-36.72667c0,-15.89616 13.85349,-28.78253 30.94264,-28.78253c17.08915,0 30.94264,12.88638 30.94264,28.78253v36.16952"/><path d="M125.84962,206.73194v-35.39341c0,-16.72981 13.85349,-30.29199 30.94264,-30.29199c17.08915,0 30.94264,13.5622 30.94264,30.29199v34.09441"/><path d="M126.62055,206.18983v-36.36075c0,-15.89616 13.50834,-28.78253 30.17171,-28.78253c16.66337,0 30.17171,12.88638 30.17171,28.78253v36.71839"/><path d="M127.3681,207.10582v-36.72667c0,-15.89616 13.18115,-28.78253 29.44091,-28.78253c16.25976,0 29.44091,12.88638 29.44091,28.78253v36.16952"/><path d="M128.03506,206.5727v-35.39341c0,-16.72981 12.87505,-30.29199 28.7572,-30.29199c15.88217,0 28.7572,13.56218 28.7572,30.29199v34.09441"/><path d="M128.75155,206.03059v-36.36075c0,-15.89616 12.55426,-28.78253 28.04072,-28.78253c15.48647,0 28.04072,12.88638 28.04072,28.78253v36.71839"/><path d="M129.44628,206.30164v-36.72667c0,-15.89616 12.24321,-28.78253 27.34597,-28.78253c15.10276,0 27.34597,12.88638 27.34597,28.78253v36.16952"/><path d="M129.44628,206.62013v-35.39341c0,-16.72981 12.24321,-30.29199 27.34597,-30.29199c15.10276,0 27.34597,13.56218 27.34597,30.29199v34.09441"/><path d="M130.12761,206.07801v-36.36075c0,-15.89616 11.93817,-28.78253 26.66465,-28.78253c14.72648,0 26.66465,12.88638 26.66465,28.78253v36.71839"/><path d="M130.78826,206.34907v-36.72667c0,-15.89616 11.64239,-28.78253 26.004,-28.78253c14.36161,0 26.004,12.88638 26.004,28.78253v36.16952"/><path d="M127.30155,206.48676v-36.72667c0,-15.89616 13.18115,-28.78253 29.44091,-28.78253c16.25976,0 29.44091,12.88638 29.44091,28.78253v36.16952"/></g><g><path d="M135.98309,169.6224c0,-15.89616 9.32099,-28.78253 20.81902,-28.78253c11.49803,0 20.81902,12.88638 20.81902,28.78253"/><path d="M136.2498,169.6224c0,-15.89616 9.19809,-28.78253 20.54452,-28.78253c11.34642,0 20.54452,12.88638 20.54452,28.78253"/><path d="M140.76033,171.29109c0,-16.72981 7.26699,-30.29199 16.23125,-30.29199c8.96428,0 16.23125,13.5622 16.23125,30.29199"/><path d="M141.16474,169.78165c0,-15.89616 7.08592,-28.78253 15.82686,-28.78253c8.74092,0 15.82684,12.88638 15.82684,28.78253"/><path d="M141.55686,169.68678c0,-15.89616 6.91035,-28.78253 15.43472,-28.78253c8.52436,0 15.43472,12.88638 15.43472,28.78253"/><path d="M141.55686,171.33852c0,-16.72981 6.91035,-30.29199 15.43472,-30.29199c8.52436,0 15.43472,13.5622 15.43472,30.29199"/><path d="M141.94143,169.82907c0,-15.89616 6.73818,-28.78253 15.05016,-28.78253c8.31197,0 15.05016,12.88638 15.05016,28.78253"/><path d="M142.31431,169.73421c0,-15.89616 6.57124,-28.78253 14.67728,-28.78253c8.10603,0 14.67728,12.88638 14.67728,28.78253"/><path d="M142.647,171.17926c0,-16.72981 6.42229,-30.29199 14.34458,-30.29199c7.92229,0 14.34458,13.56218 14.34458,30.29199"/><path d="M143.0044,169.66983c0,-15.89616 6.26228,-28.78253 13.98718,-28.78253c7.7249,0 13.98718,12.88638 13.98718,28.78253"/><path d="M143.35095,169.57498c0,-15.89616 6.10712,-28.78253 13.64063,-28.78253c7.53351,0 13.64063,12.88638 13.64063,28.78253"/><path d="M143.35095,171.22672c0,-16.72981 6.10712,-30.29199 13.64063,-30.29199c7.53351,0 13.64063,13.56218 13.64063,30.29199"/><path d="M143.69081,169.71726c0,-15.89616 5.95496,-28.78253 13.30079,-28.78253c7.34582,0 13.30077,12.88638 13.30077,28.78253"/><path d="M144.02035,169.6224c0,-15.89616 5.80742,-28.78253 12.97123,-28.78253c7.16381,0 12.97123,12.88638 12.97123,28.78253"/><path d="M140.9695,171.29109c0,-16.72981 7.17117,-30.29199 16.01725,-30.29199c8.84608,0 16.01725,13.5622 16.01725,30.29199"/><path d="M141.36856,169.78165c0,-15.89616 6.9925,-28.78253 15.61817,-28.78253c8.62568,0 15.61817,12.88638 15.61817,28.78253"/><path d="M141.75552,169.68678c0,-15.89616 6.81924,-28.78253 15.23122,-28.78253c8.41197,0 15.23122,12.88638 15.23122,28.78253"/><path d="M141.75552,171.33852c0,-16.72981 6.81924,-30.29199 15.23122,-30.29199c8.41197,0 15.23122,13.5622 15.23122,30.29199"/><path d="M142.13501,169.82907c0,-15.89616 6.64935,-28.78253 14.85174,-28.78253c8.20239,0 14.85174,12.88638 14.85174,28.78253"/><path d="M142.50297,169.73421c0,-15.89616 6.4846,-28.78253 14.48376,-28.78253c7.99916,0 14.48376,12.88638 14.48376,28.78253"/><path d="M142.83128,171.17926c0,-16.72981 6.33761,-30.29199 14.15545,-30.29199c7.81784,0 14.15545,13.56218 14.15545,30.29199"/><path d="M143.18396,169.66983c0,-15.89616 6.17971,-28.78253 13.80277,-28.78253c7.62306,0 13.80277,12.88638 13.80277,28.78253"/><path d="M143.52595,169.57498c0,-15.89616 6.0266,-28.78253 13.46078,-28.78253c7.43418,0 13.46078,12.88638 13.46078,28.78253"/><path d="M143.52595,171.22672c0,-16.72981 6.0266,-30.29199 13.46078,-30.29199c7.43418,0 13.46078,13.56218 13.46078,30.29199"/><path d="M143.86132,169.71726c0,-15.89616 5.87645,-28.78253 13.12542,-28.78253c7.24897,0 13.12542,12.88638 13.12542,28.78253"/><path d="M144.18652,169.6224c0,-15.89616 5.73085,-28.78253 12.80021,-28.78253c7.06936,0 12.80021,12.88638 12.80021,28.78253"/><path d="M136.44708,171.29109c0,-16.72981 9.19809,-30.29199 20.54452,-30.29199c11.34642,0 20.54452,13.5622 20.54452,30.29199"/><path d="M136.95893,169.78165c0,-15.89616 8.96892,-28.78253 20.03265,-28.78253c11.06373,0 20.03265,12.88638 20.03265,28.78253"/><path d="M137.45527,169.68678c0,-15.89616 8.74671,-28.78253 19.53631,-28.78253c10.78962,0 19.53631,12.88638 19.53631,28.78253"/><path d="M137.45527,171.33852c0,-16.72981 8.74671,-30.29199 19.53631,-30.29199c10.78962,0 19.53631,13.5622 19.53631,30.29199"/><path d="M137.94202,169.82907c0,-15.89616 8.52878,-28.78253 19.04958,-28.78253c10.52078,0 19.04958,12.88638 19.04958,28.78253"/><path d="M138.414,169.73421c0,-15.89616 8.31747,-28.78253 18.57759,-28.78253c10.26012,0 18.57759,12.88638 18.57759,28.78253"/><path d="M138.83509,171.17926c0,-16.72981 8.12895,-30.29199 18.1565,-30.29199c10.02755,0 18.1565,13.56218 18.1565,30.29199"/><path d="M139.28747,169.66983c0,-15.89616 7.9264,-28.78253 17.70413,-28.78253c9.77771,0 17.70413,12.88638 17.70413,28.78253"/><path d="M139.72611,169.57498c0,-15.89616 7.73002,-28.78253 17.26548,-28.78253c9.53547,0 17.26548,12.88638 17.26548,28.78253"/><path d="M139.72611,171.22672c0,-16.72981 7.73002,-30.29199 17.26548,-30.29199c9.53547,0 17.26548,13.56218 17.26548,30.29199"/><path d="M140.15628,169.71726c0,-15.89616 7.53742,-28.78253 16.83531,-28.78253c9.29789,0 16.83531,12.88638 16.83531,28.78253"/><path d="M140.57339,169.6224c0,-15.89616 7.35067,-28.78253 16.41819,-28.78253c9.06752,0 16.41819,12.88638 16.41819,28.78253"/><path d="M136.7118,171.29109c0,-16.72981 9.07682,-30.29199 20.27364,-30.29199c11.19683,0 20.27366,13.5622 20.27366,30.29199"/><path d="M137.21692,169.78165c0,-15.89616 8.85067,-28.78253 19.76854,-28.78253c10.91786,0 19.76854,12.88638 19.76854,28.78253"/><path d="M137.70671,169.68678c0,-15.89616 8.63138,-28.78253 19.27874,-28.78253c10.64735,0 19.27874,12.88638 19.27874,28.78253"/><path d="M137.70671,171.33852c0,-16.72981 8.63138,-30.29199 19.27874,-30.29199c10.64735,0 19.27874,13.5622 19.27874,30.29199"/><path d="M138.18705,169.82907c0,-15.89616 8.41634,-28.78253 18.79841,-28.78253c10.38207,0 18.79841,12.88638 18.79841,28.78253"/><path d="M138.6528,170.37916c0,-15.89616 8.21247,-28.78253 18.34308,-28.78253c10.13061,0 18.34308,12.88638 18.34308,28.78253"/><path d="M139.06833,171.17926c0,-16.72981 8.02175,-30.29199 17.9171,-30.29199c9.89535,0 17.9171,13.56218 17.9171,30.29199"/><path d="M139.51475,169.66983c0,-15.89616 7.8219,-28.78253 17.47071,-28.78253c9.6488,0 17.47071,12.88638 17.47071,28.78253"/><path d="M139.94761,169.57498c0,-15.89616 7.6281,-28.78253 17.03785,-28.78253c9.40973,0 17.03785,12.88638 17.03785,28.78253"/><path d="M139.94761,171.22672c0,-16.72981 7.6281,-30.29199 17.03785,-30.29199c9.40973,0 17.03785,13.56218 17.03785,30.29199"/><path d="M140.3721,169.71726c0,-15.89616 7.43805,-28.78253 16.61334,-28.78253c9.17529,0 16.61334,12.88638 16.61334,28.78253"/><path d="M140.78373,169.6224c0,-15.89616 7.25375,-28.78253 16.20173,-28.78253c8.94796,0 16.20173,12.88638 16.20173,28.78253"/><path d="M138.61133,169.76008c0,-15.89616 8.21247,-28.78253 18.34308,-28.78253c10.1306,0 18.34308,12.88638 18.34308,28.78253"/><path d="M147.02433,171.29109c0,-16.72981 4.52767,-30.29199 10.11284,-30.29199c5.58516,0 10.11284,13.5622 10.11284,30.29199"/><path d="M147.27629,169.78165c0,-15.89616 4.41486,-28.78253 9.86088,-28.78253c5.446,0 9.86088,12.88638 9.86088,28.78253"/><path d="M147.5206,169.68678c0,-15.89616 4.30548,-28.78253 9.61656,-28.78253c5.31108,0 9.61656,12.88638 9.61656,28.78253"/><path d="M147.5206,171.33852c0,-16.72981 4.30548,-30.29199 9.61656,-30.29199c5.31108,0 9.61656,13.5622 9.61656,30.29199"/><path d="M147.7602,169.82907c0,-15.89616 4.19821,-28.78253 9.37696,-28.78253c5.17875,0 9.37696,12.88638 9.37696,28.78253"/><path d="M147.99253,169.73421c0,-15.89616 4.0942,-28.78253 9.14464,-28.78253c5.05044,0 9.14464,12.88638 9.14464,28.78253"/><path d="M148.19981,171.17926c0,-16.72981 4.0014,-30.29199 8.93735,-30.29199c4.93597,0 8.93735,13.56218 8.93735,30.29199"/><path d="M148.42248,169.66983c0,-15.89616 3.90169,-28.78253 8.71468,-28.78253c4.81299,0 8.71468,12.88638 8.71468,28.78253"/><path d="M148.6384,169.57498c0,-15.89616 3.80503,-28.78253 8.49876,-28.78253c4.69375,0 8.49876,12.88638 8.49876,28.78253"/><path d="M148.6384,171.22672c0,-16.72981 3.80503,-30.29199 8.49876,-30.29199c4.69375,0 8.49876,13.56218 8.49876,30.29199"/><path d="M148.85014,169.71726c0,-15.89616 3.71023,-28.78253 8.28702,-28.78253c4.57679,0 8.28702,12.88638 8.28702,28.78253"/><path d="M149.05547,169.6224c0,-15.89616 3.6183,-28.78253 8.08169,-28.78253c4.46339,0 8.08169,12.88638 8.08169,28.78253"/><path d="M147.15464,171.29109c0,-16.72981 4.46797,-30.29199 9.9795,-30.29199c5.51153,0 9.9795,13.5622 9.9795,30.29199"/><path d="M147.40328,169.78165c0,-15.89616 4.35665,-28.78253 9.73086,-28.78253c5.37421,0 9.73086,12.88638 9.73086,28.78253"/><path d="M147.64438,169.68678c0,-15.89616 4.24871,-28.78253 9.48977,-28.78253c5.24106,0 9.48977,12.88638 9.48977,28.78253"/><path d="M147.64438,171.33852c0,-16.72981 4.24871,-30.29199 9.48977,-30.29199c5.24106,0 9.48977,13.5622 9.48977,30.29199"/><path d="M147.88081,169.82907c0,-15.89616 4.14286,-28.78253 9.25334,-28.78253c5.11048,0 9.25334,12.88638 9.25334,28.78253"/><path d="M148.11008,169.73421c0,-15.89616 4.04022,-28.78253 9.02408,-28.78253c4.98386,0 9.02408,12.88638 9.02408,28.78253"/><path d="M148.31462,171.17926c0,-16.72981 3.94864,-30.29199 8.81952,-30.29199c4.87089,0 8.81952,13.56218 8.81952,30.29199"/><path d="M148.53436,169.66983c0,-15.89616 3.85025,-28.78253 8.59978,-28.78253c4.74953,0 8.59978,12.88638 8.59978,28.78253"/><path d="M148.74743,169.57498c0,-15.89616 3.75485,-28.78253 8.38671,-28.78253c4.63185,0 8.38671,12.88638 8.38671,28.78253"/><path d="M148.74743,171.22672c0,-16.72981 3.75485,-30.29199 8.38671,-30.29199c4.63185,0 8.38671,13.56218 8.38671,30.29199"/><path d="M148.95639,169.71726c0,-15.89616 3.66131,-28.78253 8.17776,-28.78253c4.51645,0 8.17776,12.88638 8.17776,28.78253"/><path d="M149.15901,169.6224c0,-15.89616 3.57058,-28.78253 7.97514,-28.78253c4.40454,0 7.97514,12.88638 7.97514,28.78253"/><path d="M144.33695,171.29109c0,-16.72981 5.73085,-30.29199 12.80021,-30.29199c7.06936,0 12.80021,13.5622 12.80021,30.29199"/><path d="M144.65587,169.78165c0,-15.89616 5.58806,-28.78253 12.48129,-28.78253c6.89323,0 12.48129,12.88638 12.48129,28.78253"/><path d="M144.96512,169.68678c0,-15.89616 5.44962,-28.78253 12.17206,-28.78253c6.72244,0 12.17206,12.88638 12.17206,28.78253"/><path d="M144.96512,171.33852c0,-16.72981 5.44962,-30.29199 12.17206,-30.29199c6.72244,0 12.17206,13.5622 12.17206,30.29199"/><path d="M145.26839,169.82907c0,-15.89616 5.31383,-28.78253 11.86879,-28.78253c6.55496,0 11.86879,12.88638 11.86879,28.78253"/><path d="M145.56244,169.73421c0,-15.89616 5.18218,-28.78253 11.57472,-28.78253c6.39254,0 11.57472,12.88638 11.57472,28.78253"/><path d="M145.82481,171.17926c0,-16.72981 5.06471,-30.29199 11.31235,-30.29199c6.24764,0 11.31235,13.56218 11.31235,30.29199"/><path d="M146.10665,169.66983c0,-15.89616 4.93853,-28.78253 11.03051,-28.78253c6.09198,0 11.03051,12.88638 11.03051,28.78253"/><path d="M146.37995,169.57498c0,-15.89616 4.81617,-28.78253 10.75721,-28.78253c5.94104,0 10.75721,12.88638 10.75721,28.78253"/><path d="M146.37995,171.22672c0,-16.72981 4.81617,-30.29199 10.75721,-30.29199c5.94104,0 10.75721,13.56218 10.75721,30.29199"/><path d="M146.64796,169.71726c0,-15.89616 4.69618,-28.78253 10.4892,-28.78253c5.79302,0 10.4892,12.88638 10.4892,28.78253"/><path d="M146.90785,169.6224c0,-15.89616 4.57982,-28.78253 10.22932,-28.78253c5.64949,0 10.22932,12.88638 10.22932,28.78253"/><path d="M144.50189,171.29109c0,-16.72981 5.6553,-30.29199 12.63145,-30.29199c6.97615,0 12.63145,13.5622 12.63145,30.29199"/><path d="M144.81661,169.78165c0,-15.89616 5.51439,-28.78253 12.31674,-28.78253c6.80235,0 12.31674,12.88638 12.31674,28.78253"/><path d="M145.12177,169.68678c0,-15.89616 5.37776,-28.78253 12.01157,-28.78253c6.63381,0 12.01157,12.88638 12.01157,28.78253"/><path d="M145.12177,171.33852c0,-16.72981 5.37776,-30.29199 12.01157,-30.29199c6.63381,0 12.01157,13.5622 12.01157,30.29199"/><path d="M145.42104,169.82907c0,-15.89616 5.24378,-28.78253 11.7123,-28.78253c6.46853,0 11.7123,12.88638 11.7123,28.78253"/><path d="M145.71123,170.37916c0,-15.89616 5.11677,-28.78253 11.42862,-28.78253c6.31185,0 11.42862,12.88638 11.42862,28.78253"/><path d="M145.97013,171.17926c0,-16.72981 4.99794,-30.29199 11.16321,-30.29199c6.16527,0 11.16321,13.56218 11.16321,30.29199"/><path d="M146.24826,169.66983c0,-15.89616 4.87342,-28.78253 10.88508,-28.78253c6.01166,0 10.88508,12.88638 10.88508,28.78253"/><path d="M146.51796,169.57498c0,-15.89616 4.75268,-28.78253 10.61538,-28.78253c5.86272,0 10.61538,12.88638 10.61538,28.78253"/><path d="M146.51796,171.22672c0,-16.72981 4.75268,-30.29199 10.61538,-30.29199c5.86272,0 10.61538,13.56218 10.61538,30.29199"/><path d="M146.78244,169.71726c0,-15.89616 4.63425,-28.78253 10.3509,-28.78253c5.71664,0 10.3509,12.88638 10.3509,28.78253"/><path d="M147.0389,169.6224c0,-15.89616 4.51943,-28.78253 10.09445,-28.78253c5.575,0 10.09445,12.88638 10.09445,28.78253"/><path d="M145.68539,169.76008c0,-15.89616 5.11677,-28.78253 11.42862,-28.78253c6.31185,0 11.42862,12.88638 11.42862,28.78253"/><path d="M150.90994,171.29109c0,-16.72981 2.82095,-30.29199 6.30078,-30.29199c3.47983,0 6.30078,13.5622 6.30078,30.29199"/><path d="M151.06692,169.78165c0,-15.89616 2.75068,-28.78253 6.14379,-28.78253c3.39312,0 6.14379,12.88638 6.14379,28.78253"/><path d="M151.21914,169.68678c0,-15.89616 2.68253,-28.78253 5.99157,-28.78253c3.30906,0 5.99157,12.88638 5.99157,28.78253"/><path d="M151.21914,171.33852c0,-16.72981 2.68253,-30.29199 5.99157,-30.29199c3.30906,0 5.99157,13.5622 5.99157,30.29199"/><path d="M151.36842,169.82907c0,-15.89616 2.61569,-28.78253 5.8423,-28.78253c3.22661,0 5.8423,12.88638 5.8423,28.78253"/><path d="M151.51318,169.73421c0,-15.89616 2.55087,-28.78253 5.69754,-28.78253c3.14667,0 5.69754,12.88638 5.69754,28.78253"/><path d="M151.64232,171.17926c0,-16.72981 2.49306,-30.29199 5.56839,-30.29199c3.07534,0 5.56839,13.56218 5.56839,30.29199"/><path d="M151.78105,169.66983c0,-15.89616 2.43094,-28.78253 5.42967,-28.78253c2.99872,0 5.42967,12.88638 5.42967,28.78253"/><path d="M151.91559,169.57498c0,-15.89616 2.37071,-28.78253 5.29513,-28.78253c2.92443,0 5.29513,12.88638 5.29513,28.78253"/><path d="M151.91559,171.22672c0,-16.72981 2.37071,-30.29199 5.29513,-30.29199c2.92443,0 5.29513,13.56218 5.29513,30.29199"/><path d="M152.04752,169.71726c0,-15.89616 2.31164,-28.78253 5.1632,-28.78253c2.85156,0 5.1632,12.88638 5.1632,28.78253"/><path d="M152.17543,169.6224c0,-15.89616 2.25437,-28.78253 5.03529,-28.78253c2.78092,0 5.03529,12.88638 5.03529,28.78253"/><path d="M150.99113,171.29109c0,-16.72981 2.78377,-30.29199 6.2177,-30.29199c3.43395,0 6.2177,13.5622 6.2177,30.29199"/><path d="M151.14605,169.78165c0,-15.89616 2.7144,-28.78253 6.0628,-28.78253c3.34839,0 6.0628,12.88638 6.0628,28.78253"/><path d="M151.29625,169.68678c0,-15.89616 2.64715,-28.78253 5.91258,-28.78253c3.26543,0 5.91258,12.88638 5.91258,28.78253"/><path d="M151.29625,171.33852c0,-16.72981 2.64715,-30.29199 5.91258,-30.29199c3.26543,0 5.91258,13.5622 5.91258,30.29199"/><path d="M151.44357,169.82907c0,-15.89616 2.58119,-28.78253 5.76527,-28.78253c3.18406,0 5.76527,12.88638 5.76527,28.78253"/><path d="M151.58641,169.73421c0,-15.89616 2.51724,-28.78253 5.62243,-28.78253c3.10518,0 5.62243,12.88638 5.62243,28.78253"/><path d="M151.71385,171.17926c0,-16.72981 2.46019,-30.29199 5.49498,-30.29199c3.03479,0 5.49498,13.56218 5.49498,30.29199"/><path d="M151.85077,169.66983c0,-15.89616 2.39889,-28.78253 5.35808,-28.78253c2.95918,0 5.35808,12.88638 5.35808,28.78253"/><path d="M151.98351,169.57498c0,-15.89616 2.33945,-28.78253 5.22532,-28.78253c2.88587,0 5.22532,12.88638 5.22532,28.78253"/><path d="M151.98351,171.22672c0,-16.72981 2.33945,-30.29199 5.22532,-30.29199c2.88587,0 5.22532,13.56218 5.22532,30.29199"/><path d="M152.11371,169.71726c0,-15.89616 2.28117,-28.78253 5.09513,-28.78253c2.81396,0 5.09513,12.88638 5.09513,28.78253"/><path d="M152.23994,169.6224c0,-15.89616 2.22466,-28.78253 4.9689,-28.78253c2.74424,0 4.9689,12.88638 4.9689,28.78253"/><path d="M149.23557,171.29109c0,-16.72981 3.57058,-30.29199 7.97514,-30.29199c4.40454,0 7.97514,13.5622 7.97514,30.29199"/><path d="M149.43427,169.78165c0,-15.89616 3.48163,-28.78253 7.77644,-28.78253c4.29481,0 7.77644,12.88638 7.77644,28.78253"/><path d="M149.62694,169.68678c0,-15.89616 3.39537,-28.78253 7.58377,-28.78253c4.1884,0 7.58377,12.88638 7.58377,28.78253"/><path d="M149.62694,171.33852c0,-16.72981 3.39537,-30.29199 7.58377,-30.29199c4.1884,0 7.58377,13.5622 7.58377,30.29199"/><path d="M149.8159,169.82907c0,-15.89616 3.31078,-28.78253 7.39482,-28.78253c4.08404,0 7.39482,12.88638 7.39482,28.78253"/><path d="M149.99911,169.73421c0,-15.89616 3.22874,-28.78253 7.21161,-28.78253c3.98285,0 7.21161,12.88638 7.21161,28.78253"/><path d="M150.16258,171.17926c0,-16.72981 3.15557,-30.29199 7.04814,-30.29199c3.89257,0 7.04814,13.56218 7.04814,30.29199"/><path d="M150.33819,169.66983c0,-15.89616 3.07694,-28.78253 6.87253,-28.78253c3.79559,0 6.87253,12.88638 6.87253,28.78253"/><path d="M150.50847,169.57498c0,-15.89616 3.00071,-28.78253 6.70226,-28.78253c3.70155,0 6.70226,12.88638 6.70226,28.78253"/><path d="M150.50847,171.22672c0,-16.72981 3.00071,-30.29199 6.70226,-30.29199c3.70155,0 6.70226,13.56218 6.70226,30.29199"/><path d="M150.67544,169.71726c0,-15.89616 2.92593,-28.78253 6.53527,-28.78253c3.60932,0 6.53527,12.88638 6.53527,28.78253"/><path d="M150.83737,169.6224c0,-15.89616 2.85345,-28.78253 6.37336,-28.78253c3.51991,0 6.37334,12.88638 6.37334,28.78253"/><path d="M149.33835,171.29109c0,-16.72981 3.52351,-30.29199 7.86998,-30.29199c4.34648,0 7.86998,13.5622 7.86998,30.29199"/><path d="M149.53442,169.78165c0,-15.89616 3.43573,-28.78253 7.67391,-28.78253c4.23818,0 7.67391,12.88638 7.67391,28.78253"/><path d="M149.72457,169.68678c0,-15.89616 3.3506,-28.78253 7.48378,-28.78253c4.13318,0 7.48378,12.88638 7.48378,28.78253"/><path d="M149.72457,171.33852c0,-16.72981 3.3506,-30.29199 7.48378,-30.29199c4.13318,0 7.48378,13.5622 7.48378,30.29199"/><path d="M149.91101,169.82907c0,-15.89616 3.26712,-28.78253 7.29732,-28.78253c4.0302,0 7.29732,12.88638 7.29732,28.78253"/><path d="M150.09182,170.37916c0,-15.89616 3.18798,-28.78253 7.12058,-28.78253c3.93258,0 7.12058,12.88638 7.12058,28.78253"/><path d="M150.25313,171.17926c0,-16.72981 3.11395,-30.29199 6.95521,-30.29199c3.84126,0 6.95521,13.56218 6.95521,30.29199"/><path d="M150.42642,169.66983c0,-15.89616 3.03637,-28.78253 6.78191,-28.78253c3.74556,0 6.78193,12.88638 6.78193,28.78253"/><path d="M150.59445,169.57498c0,-15.89616 2.96114,-28.78253 6.61389,-28.78253c3.65275,0 6.61389,12.88638 6.61389,28.78253"/><path d="M150.59445,171.22672c0,-16.72981 2.96114,-30.29199 6.61389,-30.29199c3.65275,0 6.61389,13.56218 6.61389,30.29199"/><path d="M150.75922,169.71726c0,-15.89616 2.88736,-28.78253 6.44911,-28.78253c3.56174,0 6.44911,12.88638 6.44911,28.78253"/><path d="M150.91901,169.6224c0,-15.89616 2.81582,-28.78253 6.28932,-28.78253c3.47349,0 6.28932,12.88638 6.28932,28.78253"/><path d="M150.07572,169.76008c0,-15.89616 3.18798,-28.78253 7.12058,-28.78253c3.93258,0 7.12058,12.88638 7.12058,28.78253"/><path d="M153.53125,171.29109c0,-16.72981 1.75759,-30.29199 3.92568,-30.29199c2.16809,0 3.92568,13.5622 3.92568,30.29199"/><path d="M153.62906,169.78165c0,-15.89616 1.71381,-28.78253 3.82788,-28.78253c2.11407,0 3.82788,12.88638 3.82788,28.78253"/><path d="M153.7239,169.68678c0,-15.89616 1.67134,-28.78253 3.73304,-28.78253c2.0617,0 3.73304,12.88638 3.73304,28.78253"/><path d="M153.7239,171.33852c0,-16.72981 1.67134,-30.29199 3.73304,-30.29199c2.0617,0 3.73304,13.5622 3.73304,30.29199"/><path d="M153.81691,169.82907c0,-15.89616 1.62971,-28.78253 3.64003,-28.78253c2.01034,0 3.64003,12.88638 3.64003,28.78253"/><path d="M153.90709,169.73421c0,-15.89616 1.58932,-28.78253 3.54985,-28.78253c1.96053,0 3.54985,12.88638 3.54985,28.78253"/><path d="M153.98756,171.17926c0,-16.72981 1.5533,-30.29199 3.46938,-30.29199c1.91608,0 3.46938,13.56218 3.46938,30.29199"/><path d="M154.074,169.66983c0,-15.89616 1.51459,-28.78253 3.38294,-28.78253c1.86835,0 3.38294,12.88638 3.38294,28.78253"/><path d="M154.15781,169.57498c0,-15.89616 1.47707,-28.78253 3.29913,-28.78253c1.82205,0 3.29911,12.88638 3.29911,28.78253"/><path d="M154.15781,171.22672c0,-16.72981 1.47707,-30.29199 3.29913,-30.29199c1.82205,0 3.29911,13.56218 3.29911,30.29199"/><path d="M154.24001,169.71726c0,-15.89616 1.44027,-28.78253 3.21693,-28.78253c1.77666,0 3.21691,12.88638 3.21691,28.78253"/><path d="M154.31971,169.6224c0,-15.89616 1.40459,-28.78253 3.13723,-28.78253c1.73264,0 3.13723,12.88638 3.13723,28.78253"/><path d="M153.58184,171.29109c0,-16.72981 1.73442,-30.29199 3.87393,-30.29199c2.13952,0 3.87393,13.5622 3.87393,30.29199"/><path d="M153.67836,169.78165c0,-15.89616 1.6912,-28.78253 3.77741,-28.78253c2.0862,0 3.77741,12.88638 3.77741,28.78253"/><path d="M153.77195,169.68678c0,-15.89616 1.64929,-28.78253 3.68382,-28.78253c2.03452,0 3.68382,12.88638 3.68382,28.78253"/><path d="M153.77195,171.33852c0,-16.72981 1.64929,-30.29199 3.68382,-30.29199c2.03452,0 3.68382,13.5622 3.68382,30.29199"/><path d="M153.86373,169.82907c0,-15.89616 1.60822,-28.78253 3.59204,-28.78253c1.98383,0 3.59204,12.88638 3.59204,28.78253"/><path d="M153.95273,169.73421c0,-15.89616 1.56836,-28.78253 3.50304,-28.78253c1.93467,0 3.50304,12.88638 3.50304,28.78253"/><path d="M154.03213,171.17926c0,-16.72981 1.53282,-30.29199 3.42363,-30.29199c1.89083,0 3.42363,13.56218 3.42363,30.29199"/><path d="M154.11743,169.66983c0,-15.89616 1.49463,-28.78253 3.33833,-28.78253c1.84372,0 3.33833,12.88638 3.33833,28.78253"/><path d="M154.20014,169.57498c0,-15.89616 1.45758,-28.78253 3.25562,-28.78253c1.79804,0 3.25562,12.88638 3.25562,28.78253"/><path d="M154.20014,171.22672c0,-16.72981 1.45758,-30.29199 3.25562,-30.29199c1.79804,0 3.25562,13.56218 3.25562,30.29199"/><path d="M154.28126,169.71726c0,-15.89616 1.42128,-28.78253 3.17451,-28.78253c1.75323,0 3.17451,12.88638 3.17451,28.78253"/><path d="M154.35991,169.6224c0,-15.89616 1.38606,-28.78253 3.09585,-28.78253c1.70979,0 3.09585,12.88638 3.09585,28.78253"/><path d="M152.48804,171.29109c0,-16.72981 2.22466,-30.29199 4.9689,-30.29199c2.74424,0 4.9689,13.5622 4.9689,30.29199"/><path d="M152.61184,169.78165c0,-15.89616 2.16923,-28.78253 4.8451,-28.78253c2.67587,0 4.8451,12.88638 4.8451,28.78253"/><path d="M152.73188,169.68678c0,-15.89616 2.11548,-28.78253 4.72504,-28.78253c2.60958,0 4.72504,12.88638 4.72504,28.78253"/><path d="M152.73188,171.33852c0,-16.72981 2.11548,-30.29199 4.72504,-30.29199c2.60958,0 4.72504,13.5622 4.72504,30.29199"/><path d="M152.84962,169.82907c0,-15.89616 2.06277,-28.78253 4.60732,-28.78253c2.54455,0 4.60732,12.88638 4.60732,28.78253"/><path d="M152.96377,169.73421c0,-15.89616 2.01167,-28.78253 4.49317,-28.78253c2.48151,0 4.49317,12.88638 4.49317,28.78253"/><path d="M153.06561,171.17926c0,-16.72981 1.96606,-30.29199 4.39133,-30.29199c2.42526,0 4.39133,13.56218 4.39133,30.29199"/><path d="M153.17503,169.66983c0,-15.89616 1.91708,-28.78253 4.28191,-28.78253c2.36484,0 4.28191,12.88638 4.28191,28.78253"/><path d="M153.28112,169.57498c0,-15.89616 1.86958,-28.78253 4.17582,-28.78253c2.30625,0 4.17582,12.88638 4.17582,28.78253"/><path d="M153.28112,171.22672c0,-16.72981 1.86958,-30.29199 4.17582,-30.29199c2.30625,0 4.17582,13.56218 4.17582,30.29199"/><path d="M153.38516,169.71726c0,-15.89616 1.823,-28.78253 4.07179,-28.78253c2.24879,0 4.07179,12.88638 4.07179,28.78253"/><path d="M153.48604,169.6224c0,-15.89616 1.77783,-28.78253 3.9709,-28.78253c2.19307,0 3.9709,12.88638 3.9709,28.78253"/><path d="M152.55208,171.29109c0,-16.72981 2.19531,-30.29199 4.90338,-30.29199c2.70806,0 4.90338,13.5622 4.90338,30.29199"/><path d="M152.67425,169.78165c0,-15.89616 2.14062,-28.78253 4.78121,-28.78253c2.64059,0 4.78121,12.88638 4.78121,28.78253"/><path d="M152.7927,169.68678c0,-15.89616 2.08758,-28.78253 4.66275,-28.78253c2.57516,0 4.66275,12.88638 4.66275,28.78253"/><path d="M152.7927,171.33852c0,-16.72981 2.08758,-30.29199 4.66275,-30.29199c2.57516,0 4.66275,13.5622 4.66275,30.29199"/><path d="M152.90887,169.82907c0,-15.89616 2.03557,-28.78253 4.54658,-28.78253c2.51101,0 4.54658,12.88638 4.54658,28.78253"/><path d="M153.02152,170.37916c0,-15.89616 1.98627,-28.78253 4.43645,-28.78253c2.45019,0 4.43645,12.88638 4.43645,28.78253"/><path d="M153.12202,171.17926c0,-16.72981 1.94014,-30.29199 4.33343,-30.29199c2.39329,0 4.33343,13.56218 4.33343,30.29199"/><path d="M153.22999,169.66983c0,-15.89616 1.8918,-28.78253 4.22546,-28.78253c2.33366,0 4.22546,12.88638 4.22546,28.78253"/><path d="M153.33469,169.57498c0,-15.89616 1.84494,-28.78253 4.12076,-28.78253c2.27584,0 4.12076,12.88638 4.12076,28.78253"/><path d="M153.33469,171.22672c0,-16.72981 1.84494,-30.29199 4.12076,-30.29199c2.27584,0 4.12076,13.56218 4.12076,30.29199"/><path d="M153.43735,169.71726c0,-15.89616 1.79897,-28.78253 4.0181,-28.78253c2.21914,0 4.0181,12.88638 4.0181,28.78253"/><path d="M153.53691,169.6224c0,-15.89616 1.75439,-28.78253 3.91854,-28.78253c2.16416,0 3.91854,12.88638 3.91854,28.78253"/><path d="M153.0115,169.76008c0,-15.89616 1.98627,-28.78253 4.43645,-28.78253c2.45019,0 4.43645,12.88638 4.43645,28.78253"/><path d="M155.0396,171.29109c0,-16.72981 1.09506,-30.29199 2.44589,-30.29199c1.35082,0 2.44589,13.5622 2.44589,30.29199"/><path d="M155.10053,169.78165c0,-15.89616 1.06778,-28.78253 2.38496,-28.78253c1.31717,0 2.38496,12.88638 2.38496,28.78253"/><path d="M155.15962,169.68678c0,-15.89616 1.04132,-28.78253 2.32586,-28.78253c1.28453,0 2.32586,12.88638 2.32586,28.78253"/><path d="M155.15962,171.33852c0,-16.72981 1.04132,-30.29199 2.32586,-30.29199c1.28453,0 2.32586,13.5622 2.32586,30.29199"/><path d="M155.21758,169.82907c0,-15.89616 1.01538,-28.78253 2.26791,-28.78253c1.25253,0 2.26791,12.88638 2.26791,28.78253"/><path d="M155.27377,169.73421c0,-15.89616 0.99022,-28.78253 2.21171,-28.78253c1.2215,0 2.21171,12.88638 2.21171,28.78253"/><path d="M155.32391,171.17926c0,-16.72981 0.96778,-30.29199 2.16158,-30.29199c1.19381,0 2.16158,13.56218 2.16158,30.29199"/><path d="M155.37777,169.66983c0,-15.89616 0.94366,-28.78253 2.10774,-28.78253c1.16408,0 2.10774,12.88638 2.10774,28.78253"/><path d="M155.42998,169.57498c0,-15.89616 0.92028,-28.78253 2.05551,-28.78253c1.13523,0 2.05551,12.88638 2.05551,28.78253"/><path d="M155.42998,171.22672c0,-16.72981 0.92028,-30.29199 2.05551,-30.29199c1.13523,0 2.05551,13.56218 2.05551,30.29199"/><path d="M155.4812,169.71726c0,-15.89616 0.89735,-28.78253 2.00429,-28.78253c1.10694,0 2.00429,12.88638 2.00429,28.78253"/><path d="M155.53085,169.6224c0,-15.89616 0.87513,-28.78253 1.95464,-28.78253c1.07951,0 1.95464,12.88638 1.95464,28.78253"/><path d="M155.07112,171.29109c0,-16.72981 1.08063,-30.29199 2.41365,-30.29199c1.33301,0 2.41365,13.5622 2.41365,30.29199"/><path d="M155.13125,169.78165c0,-15.89616 1.0537,-28.78253 2.3535,-28.78253c1.2998,0 2.3535,12.88638 2.3535,28.78253"/><path d="M155.18956,169.68678c0,-15.89616 1.02759,-28.78253 2.29519,-28.78253c1.2676,0 2.29519,12.88638 2.29519,28.78253"/><path d="M155.18956,171.33852c0,-16.72981 1.02759,-30.29199 2.29519,-30.29199c1.2676,0 2.29519,13.5622 2.29519,30.29199"/><path d="M155.24675,169.82907c0,-15.89616 1.00199,-28.78253 2.238,-28.78253c1.23602,0 2.238,12.88638 2.238,28.78253"/><path d="M155.30219,169.73421c0,-15.89616 0.97717,-28.78253 2.18256,-28.78253c1.20539,0 2.18256,12.88638 2.18256,28.78253"/><path d="M155.35167,171.17926c0,-16.72981 0.95501,-30.29199 2.13308,-30.29199c1.17808,0 2.13308,13.56218 2.13308,30.29199"/><path d="M155.40482,169.66983c0,-15.89616 0.93123,-28.78253 2.07994,-28.78253c1.14871,0 2.07994,12.88638 2.07994,28.78253"/><path d="M155.45635,169.57498c0,-15.89616 0.90816,-28.78253 2.0284,-28.78253c1.12027,0 2.0284,12.88638 2.0284,28.78253"/><path d="M155.45635,171.22672c0,-16.72981 0.90816,-30.29199 2.0284,-30.29199c1.12027,0 2.0284,13.56218 2.0284,30.29199"/><path d="M155.50689,169.71726c0,-15.89616 0.88553,-28.78253 1.97787,-28.78253c1.09234,0 1.97787,12.88638 1.97787,28.78253"/><path d="M155.55589,169.6224c0,-15.89616 0.86358,-28.78253 1.92886,-28.78253c1.06529,0 1.92886,12.88638 1.92886,28.78253"/><path d="M154.38964,171.29109c0,-16.72981 1.38606,-30.29199 3.09585,-30.29199c1.70979,0 3.09585,13.5622 3.09585,30.29199"/><path d="M154.46676,169.78165c0,-15.89616 1.35153,-28.78253 3.01872,-28.78253c1.6672,0 3.01872,12.88638 3.01872,28.78253"/><path d="M154.54155,169.68678c0,-15.89616 1.31804,-28.78253 2.94394,-28.78253c1.62588,0 2.94394,12.88638 2.94394,28.78253"/><path d="M154.54155,171.33852c0,-16.72981 1.31804,-30.29199 2.94394,-30.29199c1.62588,0 2.94394,13.5622 2.94394,30.29199"/><path d="M154.6149,169.82907c0,-15.89616 1.2852,-28.78253 2.87059,-28.78253c1.58538,0 2.87059,12.88638 2.87059,28.78253"/><path d="M154.68602,169.73421c0,-15.89616 1.25336,-28.78253 2.79946,-28.78253c1.5461,0 2.79946,12.88638 2.79946,28.78253"/><path d="M154.74948,171.17926c0,-16.72981 1.22494,-30.29199 2.736,-30.29199c1.51106,0 2.736,13.56218 2.736,30.29199"/><path d="M154.81765,169.66983c0,-15.89616 1.19443,-28.78253 2.66784,-28.78253c1.47341,0 2.66784,12.88638 2.66784,28.78253"/><path d="M154.88375,169.57498c0,-15.89616 1.16484,-28.78253 2.60174,-28.78253c1.43689,0 2.60174,12.88638 2.60174,28.78253"/><path d="M154.88375,171.22672c0,-16.72981 1.16484,-30.29199 2.60174,-30.29199c1.43689,0 2.60174,13.56218 2.60174,30.29199"/><path d="M154.94857,169.71726c0,-15.89616 1.13582,-28.78253 2.53692,-28.78253c1.4011,0 2.53692,12.88638 2.53692,28.78253"/><path d="M155.01142,169.6224c0,-15.89616 1.10767,-28.78253 2.47407,-28.78253c1.36638,0 2.47407,12.88638 2.47407,28.78253"/><path d="M154.42953,171.29109c0,-16.72981 1.36779,-30.29199 3.05503,-30.29199c1.68725,0 3.05503,13.5622 3.05503,30.29199"/><path d="M154.50564,169.78165c0,-15.89616 1.3337,-28.78253 2.97891,-28.78253c1.64521,0 2.97891,12.88638 2.97891,28.78253"/><path d="M154.57944,169.68678c0,-15.89616 1.30066,-28.78253 2.90512,-28.78253c1.60446,0 2.90512,12.88638 2.90512,28.78253"/><path d="M154.57944,171.33852c0,-16.72981 1.30066,-30.29199 2.90512,-30.29199c1.60446,0 2.90512,13.5622 2.90512,30.29199"/><path d="M154.65183,169.82907c0,-15.89616 1.26826,-28.78253 2.83273,-28.78253c1.56447,0 2.83273,12.88638 2.83273,28.78253"/><path d="M154.72201,170.37916c0,-15.89616 1.23754,-28.78253 2.76412,-28.78253c1.52658,0 2.76412,12.88638 2.76412,28.78253"/><path d="M154.78464,171.17926c0,-16.72981 1.2088,-30.29199 2.69994,-30.29199c1.49114,0 2.69994,13.56218 2.69994,30.29199"/><path d="M154.85191,169.66983c0,-15.89616 1.17868,-28.78253 2.63265,-28.78253c1.45398,0 2.63265,12.88638 2.63265,28.78253"/><path d="M154.91713,169.57498c0,-15.89616 1.14948,-28.78253 2.56743,-28.78253c1.41795,0 2.56743,12.88638 2.56743,28.78253"/><path d="M154.91713,171.22672c0,-16.72981 1.14948,-30.29199 2.56743,-30.29199c1.41795,0 2.56743,13.56218 2.56743,30.29199"/><path d="M154.9811,169.71726c0,-15.89616 1.12084,-28.78253 2.50346,-28.78253c1.38263,0 2.50346,12.88638 2.50346,28.78253"/><path d="M155.04312,169.6224c0,-15.89616 1.09308,-28.78253 2.44144,-28.78253c1.34838,0 2.44144,12.88638 2.44144,28.78253"/><path d="M154.71577,169.76008c0,-15.89616 1.23754,-28.78253 2.76412,-28.78253c1.52658,0 2.76412,12.88638 2.76412,28.78253"/><path d="M155.98352,171.29109c0,-16.72981 0.68227,-30.29199 1.52391,-30.29199c0.84162,0 1.52391,13.5622 1.52391,30.29199"/><path d="M156.02149,169.78165c0,-15.89616 0.66528,-28.78253 1.48594,-28.78253c0.82066,0 1.48594,12.88638 1.48594,28.78253"/><path d="M156.05831,169.68678c0,-15.89616 0.64879,-28.78253 1.44912,-28.78253c0.80032,0 1.44912,12.88638 1.44912,28.78253"/><path d="M156.05831,171.33852c0,-16.72981 0.64879,-30.29199 1.44912,-30.29199c0.80032,0 1.44912,13.5622 1.44912,30.29199"/><path d="M156.0944,169.82907c0,-15.89616 0.63263,-28.78253 1.41302,-28.78253c0.78039,0 1.41302,12.88638 1.41302,28.78253"/><path d="M156.12941,169.73421c0,-15.89616 0.61695,-28.78253 1.37801,-28.78253c0.76106,0 1.37801,12.88638 1.37801,28.78253"/><path d="M156.16065,171.17926c0,-16.72981 0.60297,-30.29199 1.34678,-30.29199c0.74379,0 1.34678,13.56218 1.34678,30.29199"/><path d="M156.1942,169.66983c0,-15.89616 0.58794,-28.78253 1.31322,-28.78253c0.72526,0 1.31322,12.88638 1.31322,28.78253"/><path d="M156.22675,169.57498c0,-15.89616 0.57338,-28.78253 1.28068,-28.78253c0.70729,0 1.28068,12.88638 1.28068,28.78253"/><path d="M156.22675,171.22672c0,-16.72981 0.57338,-30.29199 1.28068,-30.29199c0.70729,0 1.28068,13.56218 1.28068,30.29199"/><path d="M156.25865,169.71726c0,-15.89616 0.55909,-28.78253 1.24877,-28.78253c0.68968,0 1.24877,12.88638 1.24877,28.78253"/><path d="M156.28958,169.6224c0,-15.89616 0.54525,-28.78253 1.21784,-28.78253c0.67259,0 1.21782,12.88638 1.21782,28.78253"/><path d="M156.00315,171.29109c0,-16.72981 0.67328,-30.29199 1.50381,-30.29199c0.83053,0 1.50381,13.5622 1.50381,30.29199"/><path d="M156.04062,169.78165c0,-15.89616 0.65651,-28.78253 1.46635,-28.78253c0.80984,0 1.46635,12.88638 1.46635,28.78253"/><path d="M156.07696,169.68678c0,-15.89616 0.64025,-28.78253 1.43001,-28.78253c0.78978,0 1.43001,12.88638 1.43001,28.78253"/><path d="M156.07696,171.33852c0,-16.72981 0.64025,-30.29199 1.43001,-30.29199c0.78978,0 1.43001,13.5622 1.43001,30.29199"/><path d="M156.11258,169.82907c0,-15.89616 0.6243,-28.78253 1.39439,-28.78253c0.7701,0 1.39439,12.88638 1.39439,28.78253"/><path d="M156.14713,169.73421c0,-15.89616 0.60882,-28.78253 1.35983,-28.78253c0.75102,0 1.35983,12.88638 1.35983,28.78253"/><path d="M156.17796,171.17926c0,-16.72981 0.59501,-30.29199 1.32901,-30.29199c0.734,0 1.32901,13.56218 1.32901,30.29199"/><path d="M156.21107,169.66983c0,-15.89616 0.5802,-28.78253 1.29591,-28.78253c0.71571,0 1.29591,12.88638 1.29591,28.78253"/><path d="M156.24318,169.57498c0,-15.89616 0.56583,-28.78253 1.26379,-28.78253c0.69797,0 1.26379,12.88638 1.26379,28.78253"/><path d="M156.24318,171.22672c0,-16.72981 0.56583,-30.29199 1.26379,-30.29199c0.69797,0 1.26379,13.56218 1.26379,30.29199"/><path d="M156.27467,169.71726c0,-15.89616 0.55172,-28.78253 1.2323,-28.78253c0.68059,0 1.2323,12.88638 1.2323,28.78253"/><path d="M156.30519,169.6224c0,-15.89616 0.53805,-28.78253 1.20177,-28.78253c0.66372,0 1.20177,12.88638 1.20177,28.78253"/><path d="M155.57856,171.29109c0,-16.72981 0.86358,-30.29199 1.92886,-30.29199c1.06529,0 1.92886,13.5622 1.92886,30.29199"/><path d="M155.62661,169.78165c0,-15.89616 0.84207,-28.78253 1.88081,-28.78253c1.03874,0 1.88081,12.88638 1.88081,28.78253"/><path d="M155.67321,169.68678c0,-15.89616 0.82121,-28.78253 1.83422,-28.78253c1.01301,0 1.83422,12.88638 1.83422,28.78253"/><path d="M155.67321,171.33852c0,-16.72981 0.82121,-30.29199 1.83422,-30.29199c1.01301,0 1.83422,13.5622 1.83422,30.29199"/><path d="M155.71892,169.82907c0,-15.89616 0.80074,-28.78253 1.7885,-28.78253c0.98776,0 1.7885,12.88638 1.7885,28.78253"/><path d="M155.76323,169.73421c0,-15.89616 0.7809,-28.78253 1.74419,-28.78253c0.96329,0 1.74419,12.88638 1.74419,28.78253"/><path d="M155.80277,171.17926c0,-16.72981 0.7632,-30.29199 1.70466,-30.29199c0.94145,0 1.70466,13.56218 1.70466,30.29199"/><path d="M155.84524,169.66983c0,-15.89616 0.74419,-28.78253 1.66219,-28.78253c0.918,0 1.66219,12.88638 1.66219,28.78253"/><path d="M155.88642,169.57498c0,-15.89616 0.72574,-28.78253 1.621,-28.78253c0.89526,0 1.621,12.88638 1.621,28.78253"/><path d="M155.88642,171.22672c0,-16.72981 0.72574,-30.29199 1.621,-30.29199c0.89526,0 1.621,13.56218 1.621,30.29199"/><path d="M155.92681,169.71726c0,-15.89616 0.70768,-28.78253 1.58062,-28.78253c0.87295,0 1.58062,12.88638 1.58062,28.78253"/><path d="M155.96596,169.6224c0,-15.89616 0.69014,-28.78253 1.54146,-28.78253c0.85132,0 1.54146,12.88638 1.54146,28.78253"/><path d="M155.60341,171.29109c0,-16.72981 0.8522,-30.29199 1.90344,-30.29199c1.05124,0 1.90344,13.5622 1.90344,30.29199"/><path d="M155.65084,169.78165c0,-15.89616 0.83097,-28.78253 1.85601,-28.78253c1.02504,0 1.85601,12.88638 1.85601,28.78253"/><path d="M155.69683,169.68678c0,-15.89616 0.81037,-28.78253 1.81002,-28.78253c0.99965,0 1.81002,12.88638 1.81002,28.78253"/><path d="M155.69683,171.33852c0,-16.72981 0.81037,-30.29199 1.81002,-30.29199c0.99965,0 1.81002,13.5622 1.81002,30.29199"/><path d="M155.74192,169.82907c0,-15.89616 0.79018,-28.78253 1.76493,-28.78253c0.97475,0 1.76493,12.88638 1.76493,28.78253"/><path d="M155.78565,170.37916c0,-15.89616 0.77104,-28.78253 1.72218,-28.78253c0.95113,0 1.72218,12.88638 1.72218,28.78253"/><path d="M155.82466,171.17926c0,-16.72981 0.75314,-30.29199 1.68219,-30.29199c0.92905,0 1.68219,13.56218 1.68219,30.29199"/><path d="M155.86658,169.66983c0,-15.89616 0.73438,-28.78253 1.64027,-28.78253c0.9059,0 1.64027,12.88638 1.64027,28.78253"/><path d="M155.90722,169.57498c0,-15.89616 0.71617,-28.78253 1.59962,-28.78253c0.88345,0 1.59962,12.88638 1.59962,28.78253"/><path d="M155.90722,171.22672c0,-16.72981 0.71617,-30.29199 1.59962,-30.29199c0.88345,0 1.59962,13.56218 1.59962,30.29199"/><path d="M155.94707,169.71726c0,-15.89616 0.69833,-28.78253 1.55978,-28.78253c0.86145,0 1.55978,12.88638 1.55978,28.78253"/><path d="M155.98571,169.6224c0,-15.89616 0.68104,-28.78253 1.52114,-28.78253c0.8401,0 1.52114,12.88638 1.52114,28.78253"/><path d="M155.78176,169.76008c0,-15.89616 0.77104,-28.78253 1.72218,-28.78253c0.95113,0 1.72218,12.88638 1.72218,28.78253"/><path d="M156.56904,171.29109c0,-16.72981 0.42508,-30.29199 0.94947,-30.29199c0.52437,0 0.94947,13.5622 0.94947,30.29199"/><path d="M156.59269,169.78165c0,-15.89616 0.41451,-28.78253 0.9258,-28.78253c0.51131,0 0.9258,12.88638 0.9258,28.78253"/><path d="M156.61564,169.68678c0,-15.89616 0.40423,-28.78253 0.90287,-28.78253c0.49864,0 0.90287,12.88638 0.90287,28.78253"/><path d="M156.61564,171.33852c0,-16.72981 0.40423,-30.29199 0.90287,-30.29199c0.49864,0 0.90287,13.5622 0.90287,30.29199"/><path d="M156.63814,169.82907c0,-15.89616 0.39415,-28.78253 0.88038,-28.78253c0.48622,0 0.88038,12.88638 0.88038,28.78253"/><path d="M156.65994,169.73421c0,-15.89616 0.38439,-28.78253 0.85857,-28.78253c0.47417,0 0.85857,12.88638 0.85857,28.78253"/><path d="M156.6794,171.17926c0,-16.72981 0.37567,-30.29199 0.83909,-30.29199c0.46342,0 0.83909,13.56218 0.83909,30.29199"/><path d="M156.70032,169.66983c0,-15.89616 0.36633,-28.78253 0.8182,-28.78253c0.45187,0 0.8182,12.88638 0.8182,28.78253"/><path d="M156.72059,169.57498c0,-15.89616 0.35724,-28.78253 0.79792,-28.78253c0.44068,0 0.79792,12.88638 0.79792,28.78253"/><path d="M156.72059,171.22672c0,-16.72981 0.35724,-30.29199 0.79792,-30.29199c0.44068,0 0.79792,13.56218 0.79792,30.29199"/><path d="M156.74046,169.71726c0,-15.89616 0.34834,-28.78253 0.77805,-28.78253c0.42971,0 0.77805,12.88638 0.77805,28.78253"/><path d="M156.75974,169.6224c0,-15.89616 0.33972,-28.78253 0.75877,-28.78253c0.41905,0 0.75877,12.88638 0.75877,28.78253"/><path d="M156.58128,171.29109c0,-16.72981 0.41948,-30.29199 0.93696,-30.29199c0.51746,0 0.93694,13.5622 0.93694,30.29199"/><path d="M156.60463,169.78165c0,-15.89616 0.40903,-28.78253 0.9136,-28.78253c0.50456,0 0.9136,12.88638 0.9136,28.78253"/><path d="M156.62725,169.68678c0,-15.89616 0.39891,-28.78253 0.89097,-28.78253c0.49206,0 0.89097,12.88638 0.89097,28.78253"/><path d="M156.62725,171.33852c0,-16.72981 0.39891,-30.29199 0.89097,-30.29199c0.49206,0 0.89097,13.5622 0.89097,30.29199"/><path d="M156.64946,169.82907c0,-15.89616 0.38897,-28.78253 0.86878,-28.78253c0.47981,0 0.86876,12.88638 0.86876,28.78253"/><path d="M156.67099,169.73421c0,-15.89616 0.37932,-28.78253 0.84724,-28.78253c0.46792,0 0.84724,12.88638 0.84724,28.78253"/><path d="M156.69019,171.17926c0,-16.72981 0.37073,-30.29199 0.82804,-30.29199c0.45731,0 0.82804,13.56218 0.82804,30.29199"/><path d="M156.71081,169.66983c0,-15.89616 0.36148,-28.78253 0.80741,-28.78253c0.44592,0 0.80741,12.88638 0.80741,28.78253"/><path d="M156.73083,169.57498c0,-15.89616 0.35253,-28.78253 0.7874,-28.78253c0.43488,0 0.7874,12.88638 0.7874,28.78253"/><path d="M156.73083,171.22672c0,-16.72981 0.35253,-30.29199 0.7874,-30.29199c0.43488,0 0.7874,13.56218 0.7874,30.29199"/><path d="M156.75045,169.71726c0,-15.89616 0.34375,-28.78253 0.76778,-28.78253c0.42403,0 0.76778,12.88638 0.76778,28.78253"/><path d="M156.76946,169.6224c0,-15.89616 0.33524,-28.78253 0.74877,-28.78253c0.41353,0 0.74877,12.88638 0.74877,28.78253"/><path d="M156.31674,171.29109c0,-16.72981 0.53805,-30.29199 1.20177,-30.29199c0.66372,0 1.20177,13.5622 1.20177,30.29199"/><path d="M156.34668,169.78165c0,-15.89616 0.52464,-28.78253 1.17184,-28.78253c0.64718,0 1.17184,12.88638 1.17184,28.78253"/><path d="M156.3757,169.68678c0,-15.89616 0.51165,-28.78253 1.14279,-28.78253c0.63115,0 1.14279,12.88638 1.14279,28.78253"/><path d="M156.3757,171.33852c0,-16.72981 0.51165,-30.29199 1.14279,-30.29199c0.63115,0 1.14279,13.5622 1.14279,30.29199"/><path d="M156.40418,169.82907c0,-15.89616 0.4989,-28.78253 1.11433,-28.78253c0.61543,0 1.11433,12.88638 1.11433,28.78253"/><path d="M156.43179,169.73421c0,-15.89616 0.48654,-28.78253 1.08671,-28.78253c0.60018,0 1.08671,12.88638 1.08671,28.78253"/><path d="M156.45643,171.17926c0,-16.72981 0.47552,-30.29199 1.06209,-30.29199c0.58657,0 1.06209,13.56218 1.06209,30.29199"/><path d="M156.48288,169.66983c0,-15.89616 0.46366,-28.78253 1.03562,-28.78253c0.57196,0 1.03562,12.88638 1.03562,28.78253"/><path d="M156.50854,169.57498c0,-15.89616 0.45217,-28.78253 1.00997,-28.78253c0.55778,0 1.00997,12.88638 1.00997,28.78253"/><path d="M156.50854,171.22672c0,-16.72981 0.45217,-30.29199 1.00997,-30.29199c0.55778,0 1.00997,13.56218 1.00997,30.29199"/><path d="M156.53371,169.71726c0,-15.89616 0.44091,-28.78253 0.9848,-28.78253c0.54389,0 0.9848,12.88638 0.9848,28.78253"/><path d="M156.55811,169.6224c0,-15.89616 0.42998,-28.78253 0.9604,-28.78253c0.53042,0 0.9604,12.88638 0.9604,28.78253"/><path d="M156.33223,171.29109c0,-16.72981 0.53096,-30.29199 1.18593,-30.29199c0.65497,0 1.18593,13.5622 1.18593,30.29199"/><path d="M156.36177,169.78165c0,-15.89616 0.51773,-28.78253 1.15638,-28.78253c0.63865,0 1.15638,12.88638 1.15638,28.78253"/><path d="M156.39042,169.68678c0,-15.89616 0.5049,-28.78253 1.12774,-28.78253c0.62282,0 1.12774,12.88638 1.12774,28.78253"/><path d="M156.39042,171.33852c0,-16.72981 0.5049,-30.29199 1.12774,-30.29199c0.62282,0 1.12774,13.5622 1.12774,30.29199"/><path d="M156.41852,169.82907c0,-15.89616 0.49232,-28.78253 1.09964,-28.78253c0.6073,0 1.09964,12.88638 1.09964,28.78253"/><path d="M156.44576,170.37916c0,-15.89616 0.4804,-28.78253 1.073,-28.78253c0.5926,0 1.073,12.88638 1.073,28.78253"/><path d="M156.47006,171.17926c0,-16.72981 0.46925,-30.29199 1.04808,-30.29199c0.57884,0 1.04808,13.56218 1.04808,30.29199"/><path d="M156.49617,169.66983c0,-15.89616 0.45755,-28.78253 1.02197,-28.78253c0.56442,0 1.02197,12.88638 1.02197,28.78253"/><path d="M156.5215,169.57498c0,-15.89616 0.44621,-28.78253 0.99664,-28.78253c0.55044,0 0.99664,12.88638 0.99664,28.78253"/><path d="M156.5215,171.22672c0,-16.72981 0.44621,-30.29199 0.99664,-30.29199c0.55044,0 0.99664,13.56218 0.99664,30.29199"/><path d="M156.54634,169.71726c0,-15.89616 0.4351,-28.78253 0.97181,-28.78253c0.53672,0 0.97181,12.88638 0.97181,28.78253"/><path d="M156.57042,169.6224c0,-15.89616 0.42432,-28.78253 0.94774,-28.78253c0.52343,0 0.94774,12.88638 0.94774,28.78253"/><path d="M156.44334,169.76008c0,-15.89616 0.4804,-28.78253 1.073,-28.78253c0.5926,0 1.073,12.88638 1.073,28.78253"/><path d="M156.97416,169.6224c0,-15.89616 0.33129,-28.78253 0.73997,-28.78253c0.40867,0 0.73997,12.88638 0.73997,28.78253"/><path d="M156.96508,169.71726c0,-15.89616 0.33524,-28.78253 0.74877,-28.78253c0.41353,0 0.74877,12.88638 0.74877,28.78253"/><path d="M156.98363,169.6224c0,-15.89616 0.32693,-28.78253 0.73021,-28.78253c0.40329,0 0.73021,12.88638 0.73021,28.78253"/><path d="M157.14553,171.29109c0,-16.72981 0.25829,-30.29199 0.5769,-30.29199c0.31861,0 0.5769,13.5622 0.5769,30.29199"/><path d="M157.1599,169.78165c0,-15.89616 0.25186,-28.78253 0.56253,-28.78253c0.31068,0 0.56253,12.88638 0.56253,28.78253"/><path d="M157.17383,169.68678c0,-15.89616 0.24562,-28.78253 0.5486,-28.78253c0.30298,0 0.5486,12.88638 0.5486,28.78253"/><path d="M157.17383,171.33852c0,-16.72981 0.24562,-30.29199 0.5486,-30.29199c0.30298,0 0.5486,13.5622 0.5486,30.29199"/><path d="M157.1875,169.82907c0,-15.89616 0.23949,-28.78253 0.53493,-28.78253c0.29543,0 0.53493,12.88638 0.53493,28.78253"/><path d="M157.20076,169.73421c0,-15.89616 0.23357,-28.78253 0.52167,-28.78253c0.28811,0 0.52167,12.88638 0.52167,28.78253"/><path d="M157.21257,171.17926c0,-16.72981 0.22827,-30.29199 0.50984,-30.29199c0.28159,0 0.50984,13.56218 0.50984,30.29199"/><path d="M157.22528,169.66983c0,-15.89616 0.22257,-28.78253 0.49714,-28.78253c0.27456,0 0.49714,12.88638 0.49714,28.78253"/><path d="M157.2376,169.57498c0,-15.89616 0.21707,-28.78253 0.48483,-28.78253c0.26776,0 0.48483,12.88638 0.48483,28.78253"/><path d="M157.2376,171.22672c0,-16.72981 0.21707,-30.29199 0.48483,-30.29199c0.26776,0 0.48483,13.56218 0.48483,30.29199"/><path d="M157.24968,169.71726c0,-15.89616 0.21166,-28.78253 0.47275,-28.78253c0.26109,0 0.47275,12.88638 0.47275,28.78253"/><path d="M157.26139,169.6224c0,-15.89616 0.20641,-28.78253 0.46104,-28.78253c0.25462,0 0.46104,12.88638 0.46104,28.78253"/><path d="M157.15295,171.29109c0,-16.72981 0.25488,-30.29199 0.5693,-30.29199c0.31442,0 0.5693,13.5622 0.5693,30.29199"/><path d="M157.16715,169.78165c0,-15.89616 0.24853,-28.78253 0.55511,-28.78253c0.30658,0 0.55511,12.88638 0.55511,28.78253"/><path d="M157.18089,169.68678c0,-15.89616 0.24238,-28.78253 0.54136,-28.78253c0.29898,0 0.54136,12.88638 0.54136,28.78253"/><path d="M157.18089,171.33852c0,-16.72981 0.24238,-30.29199 0.54136,-30.29199c0.29898,0 0.54136,13.5622 0.54136,30.29199"/><path d="M157.19438,169.82907c0,-15.89616 0.23634,-28.78253 0.52787,-28.78253c0.29154,0 0.52787,12.88638 0.52787,28.78253"/><path d="M157.20747,169.73421c0,-15.89616 0.23048,-28.78253 0.5148,-28.78253c0.28432,0 0.51479,12.88638 0.51479,28.78253"/><path d="M157.21913,171.17926c0,-16.72981 0.22526,-30.29199 0.50312,-30.29199c0.27787,0 0.50312,13.56218 0.50312,30.29199"/><path d="M157.23166,169.66983c0,-15.89616 0.21965,-28.78253 0.49059,-28.78253c0.27095,0 0.49059,12.88638 0.49059,28.78253"/><path d="M157.24382,169.57498c0,-15.89616 0.21421,-28.78253 0.47843,-28.78253c0.26424,0 0.47843,12.88638 0.47843,28.78253"/><path d="M157.24382,171.22672c0,-16.72981 0.21421,-30.29199 0.47843,-30.29199c0.26424,0 0.47843,13.56218 0.47843,30.29199"/><path d="M157.25574,169.71726c0,-15.89616 0.20886,-28.78253 0.46651,-28.78253c0.25765,0 0.46651,12.88638 0.46651,28.78253"/><path d="M157.2673,169.6224c0,-15.89616 0.20369,-28.78253 0.45496,-28.78253c0.25126,0 0.45496,12.88638 0.45496,28.78253"/><path d="M156.99222,171.29109c0,-16.72981 0.32693,-30.29199 0.73021,-30.29199c0.40329,0 0.73021,13.5622 0.73021,30.29199"/><path d="M157.01042,169.78165c0,-15.89616 0.31877,-28.78253 0.71201,-28.78253c0.39324,0 0.71201,12.88638 0.71201,28.78253"/><path d="M157.02805,169.68678c0,-15.89616 0.31088,-28.78253 0.69438,-28.78253c0.3835,0 0.69438,12.88638 0.69438,28.78253"/><path d="M157.02805,171.33852c0,-16.72981 0.31088,-30.29199 0.69438,-30.29199c0.3835,0 0.69438,13.5622 0.69438,30.29199"/><path d="M157.04535,169.82907c0,-15.89616 0.30314,-28.78253 0.67708,-28.78253c0.37394,0 0.67708,12.88638 0.67708,28.78253"/><path d="M157.06213,169.73421c0,-15.89616 0.29564,-28.78253 0.6603,-28.78253c0.36468,0 0.6603,12.88638 0.6603,28.78253"/><path d="M157.07709,171.17926c0,-16.72981 0.28893,-30.29199 0.64534,-30.29199c0.35641,0 0.64534,13.56218 0.64534,30.29199"/><path d="M157.09317,169.66983c0,-15.89616 0.28173,-28.78253 0.62926,-28.78253c0.34753,0 0.62926,12.88638 0.62926,28.78253"/><path d="M157.10876,169.57498c0,-15.89616 0.27475,-28.78253 0.61367,-28.78253c0.33892,0 0.61367,12.88638 0.61367,28.78253"/><path d="M157.10876,171.22672c0,-16.72981 0.27475,-30.29199 0.61367,-30.29199c0.33892,0 0.61367,13.56218 0.61367,30.29199"/><path d="M157.12406,169.71726c0,-15.89616 0.26791,-28.78253 0.59837,-28.78253c0.33047,0 0.59837,12.88638 0.59837,28.78253"/><path d="M157.13887,169.6224c0,-15.89616 0.26127,-28.78253 0.58354,-28.78253c0.32229,0 0.58354,12.88638 0.58354,28.78253"/><path d="M157.00163,171.29109c0,-16.72981 0.32261,-30.29199 0.72059,-30.29199c0.39796,0 0.72059,13.5622 0.72059,30.29199"/><path d="M157.01958,169.78165c0,-15.89616 0.31458,-28.78253 0.70264,-28.78253c0.38806,0 0.70264,12.88638 0.70264,28.78253"/><path d="M157.03699,169.68678c0,-15.89616 0.30679,-28.78253 0.68521,-28.78253c0.37844,0 0.68521,12.88638 0.68521,28.78253"/><path d="M157.03699,171.33852c0,-16.72981 0.30679,-30.29199 0.68521,-30.29199c0.37844,0 0.68521,13.5622 0.68521,30.29199"/><path d="M157.05407,169.82907c0,-15.89616 0.29914,-28.78253 0.66816,-28.78253c0.369,0 0.66816,12.88638 0.66816,28.78253"/><path d="M157.07061,170.37916c0,-15.89616 0.29189,-28.78253 0.65196,-28.78253c0.36007,0 0.65196,12.88638 0.65196,28.78253"/><path d="M157.08538,171.17926c0,-16.72981 0.28512,-30.29199 0.63683,-30.29199c0.3517,0 0.63683,13.56218 0.63683,30.29199"/><path d="M157.10125,169.66983c0,-15.89616 0.27802,-28.78253 0.62097,-28.78253c0.34295,0 0.62097,12.88638 0.62097,28.78253"/><path d="M157.11663,169.57498c0,-15.89616 0.27112,-28.78253 0.60558,-28.78253c0.33445,0 0.60558,12.88638 0.60558,28.78253"/><path d="M157.11663,171.22672c0,-16.72981 0.27112,-30.29199 0.60558,-30.29199c0.33445,0 0.60558,13.56218 0.60558,30.29199"/><path d="M157.13172,169.71726c0,-15.89616 0.26437,-28.78253 0.59049,-28.78253c0.32612,0 0.59049,12.88638 0.59049,28.78253"/><path d="M157.14636,169.6224c0,-15.89616 0.25782,-28.78253 0.57586,-28.78253c0.31804,0 0.57586,12.88638 0.57586,28.78253"/><path d="M157.06914,169.76008c0,-15.89616 0.29189,-28.78253 0.65196,-28.78253c0.36007,0 0.65196,12.88638 0.65196,28.78253"/><path d="M157.36719,171.29109c0,-16.72981 0.16092,-30.29199 0.35945,-30.29199c0.19851,0 0.35945,13.5622 0.35945,30.29199"/><path d="M157.37614,169.78165c0,-15.89616 0.15692,-28.78253 0.35049,-28.78253c0.19356,0 0.35049,12.88638 0.35049,28.78253"/><path d="M157.38482,169.68678c0,-15.89616 0.15303,-28.78253 0.3418,-28.78253c0.18876,0 0.3418,12.88638 0.3418,28.78253"/><path d="M157.38482,171.33852c0,-16.72981 0.15303,-30.29199 0.3418,-30.29199c0.18876,0 0.3418,13.5622 0.3418,30.29199"/><path d="M157.39334,169.82907c0,-15.89616 0.14923,-28.78253 0.33329,-28.78253c0.18406,0 0.33329,12.88638 0.33329,28.78253"/><path d="M157.40159,169.73421c0,-15.89616 0.14551,-28.78253 0.32503,-28.78253c0.17952,0 0.32503,12.88638 0.32503,28.78253"/><path d="M157.40897,171.17926c0,-16.72981 0.14222,-30.29199 0.31765,-30.29199c0.17544,0 0.31765,13.56218 0.31765,30.29199"/><path d="M157.41687,169.66983c0,-15.89616 0.13868,-28.78253 0.30975,-28.78253c0.17107,0 0.30975,12.88638 0.30975,28.78253"/><path d="M157.42455,169.57498c0,-15.89616 0.13524,-28.78253 0.30207,-28.78253c0.16683,0 0.30207,12.88638 0.30207,28.78253"/><path d="M157.42455,171.22672c0,-16.72981 0.13524,-30.29199 0.30207,-30.29199c0.16683,0 0.30207,13.56218 0.30207,30.29199"/><path d="M157.43208,169.71726c0,-15.89616 0.13186,-28.78253 0.29455,-28.78253c0.16267,0 0.29455,12.88638 0.29455,28.78253"/><path d="M157.43937,169.6224c0,-15.89616 0.1286,-28.78253 0.28725,-28.78253c0.15865,0 0.28725,12.88638 0.28725,28.78253"/><path d="M157.37182,171.29109c0,-16.72981 0.15881,-30.29199 0.3547,-30.29199c0.1959,0 0.3547,13.5622 0.3547,30.29199"/><path d="M157.38065,169.78165c0,-15.89616 0.15484,-28.78253 0.34586,-28.78253c0.19102,0 0.34586,12.88638 0.34586,28.78253"/><path d="M157.38922,169.68678c0,-15.89616 0.15102,-28.78253 0.33729,-28.78253c0.18628,0 0.33729,12.88638 0.33729,28.78253"/><path d="M157.38922,171.33852c0,-16.72981 0.15102,-30.29199 0.33729,-30.29199c0.18628,0 0.33729,13.5622 0.33729,30.29199"/><path d="M157.39763,169.82907c0,-15.89616 0.14724,-28.78253 0.32889,-28.78253c0.18164,0 0.32889,12.88638 0.32889,28.78253"/><path d="M157.40577,169.73421c0,-15.89616 0.14359,-28.78253 0.32074,-28.78253c0.17715,0 0.32074,12.88638 0.32074,28.78253"/><path d="M157.41305,171.17926c0,-16.72981 0.14035,-30.29199 0.31348,-30.29199c0.17313,0 0.31348,13.56218 0.31348,30.29199"/><path d="M157.42086,169.66983c0,-15.89616 0.13686,-28.78253 0.30567,-28.78253c0.16881,0 0.30567,12.88638 0.30567,28.78253"/><path d="M157.42843,169.57498c0,-15.89616 0.13346,-28.78253 0.29808,-28.78253c0.16463,0 0.29808,12.88638 0.29808,28.78253"/><path d="M157.42843,171.22672c0,-16.72981 0.13346,-30.29199 0.29808,-30.29199c0.16463,0 0.29808,13.56218 0.29808,30.29199"/><path d="M157.43585,169.71726c0,-15.89616 0.13014,-28.78253 0.29066,-28.78253c0.16052,0 0.29066,12.88638 0.29066,28.78253"/><path d="M157.44305,169.6224c0,-15.89616 0.1269,-28.78253 0.28346,-28.78253c0.15655,0 0.28346,12.88638 0.28346,28.78253"/><path d="M157.27166,171.29109c0,-16.72981 0.20369,-30.29199 0.45496,-30.29199c0.25126,0 0.45496,13.5622 0.45496,30.29199"/><path d="M157.28301,169.78165c0,-15.89616 0.19862,-28.78253 0.44361,-28.78253c0.24501,0 0.44361,12.88638 0.44361,28.78253"/><path d="M157.294,169.68678c0,-15.89616 0.19369,-28.78253 0.43264,-28.78253c0.23893,0 0.43264,12.88638 0.43264,28.78253"/><path d="M157.294,171.33852c0,-16.72981 0.19369,-30.29199 0.43264,-30.29199c0.23893,0 0.43264,13.5622 0.43264,30.29199"/><path d="M157.30477,169.82907c0,-15.89616 0.18886,-28.78253 0.42185,-28.78253c0.23298,0 0.42185,12.88638 0.42185,28.78253"/><path d="M157.31522,169.73421c0,-15.89616 0.18419,-28.78253 0.4114,-28.78253c0.22721,0 0.4114,12.88638 0.4114,28.78253"/><path d="M157.32455,171.17926c0,-16.72981 0.18001,-30.29199 0.40207,-30.29199c0.22206,0 0.40207,13.56218 0.40207,30.29199"/><path d="M157.33456,169.66983c0,-15.89616 0.17553,-28.78253 0.39206,-28.78253c0.21653,0 0.39206,12.88638 0.39206,28.78253"/><path d="M157.34428,169.57498c0,-15.89616 0.17118,-28.78253 0.38234,-28.78253c0.21117,0 0.38234,12.88638 0.38234,28.78253"/><path d="M157.34428,171.22672c0,-16.72981 0.17118,-30.29199 0.38234,-30.29199c0.21117,0 0.38234,13.56218 0.38234,30.29199"/><path d="M157.35381,169.71726c0,-15.89616 0.16692,-28.78253 0.37282,-28.78253c0.2059,0 0.37282,12.88638 0.37282,28.78253"/><path d="M157.36305,169.6224c0,-15.89616 0.16278,-28.78253 0.36358,-28.78253c0.2008,0 0.36358,12.88638 0.36358,28.78253"/><path d="M157.27754,171.29109c0,-16.72981 0.20101,-30.29199 0.44896,-30.29199c0.24795,0 0.44896,13.5622 0.44896,30.29199"/><path d="M157.28872,169.78165c0,-15.89616 0.196,-28.78253 0.43777,-28.78253c0.24178,0 0.43777,12.88638 0.43777,28.78253"/><path d="M157.29957,169.68678c0,-15.89616 0.19115,-28.78253 0.42692,-28.78253c0.23579,0 0.42692,12.88638 0.42692,28.78253"/><path d="M157.29957,171.33852c0,-16.72981 0.19115,-30.29199 0.42692,-30.29199c0.23579,0 0.42692,13.5622 0.42692,30.29199"/><path d="M157.3102,169.82907c0,-15.89616 0.18638,-28.78253 0.41628,-28.78253c0.2299,0 0.41628,12.88638 0.41628,28.78253"/><path d="M157.32052,170.37916c0,-15.89616 0.18187,-28.78253 0.4062,-28.78253c0.22433,0 0.4062,12.88638 0.4062,28.78253"/><path d="M157.32972,171.17926c0,-16.72981 0.17764,-30.29199 0.39678,-30.29199c0.21913,0 0.39678,13.56218 0.39678,30.29199"/><path d="M157.33961,169.66983c0,-15.89616 0.17321,-28.78253 0.38689,-28.78253c0.21368,0 0.38689,12.88638 0.38689,28.78253"/><path d="M157.34919,169.57498c0,-15.89616 0.16892,-28.78253 0.3773,-28.78253c0.20838,0 0.3773,12.88638 0.3773,28.78253"/><path d="M157.34919,171.22672c0,-16.72981 0.16892,-30.29199 0.3773,-30.29199c0.20838,0 0.3773,13.56218 0.3773,30.29199"/><path d="M157.35858,169.71726c0,-15.89616 0.16471,-28.78253 0.3679,-28.78253c0.20318,0 0.3679,12.88638 0.3679,28.78253"/><path d="M157.3677,169.6224c0,-15.89616 0.16063,-28.78253 0.35879,-28.78253c0.19816,0 0.35879,12.88638 0.35879,28.78253"/><path d="M157.31959,169.76008c0,-15.89616 0.18187,-28.78253 0.4062,-28.78253c0.22433,0 0.4062,12.88638 0.4062,28.78253"/></g></g><path d="M166.46193,205.75231c0,0 -0.68164,6.19629 1.8377,10.07949c2.50392,3.8594 10.91154,8.2555 16.09839,10.00012c5.64832,1.89984 24.59551,6.29976 24.97914,16.78232c-10.06426,-0.1782 -90.93426,-0.16582 -102.37715,-0.26901c0.08308,-9.32911 17.86694,-14.06573 23.80262,-16.1506c3.91126,-1.37382 12.95102,-6.50345 15.45493,-10.36284c2.51936,-3.8832 1.8377,-10.07949 1.8377,-10.07949c0,0 3.72349,2.41901 8.86162,2.43885c5.92952,0.0229 9.50502,-2.43885 9.50502,-2.43885z" fill="#ffedc7" stroke="#ff0000" stroke-width="0.25" stroke-linecap="round"/><path d="M194.56663,229.16848c6.99617,2.67229 14.56941,6.85778 14.81052,13.44576c-10.06426,-0.1782 -90.93426,-0.16582 -102.37715,-0.26901c0.0532,-5.9736 7.36384,-10.06424 14.17431,-12.78144c1.37652,5.27256 3.78121,9.44797 6.72448,12.75452c6.26537,0.05306 50.24031,0.18587 58.12003,0.08631c3.27818,-3.40194 6.26166,-7.72995 8.54782,-13.23614z" fill="#ffffff" stroke="#ff0000" stroke-width="0.25" stroke-linecap="round"/><g fill="#ff0000" stroke="#000000" stroke-width="0" stroke-linecap="butt"><path d="M225.48536,242.41848v-38.5h136.5v38.5zM289.25262,232.04542l-2.07711,-0.34315c-2.74721,-2.29195 -4.96345,-6.0762 -8.10801,-7.77717c3.93809,1.54228 4.35102,-0.42419 7.1746,-2.02355c1.92055,-1.08786 5.0388,-0.49656 6.17606,-2.38828c3.72153,-6.19036 -4.75359,-9.60268 -8.82826,-10.68902c-1.23358,-0.32889 -2.38098,-1.13815 -3.65765,-1.13602c-4.97938,0.00829 -4.8804,1.30264 -6.25552,5.49607c-2.12626,6.48402 -0.62825,13.08024 -0.62825,19.72691c0,0 0,2.5 2.5,2.5c2.5,0 2.5,-2.5 2.5,-2.5c0,-1.06253 -0.02651,-2.10717 -0.06425,-3.13936c0.73149,0.54125 1.47506,1.07137 2.11173,1.70797c1.62083,1.62067 3.16094,3.34404 4.96765,4.75455l3.20843,0.71395c0,0 2.45145,0.49029 2.94174,-1.96116c0.49029,-2.45145 -1.96116,-2.94174 -1.96116,-2.94174zM314.80425,232.91121v2.64277c0,1.38071 1.11929,2.5 2.5,2.5c1.38071,0 2.5,-1.11929 2.5,-2.5v-2.64277c0,-5.09082 0.02859,-10.18195 -0.04511,-15.27228c-0.94567,-1.52571 -1.13774,-3.99867 -2.837,-4.57716c-1.54676,-0.52657 -3.0699,1.19455 -4.42723,2.10418c-1.93514,1.29686 -4.29978,4.01473 -4.27085,6.58661c-0.27785,-0.40027 -0.66904,-0.73347 -0.89715,-1.1658c-0.4969,-0.94173 -0.61285,-2.08722 -1.25223,-2.93867c-0.59347,-0.79031 -1.63141,-1.13434 -2.33074,-1.83272c-2.3136,-2.31045 -4.09094,-8.2376 -9.16683,-4.92257c-1.30241,0.8506 -0.71942,3.0329 -0.91503,4.57612c-0.78543,6.19648 0.32063,13.05244 1.6452,19.04172c0,0 0.54233,2.44047 2.9828,1.89814c2.44047,-0.54233 1.89814,-2.98279 1.89814,-2.98279c-1.15369,-5.16512 -1.52632,-10.04689 -1.52613,-15.3143c0,-0.04725 0.05079,-0.3136 0.09319,-0.67722c1.01105,1.17327 2.41883,2.01037 3.35084,3.25505c1.80435,2.40966 2.93479,8.84941 8.1372,7.16664c1.64904,-0.5334 1.69213,-3.02567 2.49944,-4.55933c0.55683,-1.05782 1.35375,-1.96869 2.07623,-2.92586c-0.0562,4.17926 -0.01473,8.36093 -0.01473,12.54023zM355.0137,231.672l-0.34415,-0.32253c-1.24973,-1.53383 -2.28681,-3.26903 -3.0364,-5.10003c-0.49945,-0.26769 -0.87218,-0.4568 -1.13894,-0.58578c0.55813,0.18984 1.43788,0.39241 2.16737,0.18847c1.52048,-0.42507 3.38321,-0.78447 4.24017,-2.11043c0.91557,-1.41666 0.55086,-3.36709 0.38473,-5.04566c-0.07748,-0.78279 -2.65266,-6.4651 -2.97036,-6.73476c-2.57227,-2.18324 -3.49666,-0.3281 -5.86386,-1.41739c-2.41775,-1.11255 -3.41315,-4.58246 -7.36238,-1.7653c-1.26639,0.90337 -0.76787,3.02753 -0.91503,4.57612c-0.64942,6.83393 1.58566,13.32603 1.58566,20.08506c0,0 0,2.5 2.5,2.5c2.5,0 2.5,-2.5 2.5,-2.5c0,-1.98704 -0.16767,-3.89473 -0.39742,-5.77857c0.3453,0.40571 0.71988,0.84653 1.09586,1.3407c0.77378,1.98537 1.98715,3.79762 3.30625,5.47105l0.71296,0.73458c0,0 1.76777,1.76776 3.53553,0c1.76776,-1.76776 0,-3.53553 0,-3.53553zM260.22041,234.63964c-0.88092,0 -1.79055,-0.22304 -2.64277,0c-0.07131,0.01866 -0.15131,0.07385 -0.23231,0.14871c1.09984,-1.96427 0.19864,-3.73181 0.55322,-6.03973c0.62988,0.31993 1.26475,0.31993 1.26475,0.31993c0.88092,0 4.93317,0 5.8141,0c0,0 2.5,0 2.5,-2.5c0,-2.5 -2.5,-2.5 -2.5,-2.5c-0.73242,0 -4.63616,0 -5.36858,0c0.14961,-0.3752 0.27729,-0.72057 0.36518,-1.01607c0.28237,-0.94934 0.54762,-2.55327 0.76274,-4.02646c2.70896,0 6.13335,0 8.46909,0c0,0 2.5,0 2.5,-2.5c0,-2.5 -2.5,-2.5 -2.5,-2.5c-2.45369,0 -6.49304,0 -8.94673,0c-0.30606,-0.23953 -0.71783,-0.42443 -1.2708,-0.50342c-2.47487,-0.35356 -2.82842,2.12132 -2.82842,2.12132c-0.61422,4.3076 -2.40489,7.92066 -3.16417,12.10984c-0.05178,0.28569 -0.02641,5.6783 -0.02376,6.00835c0.01336,1.66454 -0.97133,3.68322 0.05538,4.99346c0.95303,1.21621 3.01672,0.69558 4.55032,0.88407c4.48766,0.55155 9.7328,0.16289 14.15341,-0.56257l2.089,-2.99454c0,0 0,-2.5 -2.5,-2.5c-0.92497,0 -1.50771,0.34223 -1.87485,0.77345c-3.07247,0.36794 -6.09213,0.28367 -9.22478,0.28367zM335.80364,236.46832l0.08174,-0.19845c0.01563,0.00649 0.03126,0.01303 0.0469,0.01964l-0.00335,-0.12539l1.8603,-4.51699c-3.20936,-1.23343 -5.46423,-1.24411 -8.85679,-1.23592c-0.79881,0.00193 -1.60286,-0.07932 -2.39642,0.01217c-0.3399,0.03919 -0.78648,0.67165 -0.95576,0.37431c-0.1979,-0.34762 0.51353,-0.66134 0.56664,-1.0578c0.14038,-1.04774 0,-2.11421 0,-3.17132c0,-0.40768 0.00666,-0.81122 0.01894,-1.2113c0.31698,0.01371 0.53483,-0.02259 0.53483,-0.02259c1.7831,-0.30238 3.59455,-0.50087 5.4031,-0.49454h2.64277c0,0 2.5,0 2.5,-2.5c0,-2.5 -2.5,-2.5 -2.5,-2.5h-2.64277c-1.85534,0.00555 -3.7124,0.17977 -5.5487,0.45612c0.21703,-2.0277 0.46266,-4.04184 0.57973,-6.14435c0.41559,0.11715 0.74053,0.11715 0.74053,0.11715c2.33282,-0.00815 4.56596,0.30155 6.85905,0.45058c0.33043,0.58444 0.95308,1.13508 2.12637,1.13508c2.5,0 2.5,-2.5 2.5,-2.5l-2.5,-3.55711c-3.05698,0.00878 -5.93081,-0.51942 -8.98542,-0.52855c0,0 -0.86014,0 -1.57136,0.50452c-0.36514,-0.29628 -0.87844,-0.50452 -1.59996,-0.50452c-2.5,0 -2.5,2.5 -2.5,2.5c0,5.16703 -1.0571,9.62305 -1.0571,14.79951c0,1.27857 -0.14043,6.58185 0.56664,7.39907c0.9946,1.14953 2.8392,1.13334 4.32978,1.43142c2.80799,0.56152 5.27611,-0.12568 7.89419,0.31412c0.74065,0.75516 1.86612,0.75516 1.86612,0.75516zM251.56464,212.86024l-2.48212,-1.42843c-3.31002,-0.65546 -6.01011,-1.91923 -9.47571,-1.63421c-1.65876,0.13642 -3.70616,-0.38579 -4.93909,0.73223c-1.07011,0.97038 -0.61776,5.90991 -0.7274,7.42652c-0.28303,3.91505 -0.8612,4.06167 -0.52122,7.80145c0.06944,0.76381 0.59206,1.4774 0.52122,2.24108c-0.17525,1.88922 -1.1667,3.6193 -1.54194,5.47915c0,0 -0.49029,2.45145 1.96116,2.94174c2.45145,0.49029 2.94174,-1.96116 2.94174,-1.96116c0.41189,-2.08003 1.44027,-4.03707 1.62938,-6.14904c0.0919,-1.02632 -0.4426,-2.01827 -0.53589,-3.04446c-0.07134,-0.78469 -0.08075,-1.42753 -0.05219,-2.01064c0.77378,0 1.54756,0 2.32134,0l0.99618,0.79317c0,0 2.23607,1.11804 3.35411,-1.11803c1.11803,-2.23607 -1.11803,-3.3541 -1.11803,-3.3541l-3.23225,-1.32104c-0.57746,0 -1.15491,0 -1.73237,0c0.07808,-1.10211 0.19239,-2.22559 0.00394,-3.3141c-0.06488,-0.37474 -1.10423,-0.79589 -0.73223,-0.875c0.51615,-0.10977 0.88312,0.64497 1.40355,0.73223c2.8573,0.4791 5.58036,0.94902 8.49513,1.53711l0.6892,0.68579c0,0 2.08013,1.38675 3.46688,-0.69338c1.38675,-2.08013 -0.69338,-3.46688 -0.69338,-3.46688z"/><path d="M345.16633,217.90549c-0.05994,-0.89004 0.15163,-2.29396 0.15728,-3.43058c0.33947,0.25199 0.70433,0.46789 1.0878,0.63351c0.99415,0.42935 2.10168,0.53916 3.17291,0.69774c0.50592,0.07489 1.15074,-0.33921 1.53432,-0.00091c1.00932,0.89017 0.78502,2.57643 1.25806,3.83632c0.15851,0.42217 0.58893,0.89493 0.38473,1.29699c-0.1578,0.31069 -0.69727,-0.01216 -1.04537,0.00378c-1.27295,0.05829 -2.77278,-0.51211 -3.81659,0.21883c-0.97244,0.68096 -1.68334,1.26885 -2.18075,1.7951c-0.22816,-1.6537 -0.43615,-3.32476 -0.55239,-5.05078z"/><path d="M278.47733,214.58223c0.14519,-0.65757 -0.03561,-1.41893 0.31131,-1.9961c0.14391,-0.23943 0.56568,0.01109 0.83292,0.09242c2.42738,0.73872 4.9772,1.19126 7.07368,2.64667c0.57583,0.39975 2.24792,1.16418 1.58258,1.3849c-1.41239,0.46855 -3.0888,0.0702 -4.39502,0.78305c-0.80726,0.44055 -1.04356,1.65215 -1.89128,2.0087c-0.75813,0.31887 -1.65215,-0.3274 -2.46096,-0.17813c-0.59294,0.10943 -1.16966,0.28219 -1.7398,0.48061c0.09103,-1.71609 0.29482,-3.44788 0.68656,-5.22212z"/></g><text transform="translate(212.46539,149.05385) scale(0.5,0.5)" font-size="40" xml:space="preserve" fill="#ff0000" stroke="none" stroke-width="1" stroke-linecap="butt" font-family="Sans Serif" font-weight="normal" text-anchor="start"><tspan x="0" dy="0">      vous avez</tspan><tspan x="0" dy="46.150000000000006px">    débloqué la</tspan><tspan x="0" dy="46.150000000000006px">deuxième partie</tspan></text></g></g></svg>