<svg version="1.1" xmlns="http://www.w3.org/2000/svg" xmlns:xlink="http://www.w3.org/1999/xlink" width="1021.02102" height="701.2012" viewBox="0,0,1021.02102,701.2012"><g transform="translate(270.51051,170.6006)"><g stroke-miterlimit="10"><path d="M-270.51051,530.6006v-701.2012h1021.02102v701.2012z" fill-opacity="0.50196" fill="#ffffff" stroke="#000000" stroke-width="0" stroke-linecap="butt"/><path d="M95,309.61272v-215.11272h290v215.11272z" fill="#fcb1e3" stroke="#000000" stroke-width="5" stroke-linecap="butt"/><path d="M95,121.53211h290" fill="none" stroke="#000000" stroke-width="5" stroke-linecap="round"/><text transform="translate(99.60005,113.76336) scale(0.5,0.5)" font-size="40" xml:space="preserve" fill="#000000" stroke="none" stroke-width="1" stroke-linecap="butt" font-family="Sans Serif" font-weight="normal" text-anchor="start"><tspan x="0" dy="0">niveau réussi !</tspan></text><text transform="translate(125.08005,164.52693) scale(0.5,0.5)" font-size="40" xml:space="preserve" fill="#000000" stroke="none" stroke-width="1" stroke-linecap="butt" font-family="Sans Serif" font-weight="normal" text-anchor="start"><tspan x="0" dy="0">0  1  2  3  4  5  6  7  8  9  +</tspan></text><g fill="#000000" stroke="#000000" stroke-width="0" stroke-linecap="butt"><path d="M148.75,253.52693v-38.5h182.5v38.5zM175.52033,231.67328c0.12525,0.03734 2.70775,0.19553 3.09735,0.93658c1.33381,2.53701 0.3046,6.45677 -2.55231,7.25778c-1.55135,0.43496 -3.2215,-0.09071 -4.83267,-0.09071c-3.0565,0 -6.00337,0.16634 -9.00971,-0.45146c0,0 -2.45146,-0.49029 -2.94174,1.96116c-0.49029,2.45145 1.96116,2.94174 1.96116,2.94174c6.12014,1.19636 19.00694,2.70025 22.29999,-4.49474c0.48025,-1.0493 0.15717,-2.3032 0.1903,-3.45671c0.05097,-1.77509 0.1121,-4.81599 -0.88499,-6.33293c-1.9263,-2.93062 -3.20752,-2.25084 -5.90265,-3.06343c-3.22091,-0.97111 -6.51336,-1.19577 -9.82293,-0.99132c0.51532,-0.29915 0.99863,-0.82911 1.09371,-1.76801c2.42165,-1.32045 5.13659,-0.83173 8.00715,-1.39285c0,0 2.45145,-0.49029 1.96116,-2.94174c-0.49029,-2.45145 -2.94174,-1.96116 -2.94174,-1.96116c-4.2267,0.86858 -7.31023,0.29235 -11.00971,2.95146v-0.5c0,0 -2.5,0 -2.5,2.5c0,0.12711 0.00646,0.24775 0.01873,0.36227l-0.48471,0.22673c-0.242,1.62194 -0.80898,3.23391 -1.67775,4.62476c0,0 -1.02211,1.70352 0.27453,2.98456c-0.79577,2.22827 1.44072,3.12287 1.44072,3.12287c0.42969,0.16735 0.85565,0.35014 1.27379,0.55c0.5826,0.8639 1.6644,1.08026 1.6644,1.08026c0.11173,0.02184 0.22261,0.04246 0.33272,0.062c0.17643,0.12078 0.34976,0.24579 0.51956,0.37518l0.58833,0.01067l0.54968,0.10069l0.04939,-0.08983l1.50021,0.02722c0.70026,0.09243 1.39194,0.20726 2.09506,0.39529c0.22934,0.72722 0.8223,1.66732 2.35534,1.66732c2.5,0 2.5,-2.5 2.5,-2.5l-1.57153,-3.3212c-2.45084,-0.94005 -4.45278,-1.02833 -6.83505,-1.42597c-0.04217,-0.02499 -0.08441,-0.04986 -0.12673,-0.07459c3.15173,-0.30104 6.29835,-0.183 9.32093,0.71812zM218.46877,247.15889l-2.24578,-2.33342c-2.25646,-0.36698 -3.41046,-1.68499 -4.75813,-3.00645c2.20274,-0.09613 5.17091,-0.46432 5.35282,-0.60873c1.15281,-0.9152 1.13514,-2.73964 1.40286,-4.18701c0.81267,-4.39347 -2.41618,-9.3008 -6.69726,-10.61805c-1.20834,-0.37179 -2.52659,-0.10251 -3.79057,-0.12829c-1.47913,-0.03017 -5.94686,-0.08868 -6.76776,0.73223c-1.02062,1.02062 -0.57698,2.83277 -0.73224,4.26777c-0.32784,3.03013 0.60231,5.17782 1.04511,7.97277c0.31438,1.98439 -0.04511,4.0181 -0.04511,6.02723c0,0 0,2.5 2.5,2.5c2.5,0 2.5,-2.5 2.5,-2.5c0,-0.34022 0.00065,-1.00179 0.00044,-1.78761c2.41333,2.52755 4.4243,4.84846 7.93316,5.95105l-0.16966,-0.04541c0,0 1.11803,2.23606 3.3541,1.11803c2.23607,-1.11803 1.11803,-3.3541 1.11803,-3.3541zM321.50047,241.50916l0.05343,0.33929c-0.78409,-1.91111 -2.08812,-3.56509 -3.16118,-5.33022c-0.26391,-0.43413 -0.74987,-1.94164 -1.19674,-3.18989c0.94032,0.07533 1.8779,0.14173 2.65476,-0.31534c3.88919,-2.28825 3.18301,-5.11744 1.57802,-8.43078c-1.86593,-3.85202 -8.44132,-8.00159 -12.81408,-5.54136c-3.16384,1.78006 -3.72321,6.90222 -2.75367,10.02664c0.26662,0.85922 1.2317,1.36066 1.57328,2.19293c1.28244,3.12462 1.82045,8.22915 1.79842,11.5165c0,0 0,2.5 2.5,2.5c2.5,0 2.5,-2.5 2.5,-2.5c-0.00621,-1.15299 -0.06753,-2.44339 -0.18742,-3.78773c0.00912,0.01552 0.01825,0.031 0.0274,0.04644c0.92923,1.56682 2.18196,2.97067 2.83882,4.66977l1.05343,1.33929c0,0 1.76777,1.76776 3.53554,0c1.76776,-1.76776 0,-3.53554 0,-3.53554zM273.58896,225.49069c-0.32573,0.62764 -0.43318,1.43116 -0.97719,1.88293c-0.64937,0.53925 -1.70216,0.37751 -2.36861,0.89551c-0.8426,0.65491 -1.15755,1.8449 -2,2.5c-0.71844,0.55867 -1.84245,0.42859 -2.53118,1.02351c-1.00037,0.86413 -1.94449,1.93587 -2.35099,3.19373c-0.98494,3.0478 1.35938,8.07949 4.25367,9.52663c0.63158,0.31579 5.70334,0.28122 6.61803,0.26394c3.10958,-0.05875 5.11098,0.51208 7.13623,-2.70135c2.12628,-3.37373 0.83372,-10.57143 0.43394,-14.20023l-3.64169,-1.91962c0,0 -0.00268,-0.00107 -0.00788,-0.00304c-0.15132,-0.46292 -4.56434,-0.462 -4.56434,-0.462zM236.2327,241.27693h-1c-1.83334,0 -3.66667,-0.00388 -5.5,0c-0.82674,0.00175 -1.68743,-0.21233 -2.49009,-0.05282c0.16706,-0.9325 -0.02904,-2.12578 -0.01843,-2.24098c0.02178,-0.23622 0.04528,-0.47158 0.07017,-0.7062c0.96539,0 5.12381,0 5.93834,0c0,0 2.5,0 2.5,-2.5c0,-2.5 -2.5,-2.5 -2.5,-2.5c-0.6037,0 -4.7074,0 -5.3111,0c0.05919,-0.4985 0.11355,-0.99805 0.15971,-1.5h0.56014c0.85934,0.65647 2.00226,0.46598 2.00226,0.46598c0.91501,-0.15533 1.83002,-0.31065 2.74502,-0.46598h2.84398c1.38071,0 2.5,-1.11929 2.5,-2.5c0,-1.38071 -1.11929,-2.5 -2.5,-2.5h-2.5c-1.17851,-1.17851 -3.33334,0 -5,0h-1.40563c-0.36479,-0.29388 -0.87652,-0.5 -1.59437,-0.5c-2.5,0 -2.5,2.5 -2.5,2.5c0.00702,4.13506 -1.48534,8.40977 -1,12.5c0.19708,1.66084 -0.29709,3.78096 0.91503,4.93336c1.04644,0.99488 2.8875,0.03986 4.33131,0.05447c2.58437,0.02615 5.1692,0.01217 7.75366,0.01217h1c0,0 2.5,0 2.5,-2.5c0,-2.5 -2.5,-2.5 -2.5,-2.5zM297.43484,226.76172l1.34891,3.01787c-0.03229,1.35969 0.22729,4.83612 -0.89076,5.80456c-0.72289,0.62616 -1.84008,0.6141 -2.62207,1.16467c-0.92838,0.65364 -1.7005,1.51744 -2.42686,2.3901c-0.367,0.44092 -0.63245,2.13627 -0.70979,1.56783c-0.17127,-1.25886 -1.10071,-2.29047 -1.61931,-3.45025c-0.82486,-1.84468 -1.32694,-4.47194 -1.28226,-6.47957c0,0 0,-2.5 -2.5,-2.5c-2.5,0 -2.5,2.5 -2.5,2.5c0.06108,4.02557 1.27052,7.3594 3.32059,10.72481c0.65696,1.07846 0.65588,2.7658 1.77784,3.34536c4.46864,2.3083 5.0862,-0.01931 7.29021,-2.43216c1.35602,-1.48451 3.58685,-1.96827 4.95107,-3.44523c2.34281,-2.53642 2.15073,-7.06511 2.10924,-10.19544l-1.65108,-3.98213c0,0 -0.98479,-2.29787 -3.28266,-1.31306c-2.29787,0.9848 -1.31306,3.28266 -1.31306,3.28266zM260.23269,224.77693h-1c-5.06322,0 -9.46865,1 -14.5,1c0,0 -2.5,0 -2.5,2.5c0,2.5 2.5,2.5 2.5,2.5c2.32394,0 4.50929,-0.21067 6.68021,-0.43861c-0.18021,0.50561 -0.18021,0.93861 -0.18021,0.93861c0.04843,1.89441 -1.03914,3.64715 -1.44895,5.49733c-0.0632,0.28534 -0.05105,5.22574 -0.05105,6.00267l0.62829,2.29057c0,0 0.79057,2.3717 3.16228,1.58113c2.37171,-0.79057 1.58114,-3.16227 1.58114,-3.16227l-0.37171,-0.70943c0,-1.66586 -0.44227,-3.37806 -0.05106,-4.99733c0.52331,-2.16604 1.51317,-4.27463 1.55105,-6.50267c0,0 0.00001,-0.70527 -0.37459,-1.36661c1.1023,-0.08091 2.22203,-0.13339 3.37459,-0.13339h1c0,0 2.5,0 2.5,-2.5c0,-2.5 -2.5,-2.5 -2.5,-2.5z"/><path d="M165.8333,225.82596l-0.03733,0.16735c-0.0028,0.00027 -0.00559,0.00053 -0.0084,0.0008c0.01549,-0.05599 0.03073,-0.11204 0.04573,-0.16815z"/><path d="M315.73269,228.27693h-3c-0.4401,0 -0.85364,0.11372 -1.21283,0.31338c-0.3482,-0.34408 -0.75044,-0.65704 -0.91546,-1.10395c-0.07992,-0.21644 -0.08563,-3.90355 0.24633,-3.97337c1.42582,-0.29987 3.64128,0.51926 4.64202,1.55909c1.70997,1.77674 3.8399,3.70971 0.23994,3.20484z"/><path d="M278.16253,230.6785c-1.1091,2.83429 0.39587,5.98955 -0.56606,8.79978c-0.31082,0.90804 -1.9043,0.32228 -2.86377,0.29865c-2.76822,-0.06817 -3.678,0.9338 -5,-1c-0.55228,-0.80786 -1.5451,-1.10149 -1.12829,-2.20943c0.51855,-1.37838 2.08619,-0.98021 3.11783,-1.78277c0.84232,-0.65527 1.15782,-1.84455 2,-2.5c0.7507,-0.58425 1.92679,-0.46539 2.63138,-1.10449c0.19408,-0.17604 0.3664,-0.37059 0.52386,-0.57779z"/><path d="M205.71938,236.39654c-0.25163,-0.86471 -0.49556,-1.7284 -0.48668,-2.61961c0.00831,-0.83329 0.18412,-1.68726 0,-2.5c0.81274,0.18412 1.66698,0.02269 2.5,0c2.06589,-0.05628 3.57404,0.27758 5.01571,2.02071c0.92695,1.12079 0.31515,1.96159 0.49646,3.23294c0.0427,0.29942 0.69673,0.74147 0.40286,0.81299c-0.49368,0.12016 -0.91268,-0.49053 -1.41503,-0.56664c-0.66828,-0.10125 -1.35558,0.12086 -2.02723,0.04511c-1.4009,-0.15799 -3.07676,-1.64132 -4.16353,-0.74331c-0.119,0.09833 -0.22604,0.20459 -0.32256,0.31781z"/></g><text transform="translate(109.04505,199.39914) scale(0.53887,0.53887)" font-size="40" xml:space="preserve" fill="#ff0000" stroke="none" stroke-width="1" stroke-linecap="butt" font-family="Sans Serif" font-weight="normal" text-anchor="start"><tspan x="0" dy="0">c'est supper ! félicitation !</tspan></text><g fill="#ff0000" stroke="#000000" stroke-width="0" stroke-linecap="butt"><path d="M121.60552,300.676v-38.5h236.78896v38.5zM144.28174,272.27415l-1.27802,3.14621c0,2.89779 -0.04302,5.73885 -0.16471,8.58276c-0.41989,-1.56459 -0.92831,-3.10399 -1.66515,-4.57757c-0.7445,-1.48888 -1.59722,-2.91904 -2.46445,-4.34154l-0.35943,-2.51602c-0.15585,-1.23096 -1.2068,-2.18284 -2.48007,-2.18284c-1.22888,0 -2.25067,0.88666 -2.46053,2.05513l-0.47567,2.37835c-1.89523,5.88105 -0.96359,12.08314 -2.9848,18.06471c0,0 -0.79057,2.3717 1.58114,3.16227c2.37171,0.79057 3.16228,-1.58114 3.16228,-1.58114c1.08159,-3.2833 1.83287,-6.72616 2.14429,-10.17804c0.06995,-0.77537 0.09881,-1.46096 0.11567,-2.09679c1.88072,4.14495 2.24441,8.81418 4.03194,13.00497l0.63586,0.27718l-0.15157,0.2021l2.00797,1.50597c0.42123,0.32311 0.9483,0.51515 1.52021,0.51515c1.38071,0 2.5,-1.11929 2.5,-2.5v-2.53521h-0.30859c0.94063,-5.66611 0.81563,-11.38506 0.81563,-17.23946l0.75016,-0.91013c0,0 1.11803,-2.23607 -1.11804,-3.35411c-2.23607,-1.11804 -3.3541,1.11803 -3.3541,1.11803zM202.29251,289.14572h-1.01408c-2.0969,0 -4.20209,-0.17766 -6.29072,0.00852c-0.9628,0.08582 -1.94447,0.16475 -2.86703,0.45007c0.28288,-0.89566 -0.00424,-2.24317 -0.00424,-2.52197c0,-1.70188 0,-3.40376 0,-5.10564c1.78807,0 4.0559,0 5.61268,0c0,0 2.5,0 2.5,-2.5c0,-2.5 -2.5,-2.5 -2.5,-2.5c-1.53286,0 -4.07982,0 -5.61268,0c0,-0.93691 0,-1.87383 0,-2.81074c2.97377,0.84176 5.98753,1.20744 9.16199,1.21918h2.02817c0,0 2.5,0 2.5,-2.5c0,-2.5 -2.5,-2.5 -2.5,-2.5h-2.02817c-3.54875,0.01544 -6.92905,-0.50784 -10.22647,-1.84936c0,0 -1.82402,-0.72961 -2.88499,0.72163c-1.05053,0.70405 -1.05053,2.1066 -1.05053,2.1066c0,5.23944 0,10.47888 0,15.71832c0,1.49383 -0.14176,6 0.73224,6.83819c1.09869,1.05368 2.98751,0.68006 4.50918,0.72372c2.80689,0.08054 6.04678,-0.49853 8.92057,-0.49853h1.01408c0,0 2.5,0 2.5,-2.5c0,-2.5 -2.5,-2.5 -2.5,-2.5zM288.08668,272.67724l-2.65591,-1.22947c-4.29701,-0.84022 -13.73259,-2.60913 -15.09738,3.41956c-1.09558,4.83946 1.7323,4.88489 4.67304,6.73599c0.8191,0.5156 1.46264,1.32783 2.359,1.69292c0.95212,0.38781 2.02986,0.32819 3.04226,0.50704c0.28966,0.05117 0.99969,0.48375 0.70859,0.52593c-4.32095,0.62604 -8.88518,1.5763 -13.3192,2.31531c0,0 -2.46598,0.411 -2.05499,2.87698c0.411,2.46598 2.87698,2.05499 2.87698,2.05499c4.18227,-0.69704 8.28058,-1.33811 12.34706,-2.57158c1.25334,-0.38017 2.99767,-0.12011 3.74222,-1.19763c2.92055,-4.22657 1.25652,-6.69761 -2.33367,-8.60084c-0.90833,-0.48153 -2.08499,-0.13211 -3.04226,-0.50704c-0.673,-0.2636 -1.06564,-0.99811 -1.69734,-1.34933c-0.73976,-0.4113 -1.63371,-0.49418 -2.36982,-0.91199c-0.08837,-0.05015 -0.11998,-0.79652 0.14535,-0.80983c0.47991,-0.02408 0.9375,0.23554 1.41718,0.26393c1.01231,0.05991 2.02817,0.00231 3.04226,0c1.53434,-0.0035 3.07718,0.14976 4.58014,0.45849l1.40043,0.7987c0,0 2.23607,1.11803 3.3541,-1.11803c1.11803,-2.23607 -1.11803,-3.3541 -1.11803,-3.3541zM214.24751,292.06715l0.78,-2.08746c0.86963,-0.87904 1.6386,-1.86612 2.28919,-2.93257c1.41871,0 3.29374,0 4.82447,0c0.02679,0.10817 0.05654,0.21447 0.08951,0.31874c0.1466,0.46358 2.92342,4.11172 3.41396,4.76577l0.93396,1.40788c0,0 1.38675,2.08013 3.46688,0.69338c2.08013,-1.38675 0.69338,-3.46688 0.69338,-3.46688l-1.09421,-1.63438c-0.85636,-1.14181 -2.29513,-1.96991 -2.67055,-3.34691c-0.68759,-2.522 0.36478,-6.0825 -0.50704,-8.61973c-0.17002,-0.49481 -2.90558,-4.08793 -3.41396,-4.76577c0,0 -0.99741,-1.32988 -2.45001,-1.00744c-0.27495,-0.19957 -0.63013,-0.3595 -1.08787,-0.45105c-2.45145,-0.49029 -2.94175,1.96116 -2.94175,1.96116c-0.25961,1.5407 -1.49743,2.76719 -1.94843,4.2631c-0.32339,1.07268 0.11498,2.25736 -0.08318,3.36006c-0.47762,2.65778 -1.82994,4.86449 -3.68855,6.70218l-1.24817,2.98296c0,0 -0.92848,2.32119 1.39271,3.24966c2.32119,0.92847 3.24966,-1.39271 3.24966,-1.39271zM245.65155,271.61065l0.28185,-0.75368c0,2.15505 0.48477,5.02835 0.04511,7.13287c-0.36237,1.73456 -1.21539,3.3478 -1.52528,5.09249c-0.18829,1.06006 -0.16218,3.20286 -1.19006,4.12486c-0.83934,0.75287 -2.59296,0.37038 -3.4495,0.4174c-0.64644,0.03548 -1.32334,0.50494 -1.92422,0.26393c-1.77158,-0.71058 -1.50486,-4.0987 -1.69257,-5.26299c-0.48745,-3.02341 -0.9818,-5.08036 -0.9818,-8.21927c0,0 0,-2.5 -2.5,-2.5c-2.5,0 -2.5,2.5 -2.5,2.5c0,3.32029 0.5003,5.83525 1.04637,9.02018c0.19342,1.12811 -0.25514,2.343 0.09601,3.43237c0.34037,1.05592 1.21006,1.86317 1.89284,2.7376c0.7514,0.96232 1.29448,2.25275 2.40309,2.76424c1.26174,0.58213 2.77139,0.22153 4.16029,0.26393c2.41708,0.07379 4.64598,0.16237 6.69135,-1.61077c2.45256,-2.12614 2.3438,-4.21796 2.86628,-7.03008c0.32097,-1.72755 1.18353,-3.32317 1.51698,-5.04836c0.47369,-2.45074 0.04511,-5.57249 0.04511,-8.07841l-1.74632,-2.78185c0,0 -1.76777,-1.76777 -3.53553,0c-1.76777,1.76777 0,3.53553 0,3.53553zM334.66588,268.8288l0.03228,2.13476c-0.51889,1.50989 -0.2858,3.31458 -1.16843,4.645c-0.4741,0.71463 -1.64853,0.79725 -2.04939,1.5554c-0.61975,1.17216 -0.55963,2.59212 -0.82985,3.89021c-0.00425,0.02041 -0.4422,2.20928 -0.73893,3.69273c-0.3159,-0.44338 -0.63209,-0.82428 -0.81192,-1.08771c-2.25321,-3.30059 -2.62386,-8.63206 -2.61688,-12.80222c0,0 0,-2.5 -2.5,-2.5c-2.5,0 -2.5,2.5 -2.5,2.5c0.00553,3.65704 0.86608,6.65792 1.56624,10.10658c0.1893,0.93239 -0.2284,1.95407 0.08318,2.85301c0.62792,1.81156 2.17049,3.16492 3.14268,4.81746c0.85635,1.45564 0.89907,3.98422 2.53995,4.3839c1.78938,0.43585 3.61111,-1.2479 4.88861,-2.57448c2.27861,-2.36616 0.49593,-8.0724 2.04939,-10.68217c0.42585,-0.71542 1.58002,-0.77208 2.00696,-1.48686c1.15791,-1.93861 1.17682,-4.36212 1.87383,-6.50994l0.03228,-2.93567c0,0 0,-2.5 -2.5,-2.5c-2.5,0 -2.5,2.5 -2.5,2.5zM178.53073,270.44597l-0.46734,2.85062c-0.94135,2.81566 -1.6956,5.67039 -2.50924,8.52339c-0.39644,1.39011 -0.78051,2.7872 -1.05288,4.20684c-0.05188,0.27043 -0.05014,0.54649 -0.04434,0.82324c-0.01381,-0.09565 -0.04351,-0.18756 -0.09565,-0.27436c-0.43516,-0.72442 -1.50471,-0.85769 -2.02817,-1.52112c-1.07179,-1.35839 -1.07165,-3.29127 -1.66501,-4.91665c-1.0035,-2.7489 -1.48256,-5.44574 -2.56148,-8.18126c0,0 -0.92848,-2.32119 -3.24967,-1.39272c-2.32119,0.92847 -1.39272,3.24967 -1.39272,3.24967c1.80413,4.43451 2.01613,10.28729 4.90028,14.28239c0.49464,0.68518 1.48113,0.87701 2.02817,1.52113c0.85452,1.00616 0.80021,3.18637 2.10992,3.3513c2.10455,0.26502 4.3012,-0.96676 5.91748,-2.34044c0.9228,-0.78429 0.65343,-2.33245 0.95937,-3.50423c1.10326,-4.22566 2.16037,-8.48155 3.53648,-12.62191l0.54675,-3.23388c0,0 0.41099,-2.46599 -2.05499,-2.87698c-2.46598,-0.411 -2.87698,2.05499 -2.87698,2.05499zM302.29889,283.39841c-0.2235,0.83144 -0.32707,3.36877 -1.29861,4.01495c-0.26278,0.17478 -4.60743,-0.08842 -4.75754,-0.54869c-0.19011,-0.5829 0.28359,-1.19876 0.3245,-1.81051c0.21248,-3.17752 0,-6.44823 0,-9.63381c0,0 0,-2.5 -2.5,-2.5c-2.5,0 -2.5,2.5 -2.5,2.5c0,3.1999 -0.14177,6.43748 0,9.63381c0.06331,1.42736 -0.43399,3.06319 0.3245,4.274c1.94697,3.10804 4.80899,2.87071 7.75297,2.78938c1.24173,-0.0343 2.68152,0.3936 3.71486,-0.29581c4.26477,-2.84535 3.55397,-8.36066 5.2085,-12.45764c0.80406,-1.99102 1.7832,-3.95446 2.16235,-6.06796l-4.77768,-2.27566c0,0 -2.37171,0.79057 -1.58114,3.16228c0.18146,0.54438 0.44622,0.92216 0.74648,1.18113c-0.82708,2.67506 -2.07325,5.2595 -2.81919,8.03453zM313.41863,277.46528l-0.54342,2.77916c-0.01379,4.30141 -0.64547,7.25976 -1.48475,11.41804c0,0 -0.49029,2.45145 1.96116,2.94174c2.45145,0.49029 2.94174,-1.96116 2.94174,-1.96116c0.83786,-4.23306 1.57361,-7.53543 1.55751,-11.90593l0.47066,-2.29127c0,0 0.49029,-2.45145 -1.96116,-2.94174c-2.45145,-0.49029 -2.94174,1.96116 -2.94174,1.96116zM152.63753,293.67389c0,0 0,2.5 2.5,2.5c2.5,0 2.5,-2.5 2.5,-2.5c0,-3.4339 -1.22892,-9.60866 1.02113,-12.19016l-2.50704,-4c0,0 -2.5,0 -2.5,2.5c0,0.09719 0.00378,0.1906 0.01104,0.28038c-1.79949,4.06801 -1.02513,8.85772 -1.02513,13.40977zM350.55996,288.54425l0.21231,0.04246l0.49692,-2.48459c0.03842,-0.17418 0.05867,-0.35518 0.05867,-0.54091c0,-1.36247 -1.0899,-2.47037 -2.4454,-2.49942c-0.71207,-0.50763 -1.57573,-0.50763 -1.57573,-0.50763l-0.42511,0.25243c-0.33094,-0.16169 -0.70289,-0.25243 -1.09602,-0.25243c-1.38071,0 -2.5,1.11929 -2.5,2.5v3.04226c0,0.26688 0.04182,0.524 0.11926,0.76515c-0.25524,0.71912 -0.35078,1.83234 0.88074,2.75598c0.09412,0.07059 0.18712,0.13342 0.27892,0.18908c0.23787,0.362 0.55511,0.6213 1.00366,0.71069c4.00527,0.79823 4.97236,-1.44655 4.99177,-3.97307zM316.37713,271.83584c1.38071,0 2.5,-1.11929 2.5,-2.5c0,-1.38071 -1.11929,-2.5 -2.5,-2.5c-1.38071,0 -2.5,1.11929 -2.5,2.5c0,1.38071 1.11929,2.5 2.5,2.5zM157.67275,271.3288c1.38071,0 2.5,-1.11929 2.5,-2.5c0,-1.38071 -1.11929,-2.5 -2.5,-2.5c-1.38071,0 -2.5,1.11929 -2.5,2.5c0,1.38071 1.11929,2.5 2.5,2.5z"/><path d="M219.45164,281.47059c0.16431,-0.8936 -0.34279,-1.85376 -0.08319,-2.72446c0.1976,-0.66273 0.95661,-1.02141 1.32665,-1.60193c0.44666,0.47853 0.83504,0.98751 1.02853,1.60193c0.30367,0.96428 0.32652,2.11181 0.2891,3.30099c-0.89269,0 -1.78537,0 -2.67806,0c0.04246,-0.1913 0.08146,-0.38351 0.11696,-0.57653z"/><path d="M174.44656,287.59302c-0.0234,0.23933 -0.14695,0.94144 -0.16704,0.70181c-0.03233,-0.38564 0.15058,-0.80949 0.18238,-1.19547c0.00225,0.16518 0.00065,0.33008 -0.01534,0.49367z"/></g></g></g></svg>