<svg version="1.1" xmlns="http://www.w3.org/2000/svg" xmlns:xlink="http://www.w3.org/1999/xlink" width="92.346" height="93.04359" viewBox="0,0,92.346,93.04359"><g transform="translate(-191.65345,-130.95781)"><g stroke="none" stroke-miterlimit="10"><path d="M280.7614,224.0014c-0.8285,0 -1.657,-0.3166 -2.2902,-0.9472l-80.8459,-80.8485c-1.2638,-1.2638 -1.2638,-3.3165 0,-4.5804c1.2638,-1.2638 3.3166,-1.2638 4.5804,0l80.8459,80.8459c1.2638,1.2638 1.2638,3.3165 0,4.5804c-0.6333,0.6306 -1.4618,0.9498 -2.2903,0.9498z" fill="#d99e82"/><path d="M231.6301,153.8151c0,9.8389 -7.9761,17.815 -17.815,17.815c-9.839,0 -17.8151,-7.9761 -17.8151,-17.815c0,-9.839 7.9761,-17.8151 17.8151,-17.8151c9.8389,0 17.815,7.9761 17.815,17.8151z" fill="#fcb1e3"/><path d="M229.1607,190.5936c-9.5757,-2.2611 -15.5052,-11.8567 -13.2441,-21.4324c2.2611,-9.5756 11.8567,-15.5052 21.4323,-13.2441c9.5757,2.2611 15.5053,11.8567 13.2441,21.4324c-2.2611,9.5756 -11.8567,15.5052 -21.4323,13.2441z" fill="#ffd983"/><path d="M270.5029,192.6852c0,9.839 -7.9787,17.8177 -17.8177,17.8177c-9.8389,0 -17.815,-7.9788 -17.815,-17.8177c0,-9.8389 7.9761,-17.815 17.815,-17.815c9.839,0 17.8177,7.9788 17.8177,17.815z" fill="#a6d388"/><path d="M280.7614,224.0014c-0.8285,0 -1.657,-0.3166 -2.2902,-0.9472l-19.8415,-19.8414c-1.2664,-1.2638 -1.2664,-3.3166 0,-4.5804c1.2665,-1.2638 3.314,-1.2638 4.5804,0l19.8415,19.8414c1.2638,1.2638 1.2638,3.3166 0,4.5804c-0.6333,0.628 -1.4618,0.9472 -2.2903,0.9472z" fill="#d99e82"/><text transform="translate(200.98082,156.89777) rotate(-43.71345) scale(0.30984,0.30984)" font-size="40" xml:space="preserve" fill="#000000" font-family="Sans Serif" font-weight="normal" text-anchor="start"><tspan x="0" dy="0">x   x</tspan></text></g></g></svg>