<svg version="1.1" xmlns="http://www.w3.org/2000/svg" xmlns:xlink="http://www.w3.org/1999/xlink" width="480" height="371.52661" viewBox="0,0,480,371.52661"><g stroke="none" stroke-miterlimit="10"><path d="M0,360v-360h480v360zM253.46539,288.05385c-3.15578,-113.58405 -134.60868,-122.57755 -132,-2c2.60868,120.57755 134.904,106.52201 132,2z" fill-opacity="0.90196" fill="#000000" stroke-width="0"/><text transform="translate(27.06009,123.08125) scale(0.5,0.5)" font-size="40" xml:space="preserve" fill="#ffffff" stroke-width="1" font-family="Sans Serif" font-weight="normal" text-anchor="start"><tspan x="0" dy="0">pour ce niveau, prennez plutôt le chat car il est</tspan><tspan x="0" dy="48px">                   plus robuste au produit chimique</tspan></text><path d="M258.23316,223.63567c1.76777,1.76777 0,3.53553 0,3.53553l-2.76777,1.73223c-0.6811,-0.06343 -1.41893,-0.46975 -2.04329,-0.1903c-0.86055,0.38516 -1.11512,1.67463 -2,2c-1.2393,0.4557 -2.63677,0.15419 -3.95671,0.1903c-3.3281,0.09104 -6.67046,0 -10,0c0,0 -2.5,0 -2.5,-2.5c0,-0.01417 0.00008,-0.02825 0.00024,-0.04226l-0.73247,0.81002c0,0 -1.58883,1.58883 -3.26021,0.24768l-0.73979,0.75232c0,0 -1.76777,1.76777 -3.53553,0c-1.76777,-1.76777 0,-3.53553 0,-3.53553l3.30599,-3.26034c0.68145,-0.34336 1.34465,-0.70871 1.99281,-1.09254c-0.16325,-2.95018 -0.12341,-5.94576 -0.03104,-8.87936c0.03199,-1.01591 0.53359,-2.08661 0.1903,-3.04329c-0.31843,-0.88741 -1.71686,-1.10071 -2,-2c-0.49656,-1.57713 -0.12687,-3.30447 -0.1903,-4.95671c0,0 0,-2.5 2.5,-2.5c2.5,0 2.5,2.5 2.5,2.5c-0.06343,1.01443 -0.53359,2.08661 -0.1903,3.04329c0.31843,0.88741 1.71686,1.10071 2,2c0.49656,1.57713 0.15077,3.30373 0.1903,4.95671c0.04316,1.80468 0.05319,3.6122 0.03509,5.41975c2.8542,-2.2164 5.56059,-4.64344 8.48246,-6.88586c5.24805,-4.02638 10.44206,-8.89809 16.09253,-12.32774c4.14745,-2.51737 9.45794,-4.72117 13.9645,-6.52856c0.7728,-0.30994 1.73828,-0.16954 2.40793,-0.66435c1.61979,-1.19687 1.63395,-4.83448 2.26014,-6.08766c0.75905,-1.51906 2.17022,-2.62908 3.0429,-4.08584c1.36931,-2.28579 0.36134,-2.52451 0.73275,-5.14172c0.1973,-1.39026 0.82787,-2.6978 1.00625,-4.09061c0.65109,-5.08384 -0.74204,-10.8132 1.23937,-15.72543c0.45155,-1.11945 1.64553,-1.76649 2.4683,-2.64973c0,0 1.76777,-1.76777 3.53553,0c1.76777,1.76777 0,3.53553 0,3.53553c-3.79695,3.34719 -1.70833,10.88643 -2.28915,15.51584c-0.1718,1.36933 -0.80284,2.65203 -0.99693,4.01838c-0.32694,2.30169 -0.14899,4.8201 -1.26725,6.85828c-0.78656,1.43361 -2.22543,2.45178 -2.9571,3.91416c-0.6048,1.20879 -0.39346,2.71494 -0.97106,3.93695c-0.69008,1.45999 -1.52922,2.94039 -2.7688,3.97538c-0.98058,0.81874 -2.41622,0.83637 -3.59207,1.33565c-4.28617,1.81994 -9.2427,3.74331 -13.22099,6.158c-5.49258,3.33382 -10.54097,8.10584 -15.64335,12.02045c-3.98457,3.056 -7.58189,6.49596 -11.69652,9.24775c-0.0121,0.28355 -0.02475,0.56702 -0.03793,0.85039c0.38291,-0.09901 0.67338,-0.09901 0.67338,-0.09901c3.32613,0 6.67662,-0.1254 10,0c0.68356,0.02579 1.41893,0.46975 2.04329,0.1903c0.86055,-0.38516 1.11512,-1.67463 2,-2c1.2393,-0.4557 2.63781,-0.12687 3.95671,-0.1903l-0.76777,-0.26777c0,0 1.76777,-1.76777 3.53553,0z" fill="#ffffff" stroke-width="0.5"/></g></svg>