<svg version="1.1" xmlns="http://www.w3.org/2000/svg" xmlns:xlink="http://www.w3.org/1999/xlink" width="105.70033" height="384.80423" viewBox="0,0,105.70033,384.80423"><g transform="translate(-187.42408,-3.06747)"><g stroke="#ff0000" stroke-miterlimit="10"><g><path d="M249.08025,68.15233c0,0 -0.68164,6.19629 1.8377,10.07949c2.50392,3.8594 10.91154,8.2555 16.09839,10.00012c5.64832,1.89984 24.59551,6.29976 24.97914,16.78232c0.4509,12.32065 -0.15005,94.81955 -0.15005,94.81955c0,0 1.0137,6.78853 1.02898,14.40039c0.00214,1.06777 -3.08225,10.80336 -5.90704,11.41163c-0.3418,0.00074 -2.56831,-3.36237 -2.56831,-3.36237c0,0 3.65159,-5.02328 3.11356,-7.51331c-0.05888,-0.27247 0.21166,-3.68502 0.35461,-6.1736c0.05325,-0.9269 -0.91097,-5.25814 -0.91097,-5.25814c0,0 -3.73738,0.21481 -3.9217,1.90368c-0.35544,3.25694 1.11292,9.86784 -3.1658,9.91833c-4.38074,0.05169 -2.66506,-15.32571 -2.66506,-15.32571c0,0 -1.56965,-85.99984 -2.74998,-85.99977c-1.05573,0.00006 -3.5,86.00018 -3.5,86.00018c0,0 1.03374,14.14399 1.05033,21.0979c0.01622,6.79996 -0.95188,20.17404 -0.95188,20.17404c0,0 1.42291,37.43389 2.31757,62.86436c0.37179,10.56817 -5.06236,70.23129 -5.06236,70.23129l1.81387,8.86136c0,0 0.08461,4.32962 -1.65899,4.3937c-1.74702,0.0642 -1.75878,-4.40332 -1.75878,-4.40332c0,0 -0.31479,4.45967 -1.56413,4.49143c-1.74928,0.04448 -1.85708,-4.50107 -1.85708,-4.50107c0,0 0.01752,4.29467 -2.05393,4.29402c-1.74653,-0.00055 -1.8557,-4.30503 -1.8557,-4.30503c0,0 0.15172,4.5619 -1.95506,4.58792c-2.41384,0.02981 -1.95486,-4.59856 -1.95486,-4.59856c0,0 -0.16513,4.38934 -2.63928,4.38843c-2.55768,-0.00095 -2.34138,-4.40461 -2.34138,-4.40461l1.78208,-9.03469c0,0 -3.56553,-59.35356 -3.6347,-70.39723c-0.16261,-25.96306 -1.22789,-62.46526 -8.55506,-62.46517c-7.32718,0.00009 -6.19054,36.93773 -8.27258,62.79021c-0.37002,4.59449 -4.47938,69.73861 -4.47938,69.73861l1.66243,9.15892c0,0 0.44018,4.65023 -2.16055,4.64493c-2.60073,-0.0053 -3.03078,-4.72808 -3.03078,-4.72808c0,0 -0.22387,4.66821 -2.05475,4.66515c-1.68332,-0.00281 -2.14625,-4.71418 -2.14625,-4.71418c0,0 0.22267,4.75522 -1.46689,4.84934c-1.64513,0.09165 -2.2478,-4.90594 -2.2478,-4.90594c0,0 -0.33238,5.08895 -1.66381,5.03856c-1.58157,-0.05985 -2.43325,-5.506 -2.43325,-5.506c0,0 -0.24133,5.33481 -1.45306,5.31184c-1.40726,-0.02668 -1.33148,-4.93867 -1.33148,-4.93867l1.95933,-9.03316c0,0 -3.51762,-66.91497 -3.48113,-70.17043c0.32716,-29.18584 2,-62.19847 2,-62.19847c0,0 -0.80654,-13.04944 -0.80992,-19.77965c-0.00351,-7.01582 0.78923,-21.49404 0.78923,-21.49404c0,0 -2.07264,-83.74993 -3.25002,-83.7499c-0.9308,0.00002 -2.49999,83.75006 -2.49999,83.75006c0,0 0.80669,15.1294 -2.71279,15.11082c-3.549,-0.01874 -2.99452,-6.71301 -3.32131,-9.44191c-0.22862,-1.90917 -3.88817,-1.9169 -3.88817,-1.9169c0,0 -0.73045,2.41829 -0.92387,4.93899c-0.16908,2.20354 0.21372,4.48533 -0.00651,5.29827c-0.81042,2.99152 3.64222,8.42681 3.64222,8.42681c0,0 -1.45128,3.47184 -2.47994,3.29807c-3.18354,-0.53777 -6.37575,-9.51239 -6.33897,-11.91397c0.11154,-7.28275 1.27665,-13.79932 1.27665,-13.79932c0,0 0.61506,-89.22777 0.6673,-95.09462c0.08308,-9.32911 17.86693,-14.06573 23.80261,-16.1506c3.91126,-1.37382 12.95102,-6.50345 15.45493,-10.36284c2.51936,-3.8832 1.8377,-10.07949 1.8377,-10.07949c0,0 3.72349,2.41901 8.86162,2.43885c5.92952,0.0229 9.50502,-2.43885 9.50502,-2.43885z" fill="#ffedc7" stroke-width="0.5" stroke-linecap="round"/><g stroke-width="0.25"><path d="M258.93564,56.82542c-2.19099,7.33173 -10.37247,13.56018 -18.942,13.6117c-8.68855,0.05224 -17.71127,-6.81873 -20.08825,-13.73656c-1.67336,-5.46976 -1.55754,-21.58102 -1.55754,-21.58102c0,-14.52149 9.43178,-26.29349 21.06648,-26.29349c11.63469,0 21.06648,11.772 21.06648,26.29349c0,0 0.26781,15.63915 -1.54516,21.70588z" fill="#ffedc7" stroke-linecap="butt"/><g stroke-linecap="butt"><path d="M234.84137,39.47787c0,1.72794 -3.09959,3.12872 -6.92312,3.12872c-3.82353,0 -6.92312,-1.40078 -6.92312,-3.12872c0,-1.72794 3.09959,-3.12872 6.92312,-3.12872c3.82353,0 6.92312,1.40078 6.92312,3.12872z" fill="#ffffff"/><g><path d="M225.51046,39.47787c0,-1.3298 1.07801,-2.4078 2.4078,-2.4078c1.3298,0 2.4078,1.07801 2.4078,2.4078c0,1.3298 -1.07801,2.4078 -2.4078,2.4078c-1.3298,0 -2.4078,-1.07801 -2.4078,-2.4078z" fill="#fcb1e3"/><path d="M227.09397,39.47787c0,-0.45523 0.36905,-0.82428 0.82428,-0.82428c0.45523,0 0.82428,0.36905 0.82428,0.82428c0,0.45523 -0.36905,0.82428 -0.82428,0.82428c-0.45523,0 -0.82428,-0.36905 -0.82428,-0.82428z" fill="#ff0000"/></g></g><g stroke-linecap="butt"><path d="M257.84911,39.47787c0,1.72794 -3.09958,3.12872 -6.92312,3.12872c-3.82353,0 -6.92312,-1.40078 -6.92312,-3.12872c0,-1.72794 3.09959,-3.12872 6.92312,-3.12872c3.82353,0 6.92312,1.40078 6.92312,3.12872z" fill="#ffffff"/><g><path d="M248.51818,39.47787c0,-1.3298 1.07801,-2.4078 2.4078,-2.4078c1.3298,0 2.4078,1.07801 2.4078,2.4078c0,1.3298 -1.07801,2.4078 -2.4078,2.4078c-1.3298,0 -2.4078,-1.07801 -2.4078,-2.4078z" fill="#fcb1e3"/><path d="M250.10169,39.47787c0,-0.45523 0.36905,-0.82428 0.82428,-0.82428c0.45523,0 0.82428,0.36905 0.82428,0.82428c0,0.45523 -0.36905,0.82428 -0.82428,0.82428c-0.45523,0 -0.82428,-0.36905 -0.82428,-0.82428z" fill="#ff0000"/></g></g><path d="M238.23956,33.74439c0,0 0.29589,7.41703 -0.41395,10.61132c-0.70003,3.15017 -3.81609,8.42391 -3.81609,8.42391c0,0 2.71672,-4.6146 4.1339,-4.6146c1.36915,0 4.23005,4.6146 4.23005,4.6146h-8.36395" fill="none" stroke-linecap="round"/><path d="M254.29451,54.49455c0,0 -3.48301,9.83062 -14.42062,9.90217c-12.0084,0.07855 -14.32449,-9.51761 -14.32449,-9.51761" fill="none" stroke-linecap="round"/></g></g><g fill="none" stroke-width="0.25" stroke-linecap="butt"><g><path d="M213.36906,69.08455v-35.39341c0,-16.72981 11.66361,-30.29199 26.05138,-30.29199c14.38779,0 26.05138,13.5622 26.05138,30.29199v34.09441"/><path d="M214.01812,68.54242v-36.36075c0,-15.89616 11.373,-28.78253 25.40231,-28.78253c14.02931,0 25.40231,12.88638 25.40231,28.78253v36.71839"/><path d="M214.64749,68.81346v-36.72667c0,-15.89616 11.09122,-28.78253 24.77294,-28.78253c13.68171,0 24.77294,12.88638 24.77294,28.78253v36.16952"/><path d="M214.64749,69.13196v-35.39341c0,-16.72981 11.09122,-30.29199 24.77294,-30.29199c13.68171,0 24.77294,13.5622 24.77294,30.29199v34.09441"/><path d="M215.26472,68.58983v-36.36075c0,-15.89616 10.81488,-28.78253 24.15572,-28.78253c13.34084,0 24.15572,12.88638 24.15572,28.78253v36.71839"/><path d="M215.8632,68.86092v-36.72667c0,-15.89616 10.54693,-28.78253 23.55723,-28.78253c13.0103,0 23.55723,12.88638 23.55723,28.78253v36.16952"/><path d="M216.39717,68.97271v-35.39341c0,-16.72981 10.30787,-30.29199 23.02326,-30.29199c12.71539,0 23.02326,13.56218 23.02326,30.29199v34.09441"/><path d="M216.97081,68.43058v-36.36075c0,-15.89616 10.05104,-28.78253 22.44964,-28.78253c12.39858,0 22.44964,12.88638 22.44964,28.78253v36.71839"/><path d="M217.52702,68.70167v-36.72667c0,-15.89616 9.80201,-28.78253 21.89341,-28.78253c12.0914,0 21.89341,12.88638 21.89341,28.78253v36.16952"/><path d="M217.52702,69.02012v-35.39341c0,-16.72981 9.80201,-30.29199 21.89341,-30.29199c12.0914,0 21.89341,13.56218 21.89341,30.29199v34.09441"/><path d="M218.0725,68.47804v-36.36075c0,-15.89616 9.55779,-28.78253 21.34794,-28.78253c11.79014,0 21.34794,12.88638 21.34794,28.78253v36.71839"/><path d="M213.70474,69.08455v-35.39341c0,-16.72981 11.50982,-30.29199 25.7079,-30.29199c14.19808,0 25.7079,13.5622 25.7079,30.29199v34.09441"/><path d="M214.34526,68.54242v-36.36075c0,-15.89616 11.22305,-28.78253 25.06739,-28.78253c13.84434,0 25.06739,12.88638 25.06739,28.78253v36.71839"/><path d="M214.96633,68.81346v-36.72667c0,-15.89616 10.94499,-28.78253 24.44631,-28.78253c13.50133,0 24.44631,12.88638 24.44631,28.78253v36.16952"/><path d="M214.96633,69.13196v-35.39341c0,-16.72981 10.94499,-30.29199 24.44631,-30.29199c13.50133,0 24.44631,13.5622 24.44631,30.29199v34.09441"/><path d="M215.57541,68.58983v-36.36075c0,-15.89616 10.6723,-28.78253 23.83723,-28.78253c13.16494,0 23.83723,12.88638 23.83723,28.78253v36.71839"/><path d="M216.16602,68.86092v-36.72667c0,-15.89616 10.40788,-28.78253 23.24663,-28.78253c12.83876,0 23.24663,12.88638 23.24663,28.78253v36.16952"/><path d="M216.69295,68.97271v-35.39341c0,-16.72981 10.17196,-30.29199 22.7197,-30.29199c12.54775,0 22.7197,13.56218 22.7197,30.29199v34.09441"/><path d="M217.25901,68.43058v-36.36075c0,-15.89616 9.91852,-28.78253 22.15364,-28.78253c12.23512,0 22.15364,12.88638 22.15364,28.78253v36.71839"/><path d="M217.80789,68.70167v-36.72667c0,-15.89616 9.67277,-28.78253 21.60475,-28.78253c11.93198,0 21.60475,12.88638 21.60475,28.78253v36.16952"/><path d="M217.80789,69.02012v-35.39341c0,-16.72981 9.67277,-30.29199 21.60475,-30.29199c11.93198,0 21.60475,13.56218 21.60475,30.29199v34.09441"/><path d="M218.34618,68.47804v-36.36075c0,-15.89616 9.43178,-28.78253 21.06648,-28.78253c11.63469,0 21.06648,12.88638 21.06648,28.78253v36.71839"/><path d="M206.44619,69.08455v-35.39341c0,-16.72981 14.76307,-30.29199 32.97424,-30.29199c18.21117,0 32.97424,13.5622 32.97424,30.29199v34.09441"/><path d="M207.26775,68.54242v-36.36075c0,-15.89616 14.39524,-28.78253 32.15269,-28.78253c17.75745,0 32.15269,12.88638 32.15269,28.78253v36.71839"/><path d="M208.06437,68.81346v-36.72667c0,-15.89616 14.03859,-28.78253 31.35606,-28.78253c17.31748,0 31.35606,12.88638 31.35606,28.78253v36.16952"/><path d="M208.06437,69.13196v-35.39341c0,-16.72981 14.03859,-30.29199 31.35606,-30.29199c17.31748,0 31.35606,13.5622 31.35606,30.29199v34.09441"/><path d="M208.84561,68.58983v-36.36075c0,-15.89616 13.68881,-28.78253 30.57482,-28.78253c16.88601,0 30.57482,12.88638 30.57482,28.78253v36.71839"/><path d="M209.60313,68.86092v-36.72667c0,-15.89616 13.34965,-28.78253 29.8173,-28.78253c16.46763,0 29.8173,12.88638 29.8173,28.78253v36.16952"/><path d="M210.279,68.97271v-35.39341c0,-16.72981 13.04706,-30.29199 29.14142,-30.29199c16.09436,0 29.14142,13.56218 29.14142,30.29199v34.09441"/><path d="M211.00506,68.43058v-36.36075c0,-15.89616 12.722,-28.78253 28.41537,-28.78253c15.69337,0 28.41537,12.88638 28.41537,28.78253v36.71839"/><path d="M211.70909,68.70167v-36.72667c0,-15.89616 12.40679,-28.78253 27.71134,-28.78253c15.30455,0 27.71134,12.88638 27.71134,28.78253v36.16952"/><path d="M211.70909,69.02012v-35.39341c0,-16.72981 12.40679,-30.29199 27.71134,-30.29199c15.30455,0 27.71134,13.56218 27.71134,30.29199v34.09441"/><path d="M212.39952,68.47804v-36.36075c0,-15.89616 12.09767,-28.78253 27.02091,-28.78253c14.92323,0 27.02091,12.88638 27.02091,28.78253v36.71839"/><path d="M213.06901,68.74908v-36.72667c0,-15.89616 11.79794,-28.78253 26.35143,-28.78253c14.55349,0 26.35143,12.88638 26.35143,28.78253v36.16952"/><path d="M206.8711,69.08455v-35.39341c0,-16.72981 14.56842,-30.29199 32.53948,-30.29199c17.97106,0 32.5395,13.5622 32.5395,30.29199v34.09441"/><path d="M207.68181,68.54242v-36.36075c0,-15.89616 14.20545,-28.78253 31.72877,-28.78253c17.52332,0 31.72877,12.88638 31.72877,28.78253v36.71839"/><path d="M208.46794,68.81346v-36.72667c0,-15.89616 13.85349,-28.78253 30.94264,-28.78253c17.08915,0 30.94264,12.88638 30.94264,28.78253v36.16952"/><path d="M208.46794,69.13196v-35.39341c0,-16.72981 13.85349,-30.29199 30.94264,-30.29199c17.08915,0 30.94264,13.5622 30.94264,30.29199v34.09441"/><path d="M209.23887,68.58983v-36.36075c0,-15.89616 13.50834,-28.78253 30.17171,-28.78253c16.66337,0 30.17171,12.88638 30.17171,28.78253v36.71839"/><path d="M209.98642,69.50584v-36.72667c0,-15.89616 13.18115,-28.78253 29.44091,-28.78253c16.25976,0 29.44091,12.88638 29.44091,28.78253v36.16952"/><path d="M210.65338,68.97271v-35.39341c0,-16.72981 12.87505,-30.29199 28.7572,-30.29199c15.88217,0 28.7572,13.56218 28.7572,30.29199v34.09441"/><path d="M211.36987,68.43058v-36.36075c0,-15.89616 12.55426,-28.78253 28.04072,-28.78253c15.48647,0 28.04072,12.88638 28.04072,28.78253v36.71839"/><path d="M212.0646,68.70167v-36.72667c0,-15.89616 12.24321,-28.78253 27.34597,-28.78253c15.10276,0 27.34597,12.88638 27.34597,28.78253v36.16952"/><path d="M212.0646,69.02012v-35.39341c0,-16.72981 12.24321,-30.29199 27.34597,-30.29199c15.10276,0 27.34597,13.56218 27.34597,30.29199v34.09441"/><path d="M212.74593,68.47804v-36.36075c0,-15.89616 11.93817,-28.78253 26.66465,-28.78253c14.72648,0 26.66465,12.88638 26.66465,28.78253v36.71839"/><path d="M213.40658,68.74908v-36.72667c0,-15.89616 11.64239,-28.78253 26.004,-28.78253c14.36161,0 26.004,12.88638 26.004,28.78253v36.16952"/><path d="M209.91987,68.88675v-36.72667c0,-15.89616 13.18115,-28.78253 29.44091,-28.78253c16.25976,0 29.44091,12.88638 29.44091,28.78253v36.16952"/></g><g><path d="M218.60141,32.02244c0,-15.89616 9.32099,-28.78253 20.81902,-28.78253c11.49803,0 20.81902,12.88638 20.81902,28.78253"/><path d="M218.86812,32.02244c0,-15.89616 9.19809,-28.78253 20.54452,-28.78253c11.34642,0 20.54452,12.88638 20.54452,28.78253"/><path d="M223.37865,33.69109c0,-16.72981 7.26699,-30.29199 16.23125,-30.29199c8.96428,0 16.23125,13.5622 16.23125,30.29199"/><path d="M223.78306,32.18169c0,-15.89616 7.08592,-28.78253 15.82686,-28.78253c8.74092,0 15.82684,12.88638 15.82684,28.78253"/><path d="M224.17518,32.08682c0,-15.89616 6.91035,-28.78253 15.43472,-28.78253c8.52436,0 15.43472,12.88638 15.43472,28.78253"/><path d="M224.17518,33.73856c0,-16.72981 6.91035,-30.29199 15.43472,-30.29199c8.52436,0 15.43472,13.5622 15.43472,30.29199"/><path d="M224.55975,32.2291c0,-15.89616 6.73818,-28.78253 15.05016,-28.78253c8.31197,0 15.05016,12.88638 15.05016,28.78253"/><path d="M224.93263,32.13421c0,-15.89616 6.57124,-28.78253 14.67728,-28.78253c8.10603,0 14.67728,12.88638 14.67728,28.78253"/><path d="M225.26532,33.5793c0,-16.72981 6.42229,-30.29199 14.34458,-30.29199c7.92229,0 14.34458,13.56218 14.34458,30.29199"/><path d="M225.62272,32.06983c0,-15.89616 6.26228,-28.78253 13.98718,-28.78253c7.7249,0 13.98718,12.88638 13.98718,28.78253"/><path d="M225.96927,31.97502c0,-15.89616 6.10712,-28.78253 13.64063,-28.78253c7.53351,0 13.64063,12.88638 13.64063,28.78253"/><path d="M225.96927,33.62671c0,-16.72981 6.10712,-30.29199 13.64063,-30.29199c7.53351,0 13.64063,13.56218 13.64063,30.29199"/><path d="M226.30913,32.1173c0,-15.89616 5.95496,-28.78253 13.30079,-28.78253c7.34582,0 13.30077,12.88638 13.30077,28.78253"/><path d="M226.63867,32.02244c0,-15.89616 5.80742,-28.78253 12.97123,-28.78253c7.16381,0 12.97123,12.88638 12.97123,28.78253"/><path d="M223.58782,33.69109c0,-16.72981 7.17117,-30.29199 16.01725,-30.29199c8.84608,0 16.01725,13.5622 16.01725,30.29199"/><path d="M223.98688,32.18169c0,-15.89616 6.9925,-28.78253 15.61817,-28.78253c8.62568,0 15.61817,12.88638 15.61817,28.78253"/><path d="M224.37384,32.08682c0,-15.89616 6.81924,-28.78253 15.23122,-28.78253c8.41197,0 15.23122,12.88638 15.23122,28.78253"/><path d="M224.37384,33.73856c0,-16.72981 6.81924,-30.29199 15.23122,-30.29199c8.41197,0 15.23122,13.5622 15.23122,30.29199"/><path d="M224.75333,32.2291c0,-15.89616 6.64935,-28.78253 14.85174,-28.78253c8.20239,0 14.85174,12.88638 14.85174,28.78253"/><path d="M225.12129,32.13421c0,-15.89616 6.4846,-28.78253 14.48376,-28.78253c7.99916,0 14.48376,12.88638 14.48376,28.78253"/><path d="M225.4496,33.5793c0,-16.72981 6.33761,-30.29199 14.15545,-30.29199c7.81784,0 14.15545,13.56218 14.15545,30.29199"/><path d="M225.80228,32.06983c0,-15.89616 6.17971,-28.78253 13.80277,-28.78253c7.62306,0 13.80277,12.88638 13.80277,28.78253"/><path d="M226.14427,31.97502c0,-15.89616 6.0266,-28.78253 13.46078,-28.78253c7.43418,0 13.46078,12.88638 13.46078,28.78253"/><path d="M226.14427,33.62671c0,-16.72981 6.0266,-30.29199 13.46078,-30.29199c7.43418,0 13.46078,13.56218 13.46078,30.29199"/><path d="M226.47964,32.1173c0,-15.89616 5.87645,-28.78253 13.12542,-28.78253c7.24897,0 13.12542,12.88638 13.12542,28.78253"/><path d="M226.80484,32.02244c0,-15.89616 5.73085,-28.78253 12.80021,-28.78253c7.06936,0 12.80021,12.88638 12.80021,28.78253"/><path d="M219.0654,33.69109c0,-16.72981 9.19809,-30.29199 20.54452,-30.29199c11.34642,0 20.54452,13.5622 20.54452,30.29199"/><path d="M219.57725,32.18169c0,-15.89616 8.96892,-28.78253 20.03265,-28.78253c11.06373,0 20.03265,12.88638 20.03265,28.78253"/><path d="M220.07359,32.08682c0,-15.89616 8.74671,-28.78253 19.53631,-28.78253c10.78962,0 19.53631,12.88638 19.53631,28.78253"/><path d="M220.07359,33.73856c0,-16.72981 8.74671,-30.29199 19.53631,-30.29199c10.78962,0 19.53631,13.5622 19.53631,30.29199"/><path d="M220.56034,32.2291c0,-15.89616 8.52878,-28.78253 19.04958,-28.78253c10.52078,0 19.04958,12.88638 19.04958,28.78253"/><path d="M221.03232,32.13421c0,-15.89616 8.31747,-28.78253 18.57759,-28.78253c10.26012,0 18.57759,12.88638 18.57759,28.78253"/><path d="M221.45341,33.5793c0,-16.72981 8.12895,-30.29199 18.1565,-30.29199c10.02755,0 18.1565,13.56218 18.1565,30.29199"/><path d="M221.90579,32.06983c0,-15.89616 7.9264,-28.78253 17.70413,-28.78253c9.77771,0 17.70413,12.88638 17.70413,28.78253"/><path d="M222.34443,31.97502c0,-15.89616 7.73002,-28.78253 17.26548,-28.78253c9.53547,0 17.26548,12.88638 17.26548,28.78253"/><path d="M222.34443,33.62671c0,-16.72981 7.73002,-30.29199 17.26548,-30.29199c9.53547,0 17.26548,13.56218 17.26548,30.29199"/><path d="M222.7746,32.1173c0,-15.89616 7.53742,-28.78253 16.83531,-28.78253c9.29789,0 16.83531,12.88638 16.83531,28.78253"/><path d="M223.19171,32.02244c0,-15.89616 7.35067,-28.78253 16.41819,-28.78253c9.06752,0 16.41819,12.88638 16.41819,28.78253"/><path d="M219.33012,33.69109c0,-16.72981 9.07682,-30.29199 20.27364,-30.29199c11.19683,0 20.27366,13.5622 20.27366,30.29199"/><path d="M219.83524,32.18169c0,-15.89616 8.85067,-28.78253 19.76854,-28.78253c10.91786,0 19.76854,12.88638 19.76854,28.78253"/><path d="M220.32503,32.08682c0,-15.89616 8.63138,-28.78253 19.27874,-28.78253c10.64735,0 19.27874,12.88638 19.27874,28.78253"/><path d="M220.32503,33.73856c0,-16.72981 8.63138,-30.29199 19.27874,-30.29199c10.64735,0 19.27874,13.5622 19.27874,30.29199"/><path d="M220.80537,32.2291c0,-15.89616 8.41634,-28.78253 18.79841,-28.78253c10.38207,0 18.79841,12.88638 18.79841,28.78253"/><path d="M221.27112,32.7792c0,-15.89616 8.21247,-28.78253 18.34308,-28.78253c10.13061,0 18.34308,12.88638 18.34308,28.78253"/><path d="M221.68665,33.5793c0,-16.72981 8.02175,-30.29199 17.9171,-30.29199c9.89535,0 17.9171,13.56218 17.9171,30.29199"/><path d="M222.13307,32.06983c0,-15.89616 7.8219,-28.78253 17.47071,-28.78253c9.6488,0 17.47071,12.88638 17.47071,28.78253"/><path d="M222.56593,31.97502c0,-15.89616 7.6281,-28.78253 17.03785,-28.78253c9.40973,0 17.03785,12.88638 17.03785,28.78253"/><path d="M222.56593,33.62671c0,-16.72981 7.6281,-30.29199 17.03785,-30.29199c9.40973,0 17.03785,13.56218 17.03785,30.29199"/><path d="M222.99042,32.1173c0,-15.89616 7.43805,-28.78253 16.61334,-28.78253c9.17529,0 16.61334,12.88638 16.61334,28.78253"/><path d="M223.40205,32.02244c0,-15.89616 7.25375,-28.78253 16.20173,-28.78253c8.94796,0 16.20173,12.88638 16.20173,28.78253"/><path d="M221.22965,32.16011c0,-15.89616 8.21247,-28.78253 18.34308,-28.78253c10.1306,0 18.34308,12.88638 18.34308,28.78253"/><path d="M229.64265,33.69109c0,-16.72981 4.52767,-30.29199 10.11284,-30.29199c5.58516,0 10.11284,13.5622 10.11284,30.29199"/><path d="M229.89461,32.18169c0,-15.89616 4.41486,-28.78253 9.86088,-28.78253c5.446,0 9.86088,12.88638 9.86088,28.78253"/><path d="M230.13892,32.08682c0,-15.89616 4.30548,-28.78253 9.61656,-28.78253c5.31108,0 9.61656,12.88638 9.61656,28.78253"/><path d="M230.13892,33.73856c0,-16.72981 4.30548,-30.29199 9.61656,-30.29199c5.31108,0 9.61656,13.5622 9.61656,30.29199"/><path d="M230.37852,32.2291c0,-15.89616 4.19821,-28.78253 9.37696,-28.78253c5.17875,0 9.37696,12.88638 9.37696,28.78253"/><path d="M230.61085,32.13421c0,-15.89616 4.0942,-28.78253 9.14464,-28.78253c5.05044,0 9.14464,12.88638 9.14464,28.78253"/><path d="M230.81813,33.5793c0,-16.72981 4.0014,-30.29199 8.93735,-30.29199c4.93597,0 8.93735,13.56218 8.93735,30.29199"/><path d="M231.0408,32.06983c0,-15.89616 3.90169,-28.78253 8.71468,-28.78253c4.81299,0 8.71468,12.88638 8.71468,28.78253"/><path d="M231.25672,31.97502c0,-15.89616 3.80503,-28.78253 8.49876,-28.78253c4.69375,0 8.49876,12.88638 8.49876,28.78253"/><path d="M231.25672,33.62671c0,-16.72981 3.80503,-30.29199 8.49876,-30.29199c4.69375,0 8.49876,13.56218 8.49876,30.29199"/><path d="M231.46846,32.1173c0,-15.89616 3.71023,-28.78253 8.28702,-28.78253c4.57679,0 8.28702,12.88638 8.28702,28.78253"/><path d="M231.67379,32.02244c0,-15.89616 3.6183,-28.78253 8.08169,-28.78253c4.46339,0 8.08169,12.88638 8.08169,28.78253"/><path d="M229.77296,33.69109c0,-16.72981 4.46797,-30.29199 9.9795,-30.29199c5.51153,0 9.9795,13.5622 9.9795,30.29199"/><path d="M230.0216,32.18169c0,-15.89616 4.35665,-28.78253 9.73086,-28.78253c5.37421,0 9.73086,12.88638 9.73086,28.78253"/><path d="M230.2627,32.08682c0,-15.89616 4.24871,-28.78253 9.48977,-28.78253c5.24106,0 9.48977,12.88638 9.48977,28.78253"/><path d="M230.2627,33.73856c0,-16.72981 4.24871,-30.29199 9.48977,-30.29199c5.24106,0 9.48977,13.5622 9.48977,30.29199"/><path d="M230.49913,32.2291c0,-15.89616 4.14286,-28.78253 9.25334,-28.78253c5.11048,0 9.25334,12.88638 9.25334,28.78253"/><path d="M230.7284,32.13421c0,-15.89616 4.04022,-28.78253 9.02408,-28.78253c4.98386,0 9.02408,12.88638 9.02408,28.78253"/><path d="M230.93294,33.5793c0,-16.72981 3.94864,-30.29199 8.81952,-30.29199c4.87089,0 8.81952,13.56218 8.81952,30.29199"/><path d="M231.15268,32.06983c0,-15.89616 3.85025,-28.78253 8.59978,-28.78253c4.74953,0 8.59978,12.88638 8.59978,28.78253"/><path d="M231.36575,31.97502c0,-15.89616 3.75485,-28.78253 8.38671,-28.78253c4.63185,0 8.38671,12.88638 8.38671,28.78253"/><path d="M231.36575,33.62671c0,-16.72981 3.75485,-30.29199 8.38671,-30.29199c4.63185,0 8.38671,13.56218 8.38671,30.29199"/><path d="M231.57471,32.1173c0,-15.89616 3.66131,-28.78253 8.17776,-28.78253c4.51645,0 8.17776,12.88638 8.17776,28.78253"/><path d="M231.77733,32.02244c0,-15.89616 3.57058,-28.78253 7.97514,-28.78253c4.40454,0 7.97514,12.88638 7.97514,28.78253"/><path d="M226.95527,33.69109c0,-16.72981 5.73085,-30.29199 12.80021,-30.29199c7.06936,0 12.80021,13.5622 12.80021,30.29199"/><path d="M227.27419,32.18169c0,-15.89616 5.58806,-28.78253 12.48129,-28.78253c6.89323,0 12.48129,12.88638 12.48129,28.78253"/><path d="M227.58344,32.08682c0,-15.89616 5.44962,-28.78253 12.17206,-28.78253c6.72244,0 12.17206,12.88638 12.17206,28.78253"/><path d="M227.58344,33.73856c0,-16.72981 5.44962,-30.29199 12.17206,-30.29199c6.72244,0 12.17206,13.5622 12.17206,30.29199"/><path d="M227.88671,32.2291c0,-15.89616 5.31383,-28.78253 11.86879,-28.78253c6.55496,0 11.86879,12.88638 11.86879,28.78253"/><path d="M228.18076,32.13421c0,-15.89616 5.18218,-28.78253 11.57472,-28.78253c6.39254,0 11.57472,12.88638 11.57472,28.78253"/><path d="M228.44313,33.5793c0,-16.72981 5.06471,-30.29199 11.31235,-30.29199c6.24764,0 11.31235,13.56218 11.31235,30.29199"/><path d="M228.72497,32.06983c0,-15.89616 4.93853,-28.78253 11.03051,-28.78253c6.09198,0 11.03051,12.88638 11.03051,28.78253"/><path d="M228.99827,31.97502c0,-15.89616 4.81617,-28.78253 10.75721,-28.78253c5.94104,0 10.75721,12.88638 10.75721,28.78253"/><path d="M228.99827,33.62671c0,-16.72981 4.81617,-30.29199 10.75721,-30.29199c5.94104,0 10.75721,13.56218 10.75721,30.29199"/><path d="M229.26628,32.1173c0,-15.89616 4.69618,-28.78253 10.4892,-28.78253c5.79302,0 10.4892,12.88638 10.4892,28.78253"/><path d="M229.52617,32.02244c0,-15.89616 4.57982,-28.78253 10.22932,-28.78253c5.64949,0 10.22932,12.88638 10.22932,28.78253"/><path d="M227.12021,33.69109c0,-16.72981 5.6553,-30.29199 12.63145,-30.29199c6.97615,0 12.63145,13.5622 12.63145,30.29199"/><path d="M227.43493,32.18169c0,-15.89616 5.51439,-28.78253 12.31674,-28.78253c6.80235,0 12.31674,12.88638 12.31674,28.78253"/><path d="M227.74009,32.08682c0,-15.89616 5.37776,-28.78253 12.01157,-28.78253c6.63381,0 12.01157,12.88638 12.01157,28.78253"/><path d="M227.74009,33.73856c0,-16.72981 5.37776,-30.29199 12.01157,-30.29199c6.63381,0 12.01157,13.5622 12.01157,30.29199"/><path d="M228.03936,32.2291c0,-15.89616 5.24378,-28.78253 11.7123,-28.78253c6.46853,0 11.7123,12.88638 11.7123,28.78253"/><path d="M228.32955,32.7792c0,-15.89616 5.11677,-28.78253 11.42862,-28.78253c6.31185,0 11.42862,12.88638 11.42862,28.78253"/><path d="M228.58845,33.5793c0,-16.72981 4.99794,-30.29199 11.16321,-30.29199c6.16527,0 11.16321,13.56218 11.16321,30.29199"/><path d="M228.86658,32.06983c0,-15.89616 4.87342,-28.78253 10.88508,-28.78253c6.01166,0 10.88508,12.88638 10.88508,28.78253"/><path d="M229.13628,31.97502c0,-15.89616 4.75268,-28.78253 10.61538,-28.78253c5.86272,0 10.61538,12.88638 10.61538,28.78253"/><path d="M229.13628,33.62671c0,-16.72981 4.75268,-30.29199 10.61538,-30.29199c5.86272,0 10.61538,13.56218 10.61538,30.29199"/><path d="M229.40076,32.1173c0,-15.89616 4.63425,-28.78253 10.3509,-28.78253c5.71664,0 10.3509,12.88638 10.3509,28.78253"/><path d="M229.65722,32.02244c0,-15.89616 4.51943,-28.78253 10.09445,-28.78253c5.575,0 10.09445,12.88638 10.09445,28.78253"/><path d="M228.30371,32.16011c0,-15.89616 5.11677,-28.78253 11.42862,-28.78253c6.31185,0 11.42862,12.88638 11.42862,28.78253"/><path d="M233.52826,33.69109c0,-16.72981 2.82095,-30.29199 6.30078,-30.29199c3.47983,0 6.30078,13.5622 6.30078,30.29199"/><path d="M233.68524,32.18169c0,-15.89616 2.75068,-28.78253 6.14379,-28.78253c3.39312,0 6.14379,12.88638 6.14379,28.78253"/><path d="M233.83746,32.08682c0,-15.89616 2.68253,-28.78253 5.99157,-28.78253c3.30906,0 5.99157,12.88638 5.99157,28.78253"/><path d="M233.83746,33.73856c0,-16.72981 2.68253,-30.29199 5.99157,-30.29199c3.30906,0 5.99157,13.5622 5.99157,30.29199"/><path d="M233.98674,32.2291c0,-15.89616 2.61569,-28.78253 5.8423,-28.78253c3.22661,0 5.8423,12.88638 5.8423,28.78253"/><path d="M234.1315,32.13421c0,-15.89616 2.55087,-28.78253 5.69754,-28.78253c3.14667,0 5.69754,12.88638 5.69754,28.78253"/><path d="M234.26064,33.5793c0,-16.72981 2.49306,-30.29199 5.56839,-30.29199c3.07534,0 5.56839,13.56218 5.56839,30.29199"/><path d="M234.39937,32.06983c0,-15.89616 2.43094,-28.78253 5.42967,-28.78253c2.99872,0 5.42967,12.88638 5.42967,28.78253"/><path d="M234.53391,31.97502c0,-15.89616 2.37071,-28.78253 5.29513,-28.78253c2.92443,0 5.29513,12.88638 5.29513,28.78253"/><path d="M234.53391,33.62671c0,-16.72981 2.37071,-30.29199 5.29513,-30.29199c2.92443,0 5.29513,13.56218 5.29513,30.29199"/><path d="M234.66584,32.1173c0,-15.89616 2.31164,-28.78253 5.1632,-28.78253c2.85156,0 5.1632,12.88638 5.1632,28.78253"/><path d="M234.79375,32.02244c0,-15.89616 2.25437,-28.78253 5.03529,-28.78253c2.78092,0 5.03529,12.88638 5.03529,28.78253"/><path d="M233.60945,33.69109c0,-16.72981 2.78377,-30.29199 6.2177,-30.29199c3.43395,0 6.2177,13.5622 6.2177,30.29199"/><path d="M233.76437,32.18169c0,-15.89616 2.7144,-28.78253 6.0628,-28.78253c3.34839,0 6.0628,12.88638 6.0628,28.78253"/><path d="M233.91457,32.08682c0,-15.89616 2.64715,-28.78253 5.91258,-28.78253c3.26543,0 5.91258,12.88638 5.91258,28.78253"/><path d="M233.91457,33.73856c0,-16.72981 2.64715,-30.29199 5.91258,-30.29199c3.26543,0 5.91258,13.5622 5.91258,30.29199"/><path d="M234.06189,32.2291c0,-15.89616 2.58119,-28.78253 5.76527,-28.78253c3.18406,0 5.76527,12.88638 5.76527,28.78253"/><path d="M234.20473,32.13421c0,-15.89616 2.51724,-28.78253 5.62243,-28.78253c3.10518,0 5.62243,12.88638 5.62243,28.78253"/><path d="M234.33217,33.5793c0,-16.72981 2.46019,-30.29199 5.49498,-30.29199c3.03479,0 5.49498,13.56218 5.49498,30.29199"/><path d="M234.46909,32.06983c0,-15.89616 2.39889,-28.78253 5.35808,-28.78253c2.95918,0 5.35808,12.88638 5.35808,28.78253"/><path d="M234.60183,31.97502c0,-15.89616 2.33945,-28.78253 5.22532,-28.78253c2.88587,0 5.22532,12.88638 5.22532,28.78253"/><path d="M234.60183,33.62671c0,-16.72981 2.33945,-30.29199 5.22532,-30.29199c2.88587,0 5.22532,13.56218 5.22532,30.29199"/><path d="M234.73203,32.1173c0,-15.89616 2.28117,-28.78253 5.09513,-28.78253c2.81396,0 5.09513,12.88638 5.09513,28.78253"/><path d="M234.85826,32.02244c0,-15.89616 2.22466,-28.78253 4.9689,-28.78253c2.74424,0 4.9689,12.88638 4.9689,28.78253"/><path d="M231.85389,33.69109c0,-16.72981 3.57058,-30.29199 7.97514,-30.29199c4.40454,0 7.97514,13.5622 7.97514,30.29199"/><path d="M232.05259,32.18169c0,-15.89616 3.48163,-28.78253 7.77644,-28.78253c4.29481,0 7.77644,12.88638 7.77644,28.78253"/><path d="M232.24526,32.08682c0,-15.89616 3.39537,-28.78253 7.58377,-28.78253c4.1884,0 7.58377,12.88638 7.58377,28.78253"/><path d="M232.24526,33.73856c0,-16.72981 3.39537,-30.29199 7.58377,-30.29199c4.1884,0 7.58377,13.5622 7.58377,30.29199"/><path d="M232.43422,32.2291c0,-15.89616 3.31078,-28.78253 7.39482,-28.78253c4.08404,0 7.39482,12.88638 7.39482,28.78253"/><path d="M232.61743,32.13421c0,-15.89616 3.22874,-28.78253 7.21161,-28.78253c3.98285,0 7.21161,12.88638 7.21161,28.78253"/><path d="M232.7809,33.5793c0,-16.72981 3.15557,-30.29199 7.04814,-30.29199c3.89257,0 7.04814,13.56218 7.04814,30.29199"/><path d="M232.95651,32.06983c0,-15.89616 3.07694,-28.78253 6.87253,-28.78253c3.79559,0 6.87253,12.88638 6.87253,28.78253"/><path d="M233.12679,31.97502c0,-15.89616 3.00071,-28.78253 6.70226,-28.78253c3.70155,0 6.70226,12.88638 6.70226,28.78253"/><path d="M233.12679,33.62671c0,-16.72981 3.00071,-30.29199 6.70226,-30.29199c3.70155,0 6.70226,13.56218 6.70226,30.29199"/><path d="M233.29376,32.1173c0,-15.89616 2.92593,-28.78253 6.53527,-28.78253c3.60932,0 6.53527,12.88638 6.53527,28.78253"/><path d="M233.45569,32.02244c0,-15.89616 2.85345,-28.78253 6.37336,-28.78253c3.51991,0 6.37334,12.88638 6.37334,28.78253"/><path d="M231.95667,33.69109c0,-16.72981 3.52351,-30.29199 7.86998,-30.29199c4.34648,0 7.86998,13.5622 7.86998,30.29199"/><path d="M232.15274,32.18169c0,-15.89616 3.43573,-28.78253 7.67391,-28.78253c4.23818,0 7.67391,12.88638 7.67391,28.78253"/><path d="M232.34289,32.08682c0,-15.89616 3.3506,-28.78253 7.48378,-28.78253c4.13318,0 7.48378,12.88638 7.48378,28.78253"/><path d="M232.34289,33.73856c0,-16.72981 3.3506,-30.29199 7.48378,-30.29199c4.13318,0 7.48378,13.5622 7.48378,30.29199"/><path d="M232.52933,32.2291c0,-15.89616 3.26712,-28.78253 7.29732,-28.78253c4.0302,0 7.29732,12.88638 7.29732,28.78253"/><path d="M232.71014,32.7792c0,-15.89616 3.18798,-28.78253 7.12058,-28.78253c3.93258,0 7.12058,12.88638 7.12058,28.78253"/><path d="M232.87145,33.5793c0,-16.72981 3.11395,-30.29199 6.95521,-30.29199c3.84126,0 6.95521,13.56218 6.95521,30.29199"/><path d="M233.04474,32.06983c0,-15.89616 3.03637,-28.78253 6.78191,-28.78253c3.74556,0 6.78193,12.88638 6.78193,28.78253"/><path d="M233.21277,31.97502c0,-15.89616 2.96114,-28.78253 6.61389,-28.78253c3.65275,0 6.61389,12.88638 6.61389,28.78253"/><path d="M233.21277,33.62671c0,-16.72981 2.96114,-30.29199 6.61389,-30.29199c3.65275,0 6.61389,13.56218 6.61389,30.29199"/><path d="M233.37754,32.1173c0,-15.89616 2.88736,-28.78253 6.44911,-28.78253c3.56174,0 6.44911,12.88638 6.44911,28.78253"/><path d="M233.53733,32.02244c0,-15.89616 2.81582,-28.78253 6.28932,-28.78253c3.47349,0 6.28932,12.88638 6.28932,28.78253"/><path d="M232.69404,32.16011c0,-15.89616 3.18798,-28.78253 7.12058,-28.78253c3.93258,0 7.12058,12.88638 7.12058,28.78253"/><path d="M236.14957,33.69109c0,-16.72981 1.75759,-30.29199 3.92568,-30.29199c2.16809,0 3.92568,13.5622 3.92568,30.29199"/><path d="M236.24738,32.18169c0,-15.89616 1.71381,-28.78253 3.82788,-28.78253c2.11407,0 3.82788,12.88638 3.82788,28.78253"/><path d="M236.34222,32.08682c0,-15.89616 1.67134,-28.78253 3.73304,-28.78253c2.0617,0 3.73304,12.88638 3.73304,28.78253"/><path d="M236.34222,33.73856c0,-16.72981 1.67134,-30.29199 3.73304,-30.29199c2.0617,0 3.73304,13.5622 3.73304,30.29199"/><path d="M236.43523,32.2291c0,-15.89616 1.62971,-28.78253 3.64003,-28.78253c2.01034,0 3.64003,12.88638 3.64003,28.78253"/><path d="M236.52541,32.13421c0,-15.89616 1.58932,-28.78253 3.54985,-28.78253c1.96053,0 3.54985,12.88638 3.54985,28.78253"/><path d="M236.60588,33.5793c0,-16.72981 1.5533,-30.29199 3.46938,-30.29199c1.91608,0 3.46938,13.56218 3.46938,30.29199"/><path d="M236.69232,32.06983c0,-15.89616 1.51459,-28.78253 3.38294,-28.78253c1.86835,0 3.38294,12.88638 3.38294,28.78253"/><path d="M236.77613,31.97502c0,-15.89616 1.47707,-28.78253 3.29913,-28.78253c1.82205,0 3.29911,12.88638 3.29911,28.78253"/><path d="M236.77613,33.62671c0,-16.72981 1.47707,-30.29199 3.29913,-30.29199c1.82205,0 3.29911,13.56218 3.29911,30.29199"/><path d="M236.85833,32.1173c0,-15.89616 1.44027,-28.78253 3.21693,-28.78253c1.77666,0 3.21691,12.88638 3.21691,28.78253"/><path d="M236.93803,32.02244c0,-15.89616 1.40459,-28.78253 3.13723,-28.78253c1.73264,0 3.13723,12.88638 3.13723,28.78253"/><path d="M236.20016,33.69109c0,-16.72981 1.73442,-30.29199 3.87393,-30.29199c2.13952,0 3.87393,13.5622 3.87393,30.29199"/><path d="M236.29668,32.18169c0,-15.89616 1.6912,-28.78253 3.77741,-28.78253c2.0862,0 3.77741,12.88638 3.77741,28.78253"/><path d="M236.39027,32.08682c0,-15.89616 1.64929,-28.78253 3.68382,-28.78253c2.03452,0 3.68382,12.88638 3.68382,28.78253"/><path d="M236.39027,33.73856c0,-16.72981 1.64929,-30.29199 3.68382,-30.29199c2.03452,0 3.68382,13.5622 3.68382,30.29199"/><path d="M236.48205,32.2291c0,-15.89616 1.60822,-28.78253 3.59204,-28.78253c1.98383,0 3.59204,12.88638 3.59204,28.78253"/><path d="M236.57105,32.13421c0,-15.89616 1.56836,-28.78253 3.50304,-28.78253c1.93467,0 3.50304,12.88638 3.50304,28.78253"/><path d="M236.65045,33.5793c0,-16.72981 1.53282,-30.29199 3.42363,-30.29199c1.89083,0 3.42363,13.56218 3.42363,30.29199"/><path d="M236.73575,32.06983c0,-15.89616 1.49463,-28.78253 3.33833,-28.78253c1.84372,0 3.33833,12.88638 3.33833,28.78253"/><path d="M236.81846,31.97502c0,-15.89616 1.45758,-28.78253 3.25562,-28.78253c1.79804,0 3.25562,12.88638 3.25562,28.78253"/><path d="M236.81846,33.62671c0,-16.72981 1.45758,-30.29199 3.25562,-30.29199c1.79804,0 3.25562,13.56218 3.25562,30.29199"/><path d="M236.89958,32.1173c0,-15.89616 1.42128,-28.78253 3.17451,-28.78253c1.75323,0 3.17451,12.88638 3.17451,28.78253"/><path d="M236.97823,32.02244c0,-15.89616 1.38606,-28.78253 3.09585,-28.78253c1.70979,0 3.09585,12.88638 3.09585,28.78253"/><path d="M235.10636,33.69109c0,-16.72981 2.22466,-30.29199 4.9689,-30.29199c2.74424,0 4.9689,13.5622 4.9689,30.29199"/><path d="M235.23016,32.18169c0,-15.89616 2.16923,-28.78253 4.8451,-28.78253c2.67587,0 4.8451,12.88638 4.8451,28.78253"/><path d="M235.3502,32.08682c0,-15.89616 2.11548,-28.78253 4.72504,-28.78253c2.60958,0 4.72504,12.88638 4.72504,28.78253"/><path d="M235.3502,33.73856c0,-16.72981 2.11548,-30.29199 4.72504,-30.29199c2.60958,0 4.72504,13.5622 4.72504,30.29199"/><path d="M235.46794,32.2291c0,-15.89616 2.06277,-28.78253 4.60732,-28.78253c2.54455,0 4.60732,12.88638 4.60732,28.78253"/><path d="M235.58209,32.13421c0,-15.89616 2.01167,-28.78253 4.49317,-28.78253c2.48151,0 4.49317,12.88638 4.49317,28.78253"/><path d="M235.68393,33.5793c0,-16.72981 1.96606,-30.29199 4.39133,-30.29199c2.42526,0 4.39133,13.56218 4.39133,30.29199"/><path d="M235.79335,32.06983c0,-15.89616 1.91708,-28.78253 4.28191,-28.78253c2.36484,0 4.28191,12.88638 4.28191,28.78253"/><path d="M235.89944,31.97502c0,-15.89616 1.86958,-28.78253 4.17582,-28.78253c2.30625,0 4.17582,12.88638 4.17582,28.78253"/><path d="M235.89944,33.62671c0,-16.72981 1.86958,-30.29199 4.17582,-30.29199c2.30625,0 4.17582,13.56218 4.17582,30.29199"/><path d="M236.00348,32.1173c0,-15.89616 1.823,-28.78253 4.07179,-28.78253c2.24879,0 4.07179,12.88638 4.07179,28.78253"/><path d="M236.10436,32.02244c0,-15.89616 1.77783,-28.78253 3.9709,-28.78253c2.19307,0 3.9709,12.88638 3.9709,28.78253"/><path d="M235.1704,33.69109c0,-16.72981 2.19531,-30.29199 4.90338,-30.29199c2.70806,0 4.90338,13.5622 4.90338,30.29199"/><path d="M235.29257,32.18169c0,-15.89616 2.14062,-28.78253 4.78121,-28.78253c2.64059,0 4.78121,12.88638 4.78121,28.78253"/><path d="M235.41102,32.08682c0,-15.89616 2.08758,-28.78253 4.66275,-28.78253c2.57516,0 4.66275,12.88638 4.66275,28.78253"/><path d="M235.41102,33.73856c0,-16.72981 2.08758,-30.29199 4.66275,-30.29199c2.57516,0 4.66275,13.5622 4.66275,30.29199"/><path d="M235.52719,32.2291c0,-15.89616 2.03557,-28.78253 4.54658,-28.78253c2.51101,0 4.54658,12.88638 4.54658,28.78253"/><path d="M235.63984,32.7792c0,-15.89616 1.98627,-28.78253 4.43645,-28.78253c2.45019,0 4.43645,12.88638 4.43645,28.78253"/><path d="M235.74034,33.5793c0,-16.72981 1.94014,-30.29199 4.33343,-30.29199c2.39329,0 4.33343,13.56218 4.33343,30.29199"/><path d="M235.84831,32.06983c0,-15.89616 1.8918,-28.78253 4.22546,-28.78253c2.33366,0 4.22546,12.88638 4.22546,28.78253"/><path d="M235.95301,31.97502c0,-15.89616 1.84494,-28.78253 4.12076,-28.78253c2.27584,0 4.12076,12.88638 4.12076,28.78253"/><path d="M235.95301,33.62671c0,-16.72981 1.84494,-30.29199 4.12076,-30.29199c2.27584,0 4.12076,13.56218 4.12076,30.29199"/><path d="M236.05567,32.1173c0,-15.89616 1.79897,-28.78253 4.0181,-28.78253c2.21914,0 4.0181,12.88638 4.0181,28.78253"/><path d="M236.15523,32.02244c0,-15.89616 1.75439,-28.78253 3.91854,-28.78253c2.16416,0 3.91854,12.88638 3.91854,28.78253"/><path d="M235.62982,32.16011c0,-15.89616 1.98627,-28.78253 4.43645,-28.78253c2.45019,0 4.43645,12.88638 4.43645,28.78253"/><path d="M237.65792,33.69109c0,-16.72981 1.09506,-30.29199 2.44589,-30.29199c1.35082,0 2.44589,13.5622 2.44589,30.29199"/><path d="M237.71885,32.18169c0,-15.89616 1.06778,-28.78253 2.38496,-28.78253c1.31717,0 2.38496,12.88638 2.38496,28.78253"/><path d="M237.77794,32.08682c0,-15.89616 1.04132,-28.78253 2.32586,-28.78253c1.28453,0 2.32586,12.88638 2.32586,28.78253"/><path d="M237.77794,33.73856c0,-16.72981 1.04132,-30.29199 2.32586,-30.29199c1.28453,0 2.32586,13.5622 2.32586,30.29199"/><path d="M237.8359,32.2291c0,-15.89616 1.01538,-28.78253 2.26791,-28.78253c1.25253,0 2.26791,12.88638 2.26791,28.78253"/><path d="M237.89209,32.13421c0,-15.89616 0.99022,-28.78253 2.21171,-28.78253c1.2215,0 2.21171,12.88638 2.21171,28.78253"/><path d="M237.94223,33.5793c0,-16.72981 0.96778,-30.29199 2.16158,-30.29199c1.19381,0 2.16158,13.56218 2.16158,30.29199"/><path d="M237.99609,32.06983c0,-15.89616 0.94366,-28.78253 2.10774,-28.78253c1.16408,0 2.10774,12.88638 2.10774,28.78253"/><path d="M238.0483,31.97502c0,-15.89616 0.92028,-28.78253 2.05551,-28.78253c1.13523,0 2.05551,12.88638 2.05551,28.78253"/><path d="M238.0483,33.62671c0,-16.72981 0.92028,-30.29199 2.05551,-30.29199c1.13523,0 2.05551,13.56218 2.05551,30.29199"/><path d="M238.09952,32.1173c0,-15.89616 0.89735,-28.78253 2.00429,-28.78253c1.10694,0 2.00429,12.88638 2.00429,28.78253"/><path d="M238.14917,32.02244c0,-15.89616 0.87513,-28.78253 1.95464,-28.78253c1.07951,0 1.95464,12.88638 1.95464,28.78253"/><path d="M237.68944,33.69109c0,-16.72981 1.08063,-30.29199 2.41365,-30.29199c1.33301,0 2.41365,13.5622 2.41365,30.29199"/><path d="M237.74957,32.18169c0,-15.89616 1.0537,-28.78253 2.3535,-28.78253c1.2998,0 2.3535,12.88638 2.3535,28.78253"/><path d="M237.80788,32.08682c0,-15.89616 1.02759,-28.78253 2.29519,-28.78253c1.2676,0 2.29519,12.88638 2.29519,28.78253"/><path d="M237.80788,33.73856c0,-16.72981 1.02759,-30.29199 2.29519,-30.29199c1.2676,0 2.29519,13.5622 2.29519,30.29199"/><path d="M237.86507,32.2291c0,-15.89616 1.00199,-28.78253 2.238,-28.78253c1.23602,0 2.238,12.88638 2.238,28.78253"/><path d="M237.92051,32.13421c0,-15.89616 0.97717,-28.78253 2.18256,-28.78253c1.20539,0 2.18256,12.88638 2.18256,28.78253"/><path d="M237.96999,33.5793c0,-16.72981 0.95501,-30.29199 2.13308,-30.29199c1.17808,0 2.13308,13.56218 2.13308,30.29199"/><path d="M238.02314,32.06983c0,-15.89616 0.93123,-28.78253 2.07994,-28.78253c1.14871,0 2.07994,12.88638 2.07994,28.78253"/><path d="M238.07467,31.97502c0,-15.89616 0.90816,-28.78253 2.0284,-28.78253c1.12027,0 2.0284,12.88638 2.0284,28.78253"/><path d="M238.07467,33.62671c0,-16.72981 0.90816,-30.29199 2.0284,-30.29199c1.12027,0 2.0284,13.56218 2.0284,30.29199"/><path d="M238.12521,32.1173c0,-15.89616 0.88553,-28.78253 1.97787,-28.78253c1.09234,0 1.97787,12.88638 1.97787,28.78253"/><path d="M238.17421,32.02244c0,-15.89616 0.86358,-28.78253 1.92886,-28.78253c1.06529,0 1.92886,12.88638 1.92886,28.78253"/><path d="M237.00796,33.69109c0,-16.72981 1.38606,-30.29199 3.09585,-30.29199c1.70979,0 3.09585,13.5622 3.09585,30.29199"/><path d="M237.08508,32.18169c0,-15.89616 1.35153,-28.78253 3.01872,-28.78253c1.6672,0 3.01872,12.88638 3.01872,28.78253"/><path d="M237.15987,32.08682c0,-15.89616 1.31804,-28.78253 2.94394,-28.78253c1.62588,0 2.94394,12.88638 2.94394,28.78253"/><path d="M237.15987,33.73856c0,-16.72981 1.31804,-30.29199 2.94394,-30.29199c1.62588,0 2.94394,13.5622 2.94394,30.29199"/><path d="M237.23322,32.2291c0,-15.89616 1.2852,-28.78253 2.87059,-28.78253c1.58538,0 2.87059,12.88638 2.87059,28.78253"/><path d="M237.30434,32.13421c0,-15.89616 1.25336,-28.78253 2.79946,-28.78253c1.5461,0 2.79946,12.88638 2.79946,28.78253"/><path d="M237.3678,33.5793c0,-16.72981 1.22494,-30.29199 2.736,-30.29199c1.51106,0 2.736,13.56218 2.736,30.29199"/><path d="M237.43597,32.06983c0,-15.89616 1.19443,-28.78253 2.66784,-28.78253c1.47341,0 2.66784,12.88638 2.66784,28.78253"/><path d="M237.50207,31.97502c0,-15.89616 1.16484,-28.78253 2.60174,-28.78253c1.43689,0 2.60174,12.88638 2.60174,28.78253"/><path d="M237.50207,33.62671c0,-16.72981 1.16484,-30.29199 2.60174,-30.29199c1.43689,0 2.60174,13.56218 2.60174,30.29199"/><path d="M237.56689,32.1173c0,-15.89616 1.13582,-28.78253 2.53692,-28.78253c1.4011,0 2.53692,12.88638 2.53692,28.78253"/><path d="M237.62974,32.02244c0,-15.89616 1.10767,-28.78253 2.47407,-28.78253c1.36638,0 2.47407,12.88638 2.47407,28.78253"/><path d="M237.04785,33.69109c0,-16.72981 1.36779,-30.29199 3.05503,-30.29199c1.68725,0 3.05503,13.5622 3.05503,30.29199"/><path d="M237.12396,32.18169c0,-15.89616 1.3337,-28.78253 2.97891,-28.78253c1.64521,0 2.97891,12.88638 2.97891,28.78253"/><path d="M237.19776,32.08682c0,-15.89616 1.30066,-28.78253 2.90512,-28.78253c1.60446,0 2.90512,12.88638 2.90512,28.78253"/><path d="M237.19776,33.73856c0,-16.72981 1.30066,-30.29199 2.90512,-30.29199c1.60446,0 2.90512,13.5622 2.90512,30.29199"/><path d="M237.27015,32.2291c0,-15.89616 1.26826,-28.78253 2.83273,-28.78253c1.56447,0 2.83273,12.88638 2.83273,28.78253"/><path d="M237.34033,32.7792c0,-15.89616 1.23754,-28.78253 2.76412,-28.78253c1.52658,0 2.76412,12.88638 2.76412,28.78253"/><path d="M237.40296,33.5793c0,-16.72981 1.2088,-30.29199 2.69994,-30.29199c1.49114,0 2.69994,13.56218 2.69994,30.29199"/><path d="M237.47023,32.06983c0,-15.89616 1.17868,-28.78253 2.63265,-28.78253c1.45398,0 2.63265,12.88638 2.63265,28.78253"/><path d="M237.53545,31.97502c0,-15.89616 1.14948,-28.78253 2.56743,-28.78253c1.41795,0 2.56743,12.88638 2.56743,28.78253"/><path d="M237.53545,33.62671c0,-16.72981 1.14948,-30.29199 2.56743,-30.29199c1.41795,0 2.56743,13.56218 2.56743,30.29199"/><path d="M237.59942,32.1173c0,-15.89616 1.12084,-28.78253 2.50346,-28.78253c1.38263,0 2.50346,12.88638 2.50346,28.78253"/><path d="M237.66144,32.02244c0,-15.89616 1.09308,-28.78253 2.44144,-28.78253c1.34838,0 2.44144,12.88638 2.44144,28.78253"/><path d="M237.33409,32.16011c0,-15.89616 1.23754,-28.78253 2.76412,-28.78253c1.52658,0 2.76412,12.88638 2.76412,28.78253"/><path d="M238.60184,33.69109c0,-16.72981 0.68227,-30.29199 1.52391,-30.29199c0.84162,0 1.52391,13.5622 1.52391,30.29199"/><path d="M238.63981,32.18169c0,-15.89616 0.66528,-28.78253 1.48594,-28.78253c0.82066,0 1.48594,12.88638 1.48594,28.78253"/><path d="M238.67663,32.08682c0,-15.89616 0.64879,-28.78253 1.44912,-28.78253c0.80032,0 1.44912,12.88638 1.44912,28.78253"/><path d="M238.67663,33.73856c0,-16.72981 0.64879,-30.29199 1.44912,-30.29199c0.80032,0 1.44912,13.5622 1.44912,30.29199"/><path d="M238.71272,32.2291c0,-15.89616 0.63263,-28.78253 1.41302,-28.78253c0.78039,0 1.41302,12.88638 1.41302,28.78253"/><path d="M238.74773,32.13421c0,-15.89616 0.61695,-28.78253 1.37801,-28.78253c0.76106,0 1.37801,12.88638 1.37801,28.78253"/><path d="M238.77897,33.5793c0,-16.72981 0.60297,-30.29199 1.34678,-30.29199c0.74379,0 1.34678,13.56218 1.34678,30.29199"/><path d="M238.81252,32.06983c0,-15.89616 0.58794,-28.78253 1.31322,-28.78253c0.72526,0 1.31322,12.88638 1.31322,28.78253"/><path d="M238.84507,31.97502c0,-15.89616 0.57338,-28.78253 1.28068,-28.78253c0.70729,0 1.28068,12.88638 1.28068,28.78253"/><path d="M238.84507,33.62671c0,-16.72981 0.57338,-30.29199 1.28068,-30.29199c0.70729,0 1.28068,13.56218 1.28068,30.29199"/><path d="M238.87697,32.1173c0,-15.89616 0.55909,-28.78253 1.24877,-28.78253c0.68968,0 1.24877,12.88638 1.24877,28.78253"/><path d="M238.9079,32.02244c0,-15.89616 0.54525,-28.78253 1.21784,-28.78253c0.67259,0 1.21782,12.88638 1.21782,28.78253"/><path d="M238.62147,33.69109c0,-16.72981 0.67328,-30.29199 1.50381,-30.29199c0.83053,0 1.50381,13.5622 1.50381,30.29199"/><path d="M238.65894,32.18169c0,-15.89616 0.65651,-28.78253 1.46635,-28.78253c0.80984,0 1.46635,12.88638 1.46635,28.78253"/><path d="M238.69528,32.08682c0,-15.89616 0.64025,-28.78253 1.43001,-28.78253c0.78978,0 1.43001,12.88638 1.43001,28.78253"/><path d="M238.69528,33.73856c0,-16.72981 0.64025,-30.29199 1.43001,-30.29199c0.78978,0 1.43001,13.5622 1.43001,30.29199"/><path d="M238.7309,32.2291c0,-15.89616 0.6243,-28.78253 1.39439,-28.78253c0.7701,0 1.39439,12.88638 1.39439,28.78253"/><path d="M238.76545,32.13421c0,-15.89616 0.60882,-28.78253 1.35983,-28.78253c0.75102,0 1.35983,12.88638 1.35983,28.78253"/><path d="M238.79628,33.5793c0,-16.72981 0.59501,-30.29199 1.32901,-30.29199c0.734,0 1.32901,13.56218 1.32901,30.29199"/><path d="M238.82939,32.06983c0,-15.89616 0.5802,-28.78253 1.29591,-28.78253c0.71571,0 1.29591,12.88638 1.29591,28.78253"/><path d="M238.8615,31.97502c0,-15.89616 0.56583,-28.78253 1.26379,-28.78253c0.69797,0 1.26379,12.88638 1.26379,28.78253"/><path d="M238.8615,33.62671c0,-16.72981 0.56583,-30.29199 1.26379,-30.29199c0.69797,0 1.26379,13.56218 1.26379,30.29199"/><path d="M238.89299,32.1173c0,-15.89616 0.55172,-28.78253 1.2323,-28.78253c0.68059,0 1.2323,12.88638 1.2323,28.78253"/><path d="M238.92351,32.02244c0,-15.89616 0.53805,-28.78253 1.20177,-28.78253c0.66372,0 1.20177,12.88638 1.20177,28.78253"/><path d="M238.19688,33.69109c0,-16.72981 0.86358,-30.29199 1.92886,-30.29199c1.06529,0 1.92886,13.5622 1.92886,30.29199"/><path d="M238.24493,32.18169c0,-15.89616 0.84207,-28.78253 1.88081,-28.78253c1.03874,0 1.88081,12.88638 1.88081,28.78253"/><path d="M238.29153,32.08682c0,-15.89616 0.82121,-28.78253 1.83422,-28.78253c1.01301,0 1.83422,12.88638 1.83422,28.78253"/><path d="M238.29153,33.73856c0,-16.72981 0.82121,-30.29199 1.83422,-30.29199c1.01301,0 1.83422,13.5622 1.83422,30.29199"/><path d="M238.33724,32.2291c0,-15.89616 0.80074,-28.78253 1.7885,-28.78253c0.98776,0 1.7885,12.88638 1.7885,28.78253"/><path d="M238.38155,32.13421c0,-15.89616 0.7809,-28.78253 1.74419,-28.78253c0.96329,0 1.74419,12.88638 1.74419,28.78253"/><path d="M238.42109,33.5793c0,-16.72981 0.7632,-30.29199 1.70466,-30.29199c0.94145,0 1.70466,13.56218 1.70466,30.29199"/><path d="M238.46356,32.06983c0,-15.89616 0.74419,-28.78253 1.66219,-28.78253c0.918,0 1.66219,12.88638 1.66219,28.78253"/><path d="M238.50474,31.97502c0,-15.89616 0.72574,-28.78253 1.621,-28.78253c0.89526,0 1.621,12.88638 1.621,28.78253"/><path d="M238.50474,33.62671c0,-16.72981 0.72574,-30.29199 1.621,-30.29199c0.89526,0 1.621,13.56218 1.621,30.29199"/><path d="M238.54513,32.1173c0,-15.89616 0.70768,-28.78253 1.58062,-28.78253c0.87295,0 1.58062,12.88638 1.58062,28.78253"/><path d="M238.58428,32.02244c0,-15.89616 0.69014,-28.78253 1.54146,-28.78253c0.85132,0 1.54146,12.88638 1.54146,28.78253"/><path d="M238.22173,33.69109c0,-16.72981 0.8522,-30.29199 1.90344,-30.29199c1.05124,0 1.90344,13.5622 1.90344,30.29199"/><path d="M238.26916,32.18169c0,-15.89616 0.83097,-28.78253 1.85601,-28.78253c1.02504,0 1.85601,12.88638 1.85601,28.78253"/><path d="M238.31515,32.08682c0,-15.89616 0.81037,-28.78253 1.81002,-28.78253c0.99965,0 1.81002,12.88638 1.81002,28.78253"/><path d="M238.31515,33.73856c0,-16.72981 0.81037,-30.29199 1.81002,-30.29199c0.99965,0 1.81002,13.5622 1.81002,30.29199"/><path d="M238.36024,32.2291c0,-15.89616 0.79018,-28.78253 1.76493,-28.78253c0.97475,0 1.76493,12.88638 1.76493,28.78253"/><path d="M238.40397,32.7792c0,-15.89616 0.77104,-28.78253 1.72218,-28.78253c0.95113,0 1.72218,12.88638 1.72218,28.78253"/><path d="M238.44298,33.5793c0,-16.72981 0.75314,-30.29199 1.68219,-30.29199c0.92905,0 1.68219,13.56218 1.68219,30.29199"/><path d="M238.4849,32.06983c0,-15.89616 0.73438,-28.78253 1.64027,-28.78253c0.9059,0 1.64027,12.88638 1.64027,28.78253"/><path d="M238.52554,31.97502c0,-15.89616 0.71617,-28.78253 1.59962,-28.78253c0.88345,0 1.59962,12.88638 1.59962,28.78253"/><path d="M238.52554,33.62671c0,-16.72981 0.71617,-30.29199 1.59962,-30.29199c0.88345,0 1.59962,13.56218 1.59962,30.29199"/><path d="M238.56539,32.1173c0,-15.89616 0.69833,-28.78253 1.55978,-28.78253c0.86145,0 1.55978,12.88638 1.55978,28.78253"/><path d="M238.60403,32.02244c0,-15.89616 0.68104,-28.78253 1.52114,-28.78253c0.8401,0 1.52114,12.88638 1.52114,28.78253"/><path d="M238.40008,32.16011c0,-15.89616 0.77104,-28.78253 1.72218,-28.78253c0.95113,0 1.72218,12.88638 1.72218,28.78253"/><path d="M239.18736,33.69109c0,-16.72981 0.42508,-30.29199 0.94947,-30.29199c0.52437,0 0.94947,13.5622 0.94947,30.29199"/><path d="M239.21101,32.18169c0,-15.89616 0.41451,-28.78253 0.9258,-28.78253c0.51131,0 0.9258,12.88638 0.9258,28.78253"/><path d="M239.23396,32.08682c0,-15.89616 0.40423,-28.78253 0.90287,-28.78253c0.49864,0 0.90287,12.88638 0.90287,28.78253"/><path d="M239.23396,33.73856c0,-16.72981 0.40423,-30.29199 0.90287,-30.29199c0.49864,0 0.90287,13.5622 0.90287,30.29199"/><path d="M239.25646,32.2291c0,-15.89616 0.39415,-28.78253 0.88038,-28.78253c0.48622,0 0.88038,12.88638 0.88038,28.78253"/><path d="M239.27826,32.13421c0,-15.89616 0.38439,-28.78253 0.85857,-28.78253c0.47417,0 0.85857,12.88638 0.85857,28.78253"/><path d="M239.29772,33.5793c0,-16.72981 0.37567,-30.29199 0.83909,-30.29199c0.46342,0 0.83909,13.56218 0.83909,30.29199"/><path d="M239.31864,32.06983c0,-15.89616 0.36633,-28.78253 0.8182,-28.78253c0.45187,0 0.8182,12.88638 0.8182,28.78253"/><path d="M239.33891,31.97502c0,-15.89616 0.35724,-28.78253 0.79792,-28.78253c0.44068,0 0.79792,12.88638 0.79792,28.78253"/><path d="M239.33891,33.62671c0,-16.72981 0.35724,-30.29199 0.79792,-30.29199c0.44068,0 0.79792,13.56218 0.79792,30.29199"/><path d="M239.35878,32.1173c0,-15.89616 0.34834,-28.78253 0.77805,-28.78253c0.42971,0 0.77805,12.88638 0.77805,28.78253"/><path d="M239.37806,32.02244c0,-15.89616 0.33972,-28.78253 0.75877,-28.78253c0.41905,0 0.75877,12.88638 0.75877,28.78253"/><path d="M239.1996,33.69109c0,-16.72981 0.41948,-30.29199 0.93696,-30.29199c0.51746,0 0.93694,13.5622 0.93694,30.29199"/><path d="M239.22295,32.18169c0,-15.89616 0.40903,-28.78253 0.9136,-28.78253c0.50456,0 0.9136,12.88638 0.9136,28.78253"/><path d="M239.24557,32.08682c0,-15.89616 0.39891,-28.78253 0.89097,-28.78253c0.49206,0 0.89097,12.88638 0.89097,28.78253"/><path d="M239.24557,33.73856c0,-16.72981 0.39891,-30.29199 0.89097,-30.29199c0.49206,0 0.89097,13.5622 0.89097,30.29199"/><path d="M239.26778,32.2291c0,-15.89616 0.38897,-28.78253 0.86878,-28.78253c0.47981,0 0.86876,12.88638 0.86876,28.78253"/><path d="M239.28931,32.13421c0,-15.89616 0.37932,-28.78253 0.84724,-28.78253c0.46792,0 0.84724,12.88638 0.84724,28.78253"/><path d="M239.30851,33.5793c0,-16.72981 0.37073,-30.29199 0.82804,-30.29199c0.45731,0 0.82804,13.56218 0.82804,30.29199"/><path d="M239.32913,32.06983c0,-15.89616 0.36148,-28.78253 0.80741,-28.78253c0.44592,0 0.80741,12.88638 0.80741,28.78253"/><path d="M239.34915,31.97502c0,-15.89616 0.35253,-28.78253 0.7874,-28.78253c0.43488,0 0.7874,12.88638 0.7874,28.78253"/><path d="M239.34915,33.62671c0,-16.72981 0.35253,-30.29199 0.7874,-30.29199c0.43488,0 0.7874,13.56218 0.7874,30.29199"/><path d="M239.36877,32.1173c0,-15.89616 0.34375,-28.78253 0.76778,-28.78253c0.42403,0 0.76778,12.88638 0.76778,28.78253"/><path d="M239.38778,32.02244c0,-15.89616 0.33524,-28.78253 0.74877,-28.78253c0.41353,0 0.74877,12.88638 0.74877,28.78253"/><path d="M238.93506,33.69109c0,-16.72981 0.53805,-30.29199 1.20177,-30.29199c0.66372,0 1.20177,13.5622 1.20177,30.29199"/><path d="M238.965,32.18169c0,-15.89616 0.52464,-28.78253 1.17184,-28.78253c0.64718,0 1.17184,12.88638 1.17184,28.78253"/><path d="M238.99402,32.08682c0,-15.89616 0.51165,-28.78253 1.14279,-28.78253c0.63115,0 1.14279,12.88638 1.14279,28.78253"/><path d="M238.99402,33.73856c0,-16.72981 0.51165,-30.29199 1.14279,-30.29199c0.63115,0 1.14279,13.5622 1.14279,30.29199"/><path d="M239.0225,32.2291c0,-15.89616 0.4989,-28.78253 1.11433,-28.78253c0.61543,0 1.11433,12.88638 1.11433,28.78253"/><path d="M239.05011,32.13421c0,-15.89616 0.48654,-28.78253 1.08671,-28.78253c0.60018,0 1.08671,12.88638 1.08671,28.78253"/><path d="M239.07475,33.5793c0,-16.72981 0.47552,-30.29199 1.06209,-30.29199c0.58657,0 1.06209,13.56218 1.06209,30.29199"/><path d="M239.1012,32.06983c0,-15.89616 0.46366,-28.78253 1.03562,-28.78253c0.57196,0 1.03562,12.88638 1.03562,28.78253"/><path d="M239.12686,31.97502c0,-15.89616 0.45217,-28.78253 1.00997,-28.78253c0.55778,0 1.00997,12.88638 1.00997,28.78253"/><path d="M239.12686,33.62671c0,-16.72981 0.45217,-30.29199 1.00997,-30.29199c0.55778,0 1.00997,13.56218 1.00997,30.29199"/><path d="M239.15203,32.1173c0,-15.89616 0.44091,-28.78253 0.9848,-28.78253c0.54389,0 0.9848,12.88638 0.9848,28.78253"/><path d="M239.17643,32.02244c0,-15.89616 0.42998,-28.78253 0.9604,-28.78253c0.53042,0 0.9604,12.88638 0.9604,28.78253"/><path d="M238.95055,33.69109c0,-16.72981 0.53096,-30.29199 1.18593,-30.29199c0.65497,0 1.18593,13.5622 1.18593,30.29199"/><path d="M238.98009,32.18169c0,-15.89616 0.51773,-28.78253 1.15638,-28.78253c0.63865,0 1.15638,12.88638 1.15638,28.78253"/><path d="M239.00874,32.08682c0,-15.89616 0.5049,-28.78253 1.12774,-28.78253c0.62282,0 1.12774,12.88638 1.12774,28.78253"/><path d="M239.00874,33.73856c0,-16.72981 0.5049,-30.29199 1.12774,-30.29199c0.62282,0 1.12774,13.5622 1.12774,30.29199"/><path d="M239.03684,32.2291c0,-15.89616 0.49232,-28.78253 1.09964,-28.78253c0.6073,0 1.09964,12.88638 1.09964,28.78253"/><path d="M239.06408,32.7792c0,-15.89616 0.4804,-28.78253 1.073,-28.78253c0.5926,0 1.073,12.88638 1.073,28.78253"/><path d="M239.08838,33.5793c0,-16.72981 0.46925,-30.29199 1.04808,-30.29199c0.57884,0 1.04808,13.56218 1.04808,30.29199"/><path d="M239.11449,32.06983c0,-15.89616 0.45755,-28.78253 1.02197,-28.78253c0.56442,0 1.02197,12.88638 1.02197,28.78253"/><path d="M239.13982,31.97502c0,-15.89616 0.44621,-28.78253 0.99664,-28.78253c0.55044,0 0.99664,12.88638 0.99664,28.78253"/><path d="M239.13982,33.62671c0,-16.72981 0.44621,-30.29199 0.99664,-30.29199c0.55044,0 0.99664,13.56218 0.99664,30.29199"/><path d="M239.16466,32.1173c0,-15.89616 0.4351,-28.78253 0.97181,-28.78253c0.53672,0 0.97181,12.88638 0.97181,28.78253"/><path d="M239.18874,32.02244c0,-15.89616 0.42432,-28.78253 0.94774,-28.78253c0.52343,0 0.94774,12.88638 0.94774,28.78253"/><path d="M239.06166,32.16011c0,-15.89616 0.4804,-28.78253 1.073,-28.78253c0.5926,0 1.073,12.88638 1.073,28.78253"/><path d="M239.59248,32.02244c0,-15.89616 0.33129,-28.78253 0.73997,-28.78253c0.40867,0 0.73997,12.88638 0.73997,28.78253"/><path d="M239.5834,32.1173c0,-15.89616 0.33524,-28.78253 0.74877,-28.78253c0.41353,0 0.74877,12.88638 0.74877,28.78253"/><path d="M239.60195,32.02244c0,-15.89616 0.32693,-28.78253 0.73021,-28.78253c0.40329,0 0.73021,12.88638 0.73021,28.78253"/><path d="M239.76385,33.69109c0,-16.72981 0.25829,-30.29199 0.5769,-30.29199c0.31861,0 0.5769,13.5622 0.5769,30.29199"/><path d="M239.77822,32.18169c0,-15.89616 0.25186,-28.78253 0.56253,-28.78253c0.31068,0 0.56253,12.88638 0.56253,28.78253"/><path d="M239.79215,32.08682c0,-15.89616 0.24562,-28.78253 0.5486,-28.78253c0.30298,0 0.5486,12.88638 0.5486,28.78253"/><path d="M239.79215,33.73856c0,-16.72981 0.24562,-30.29199 0.5486,-30.29199c0.30298,0 0.5486,13.5622 0.5486,30.29199"/><path d="M239.80582,32.2291c0,-15.89616 0.23949,-28.78253 0.53493,-28.78253c0.29543,0 0.53493,12.88638 0.53493,28.78253"/><path d="M239.81908,32.13421c0,-15.89616 0.23357,-28.78253 0.52167,-28.78253c0.28811,0 0.52167,12.88638 0.52167,28.78253"/><path d="M239.83089,33.5793c0,-16.72981 0.22827,-30.29199 0.50984,-30.29199c0.28159,0 0.50984,13.56218 0.50984,30.29199"/><path d="M239.8436,32.06983c0,-15.89616 0.22257,-28.78253 0.49714,-28.78253c0.27456,0 0.49714,12.88638 0.49714,28.78253"/><path d="M239.85592,31.97502c0,-15.89616 0.21707,-28.78253 0.48483,-28.78253c0.26776,0 0.48483,12.88638 0.48483,28.78253"/><path d="M239.85592,33.62671c0,-16.72981 0.21707,-30.29199 0.48483,-30.29199c0.26776,0 0.48483,13.56218 0.48483,30.29199"/><path d="M239.868,32.1173c0,-15.89616 0.21166,-28.78253 0.47275,-28.78253c0.26109,0 0.47275,12.88638 0.47275,28.78253"/><path d="M239.87971,32.02244c0,-15.89616 0.20641,-28.78253 0.46104,-28.78253c0.25462,0 0.46104,12.88638 0.46104,28.78253"/><path d="M239.77127,33.69109c0,-16.72981 0.25488,-30.29199 0.5693,-30.29199c0.31442,0 0.5693,13.5622 0.5693,30.29199"/><path d="M239.78547,32.18169c0,-15.89616 0.24853,-28.78253 0.55511,-28.78253c0.30658,0 0.55511,12.88638 0.55511,28.78253"/><path d="M239.79921,32.08682c0,-15.89616 0.24238,-28.78253 0.54136,-28.78253c0.29898,0 0.54136,12.88638 0.54136,28.78253"/><path d="M239.79921,33.73856c0,-16.72981 0.24238,-30.29199 0.54136,-30.29199c0.29898,0 0.54136,13.5622 0.54136,30.29199"/><path d="M239.8127,32.2291c0,-15.89616 0.23634,-28.78253 0.52787,-28.78253c0.29154,0 0.52787,12.88638 0.52787,28.78253"/><path d="M239.82579,32.13421c0,-15.89616 0.23048,-28.78253 0.5148,-28.78253c0.28432,0 0.51479,12.88638 0.51479,28.78253"/><path d="M239.83745,33.5793c0,-16.72981 0.22526,-30.29199 0.50312,-30.29199c0.27787,0 0.50312,13.56218 0.50312,30.29199"/><path d="M239.84998,32.06983c0,-15.89616 0.21965,-28.78253 0.49059,-28.78253c0.27095,0 0.49059,12.88638 0.49059,28.78253"/><path d="M239.86214,31.97502c0,-15.89616 0.21421,-28.78253 0.47843,-28.78253c0.26424,0 0.47843,12.88638 0.47843,28.78253"/><path d="M239.86214,33.62671c0,-16.72981 0.21421,-30.29199 0.47843,-30.29199c0.26424,0 0.47843,13.56218 0.47843,30.29199"/><path d="M239.87406,32.1173c0,-15.89616 0.20886,-28.78253 0.46651,-28.78253c0.25765,0 0.46651,12.88638 0.46651,28.78253"/><path d="M239.88562,32.02244c0,-15.89616 0.20369,-28.78253 0.45496,-28.78253c0.25126,0 0.45496,12.88638 0.45496,28.78253"/><path d="M239.61054,33.69109c0,-16.72981 0.32693,-30.29199 0.73021,-30.29199c0.40329,0 0.73021,13.5622 0.73021,30.29199"/><path d="M239.62874,32.18169c0,-15.89616 0.31877,-28.78253 0.71201,-28.78253c0.39324,0 0.71201,12.88638 0.71201,28.78253"/><path d="M239.64637,32.08682c0,-15.89616 0.31088,-28.78253 0.69438,-28.78253c0.3835,0 0.69438,12.88638 0.69438,28.78253"/><path d="M239.64637,33.73856c0,-16.72981 0.31088,-30.29199 0.69438,-30.29199c0.3835,0 0.69438,13.5622 0.69438,30.29199"/><path d="M239.66367,32.2291c0,-15.89616 0.30314,-28.78253 0.67708,-28.78253c0.37394,0 0.67708,12.88638 0.67708,28.78253"/><path d="M239.68045,32.13421c0,-15.89616 0.29564,-28.78253 0.6603,-28.78253c0.36468,0 0.6603,12.88638 0.6603,28.78253"/><path d="M239.69541,33.5793c0,-16.72981 0.28893,-30.29199 0.64534,-30.29199c0.35641,0 0.64534,13.56218 0.64534,30.29199"/><path d="M239.71149,32.06983c0,-15.89616 0.28173,-28.78253 0.62926,-28.78253c0.34753,0 0.62926,12.88638 0.62926,28.78253"/><path d="M239.72708,31.97502c0,-15.89616 0.27475,-28.78253 0.61367,-28.78253c0.33892,0 0.61367,12.88638 0.61367,28.78253"/><path d="M239.72708,33.62671c0,-16.72981 0.27475,-30.29199 0.61367,-30.29199c0.33892,0 0.61367,13.56218 0.61367,30.29199"/><path d="M239.74238,32.1173c0,-15.89616 0.26791,-28.78253 0.59837,-28.78253c0.33047,0 0.59837,12.88638 0.59837,28.78253"/><path d="M239.75719,32.02244c0,-15.89616 0.26127,-28.78253 0.58354,-28.78253c0.32229,0 0.58354,12.88638 0.58354,28.78253"/><path d="M239.61995,33.69109c0,-16.72981 0.32261,-30.29199 0.72059,-30.29199c0.39796,0 0.72059,13.5622 0.72059,30.29199"/><path d="M239.6379,32.18169c0,-15.89616 0.31458,-28.78253 0.70264,-28.78253c0.38806,0 0.70264,12.88638 0.70264,28.78253"/><path d="M239.65531,32.08682c0,-15.89616 0.30679,-28.78253 0.68521,-28.78253c0.37844,0 0.68521,12.88638 0.68521,28.78253"/><path d="M239.65531,33.73856c0,-16.72981 0.30679,-30.29199 0.68521,-30.29199c0.37844,0 0.68521,13.5622 0.68521,30.29199"/><path d="M239.67239,32.2291c0,-15.89616 0.29914,-28.78253 0.66816,-28.78253c0.369,0 0.66816,12.88638 0.66816,28.78253"/><path d="M239.68893,32.7792c0,-15.89616 0.29189,-28.78253 0.65196,-28.78253c0.36007,0 0.65196,12.88638 0.65196,28.78253"/><path d="M239.7037,33.5793c0,-16.72981 0.28512,-30.29199 0.63683,-30.29199c0.3517,0 0.63683,13.56218 0.63683,30.29199"/><path d="M239.71957,32.06983c0,-15.89616 0.27802,-28.78253 0.62097,-28.78253c0.34295,0 0.62097,12.88638 0.62097,28.78253"/><path d="M239.73495,31.97502c0,-15.89616 0.27112,-28.78253 0.60558,-28.78253c0.33445,0 0.60558,12.88638 0.60558,28.78253"/><path d="M239.73495,33.62671c0,-16.72981 0.27112,-30.29199 0.60558,-30.29199c0.33445,0 0.60558,13.56218 0.60558,30.29199"/><path d="M239.75004,32.1173c0,-15.89616 0.26437,-28.78253 0.59049,-28.78253c0.32612,0 0.59049,12.88638 0.59049,28.78253"/><path d="M239.76468,32.02244c0,-15.89616 0.25782,-28.78253 0.57586,-28.78253c0.31804,0 0.57586,12.88638 0.57586,28.78253"/><path d="M239.68746,32.16011c0,-15.89616 0.29189,-28.78253 0.65196,-28.78253c0.36007,0 0.65196,12.88638 0.65196,28.78253"/><path d="M239.98551,33.69109c0,-16.72981 0.16092,-30.29199 0.35945,-30.29199c0.19851,0 0.35945,13.5622 0.35945,30.29199"/><path d="M239.99446,32.18169c0,-15.89616 0.15692,-28.78253 0.35049,-28.78253c0.19356,0 0.35049,12.88638 0.35049,28.78253"/><path d="M240.00314,32.08682c0,-15.89616 0.15303,-28.78253 0.3418,-28.78253c0.18876,0 0.3418,12.88638 0.3418,28.78253"/><path d="M240.00314,33.73856c0,-16.72981 0.15303,-30.29199 0.3418,-30.29199c0.18876,0 0.3418,13.5622 0.3418,30.29199"/><path d="M240.01166,32.2291c0,-15.89616 0.14923,-28.78253 0.33329,-28.78253c0.18406,0 0.33329,12.88638 0.33329,28.78253"/><path d="M240.01991,32.13421c0,-15.89616 0.14551,-28.78253 0.32503,-28.78253c0.17952,0 0.32503,12.88638 0.32503,28.78253"/><path d="M240.02729,33.5793c0,-16.72981 0.14222,-30.29199 0.31765,-30.29199c0.17544,0 0.31765,13.56218 0.31765,30.29199"/><path d="M240.03519,32.06983c0,-15.89616 0.13868,-28.78253 0.30975,-28.78253c0.17107,0 0.30975,12.88638 0.30975,28.78253"/><path d="M240.04287,31.97502c0,-15.89616 0.13524,-28.78253 0.30207,-28.78253c0.16683,0 0.30207,12.88638 0.30207,28.78253"/><path d="M240.04287,33.62671c0,-16.72981 0.13524,-30.29199 0.30207,-30.29199c0.16683,0 0.30207,13.56218 0.30207,30.29199"/><path d="M240.0504,32.1173c0,-15.89616 0.13186,-28.78253 0.29455,-28.78253c0.16267,0 0.29455,12.88638 0.29455,28.78253"/><path d="M240.05769,32.02244c0,-15.89616 0.1286,-28.78253 0.28725,-28.78253c0.15865,0 0.28725,12.88638 0.28725,28.78253"/><path d="M239.99014,33.69109c0,-16.72981 0.15881,-30.29199 0.3547,-30.29199c0.1959,0 0.3547,13.5622 0.3547,30.29199"/><path d="M239.99897,32.18169c0,-15.89616 0.15484,-28.78253 0.34586,-28.78253c0.19102,0 0.34586,12.88638 0.34586,28.78253"/><path d="M240.00754,32.08682c0,-15.89616 0.15102,-28.78253 0.33729,-28.78253c0.18628,0 0.33729,12.88638 0.33729,28.78253"/><path d="M240.00754,33.73856c0,-16.72981 0.15102,-30.29199 0.33729,-30.29199c0.18628,0 0.33729,13.5622 0.33729,30.29199"/><path d="M240.01595,32.2291c0,-15.89616 0.14724,-28.78253 0.32889,-28.78253c0.18164,0 0.32889,12.88638 0.32889,28.78253"/><path d="M240.02409,32.13421c0,-15.89616 0.14359,-28.78253 0.32074,-28.78253c0.17715,0 0.32074,12.88638 0.32074,28.78253"/><path d="M240.03137,33.5793c0,-16.72981 0.14035,-30.29199 0.31348,-30.29199c0.17313,0 0.31348,13.56218 0.31348,30.29199"/><path d="M240.03918,32.06983c0,-15.89616 0.13686,-28.78253 0.30567,-28.78253c0.16881,0 0.30567,12.88638 0.30567,28.78253"/><path d="M240.04675,31.97502c0,-15.89616 0.13346,-28.78253 0.29808,-28.78253c0.16463,0 0.29808,12.88638 0.29808,28.78253"/><path d="M240.04675,33.62671c0,-16.72981 0.13346,-30.29199 0.29808,-30.29199c0.16463,0 0.29808,13.56218 0.29808,30.29199"/><path d="M240.05417,32.1173c0,-15.89616 0.13014,-28.78253 0.29066,-28.78253c0.16052,0 0.29066,12.88638 0.29066,28.78253"/><path d="M240.06137,32.02244c0,-15.89616 0.1269,-28.78253 0.28346,-28.78253c0.15655,0 0.28346,12.88638 0.28346,28.78253"/><path d="M239.88998,33.69109c0,-16.72981 0.20369,-30.29199 0.45496,-30.29199c0.25126,0 0.45496,13.5622 0.45496,30.29199"/><path d="M239.90133,32.18169c0,-15.89616 0.19862,-28.78253 0.44361,-28.78253c0.24501,0 0.44361,12.88638 0.44361,28.78253"/><path d="M239.91232,32.08682c0,-15.89616 0.19369,-28.78253 0.43264,-28.78253c0.23893,0 0.43264,12.88638 0.43264,28.78253"/><path d="M239.91232,33.73856c0,-16.72981 0.19369,-30.29199 0.43264,-30.29199c0.23893,0 0.43264,13.5622 0.43264,30.29199"/><path d="M239.92309,32.2291c0,-15.89616 0.18886,-28.78253 0.42185,-28.78253c0.23298,0 0.42185,12.88638 0.42185,28.78253"/><path d="M239.93354,32.13421c0,-15.89616 0.18419,-28.78253 0.4114,-28.78253c0.22721,0 0.4114,12.88638 0.4114,28.78253"/><path d="M239.94287,33.5793c0,-16.72981 0.18001,-30.29199 0.40207,-30.29199c0.22206,0 0.40207,13.56218 0.40207,30.29199"/><path d="M239.95288,32.06983c0,-15.89616 0.17553,-28.78253 0.39206,-28.78253c0.21653,0 0.39206,12.88638 0.39206,28.78253"/><path d="M239.9626,31.97502c0,-15.89616 0.17118,-28.78253 0.38234,-28.78253c0.21117,0 0.38234,12.88638 0.38234,28.78253"/><path d="M239.9626,33.62671c0,-16.72981 0.17118,-30.29199 0.38234,-30.29199c0.21117,0 0.38234,13.56218 0.38234,30.29199"/><path d="M239.97213,32.1173c0,-15.89616 0.16692,-28.78253 0.37282,-28.78253c0.2059,0 0.37282,12.88638 0.37282,28.78253"/><path d="M239.98137,32.02244c0,-15.89616 0.16278,-28.78253 0.36358,-28.78253c0.2008,0 0.36358,12.88638 0.36358,28.78253"/><path d="M239.89586,33.69109c0,-16.72981 0.20101,-30.29199 0.44896,-30.29199c0.24795,0 0.44896,13.5622 0.44896,30.29199"/><path d="M239.90704,32.18169c0,-15.89616 0.196,-28.78253 0.43777,-28.78253c0.24178,0 0.43777,12.88638 0.43777,28.78253"/><path d="M239.91789,32.08682c0,-15.89616 0.19115,-28.78253 0.42692,-28.78253c0.23579,0 0.42692,12.88638 0.42692,28.78253"/><path d="M239.91789,33.73856c0,-16.72981 0.19115,-30.29199 0.42692,-30.29199c0.23579,0 0.42692,13.5622 0.42692,30.29199"/><path d="M239.92852,32.2291c0,-15.89616 0.18638,-28.78253 0.41628,-28.78253c0.2299,0 0.41628,12.88638 0.41628,28.78253"/><path d="M239.93884,32.7792c0,-15.89616 0.18187,-28.78253 0.4062,-28.78253c0.22433,0 0.4062,12.88638 0.4062,28.78253"/><path d="M239.94804,33.5793c0,-16.72981 0.17764,-30.29199 0.39678,-30.29199c0.21913,0 0.39678,13.56218 0.39678,30.29199"/><path d="M239.95793,32.06983c0,-15.89616 0.17321,-28.78253 0.38689,-28.78253c0.21368,0 0.38689,12.88638 0.38689,28.78253"/><path d="M239.96751,31.97502c0,-15.89616 0.16892,-28.78253 0.3773,-28.78253c0.20838,0 0.3773,12.88638 0.3773,28.78253"/><path d="M239.96751,33.62671c0,-16.72981 0.16892,-30.29199 0.3773,-30.29199c0.20838,0 0.3773,13.56218 0.3773,30.29199"/><path d="M239.9769,32.1173c0,-15.89616 0.16471,-28.78253 0.3679,-28.78253c0.20318,0 0.3679,12.88638 0.3679,28.78253"/><path d="M239.98602,32.02244c0,-15.89616 0.16063,-28.78253 0.35879,-28.78253c0.19816,0 0.35879,12.88638 0.35879,28.78253"/><path d="M239.93791,32.16011c0,-15.89616 0.18187,-28.78253 0.4062,-28.78253c0.22433,0 0.4062,12.88638 0.4062,28.78253"/></g></g><path d="M276.90967,91.46402c6.59013,1.4899 14.84154,6.87577 15.0858,13.55026c0.3601,9.83977 0.04932,64.44104 -0.09044,86.0311c-0.01792,2.76897 -3.3561,2.99794 -7.11934,2.9456c-3.63486,-0.05056 -7.69858,-0.28822 -7.75167,-2.94912c-0.43714,-21.91405 -1.63388,-77.20695 -2.58031,-77.2069c-1.05573,0.00006 -3.5,86.00018 -3.5,86.00018c0,0 1.03374,14.14399 1.05033,21.0979c0.01622,6.79996 -0.95188,20.17404 -0.95188,20.17404c0,0 1.42291,37.43389 2.31757,62.86436c-0.40439,23.68548 -4.26066,62.88216 -4.26066,62.88216l-17.41927,-0.05274c0,0 -3.02554,-57.66245 -3.06038,-63.22579c-0.16261,-25.96306 -1.22789,-62.46526 -8.55506,-62.46517c-7.32718,0.00009 -6.19054,36.93773 -8.27258,62.79021c-0.12371,1.53608 -4.02043,63.20038 -4.02043,63.20038l-17.20026,0.08002c0,0 -3.12088,-62.6023 -3.10668,-63.86951c0.32716,-29.18584 2,-62.19847 2,-62.19847c0,0 -0.80654,-13.04944 -0.80992,-19.77965c-0.00351,-7.01582 0.78923,-21.49404 0.78923,-21.49404c0,0 -2.07264,-83.74993 -3.25002,-83.7499c-0.74742,0.00002 -1.90647,54.00082 -2.33415,75.27872c-0.05333,2.65314 -3.89893,2.39558 -7.66419,2.29575c-3.64364,-0.0966 -7.21204,0.04632 -7.19585,-2.29714c0.15484,-22.41304 0.56649,-81.86846 0.60881,-86.62103c0.05351,-6.00868 7.32139,-10.3153 14.29421,-12.82917c0.47167,-0.17005 2.45445,22.48809 35.78904,21.97857c33.38252,-0.3644 36.92315,-22.49503 37.2081,-22.43062z" fill="#ffffff" stroke-width="0.5" stroke-linecap="round"/></g></g></svg>