<svg version="1.1" xmlns="http://www.w3.org/2000/svg" xmlns:xlink="http://www.w3.org/1999/xlink" width="1021.02102" height="701.2012" viewBox="0,0,1021.02102,701.2012"><g transform="translate(270.51051,170.6006)"><g stroke-miterlimit="10"><path d="M-270.51051,530.6006v-701.2012h1021.02102v701.2012z" fill-opacity="0.50196" fill="#ffffff" stroke="#000000" stroke-width="0" stroke-linecap="butt"/><path d="M95,360v-265.5h290v265.5z" fill="#fcb1e3" stroke="#000000" stroke-width="5" stroke-linecap="butt"/><g fill="#000000" stroke="#000000" stroke-width="0" stroke-linecap="butt"><path d="M121.60552,300.676v-38.5h236.78896v38.5zM144.28174,272.27415l-1.27802,3.1462c0,2.89779 -0.04302,5.73885 -0.16471,8.58276c-0.41989,-1.56459 -0.92831,-3.10399 -1.66515,-4.57757c-0.7445,-1.48888 -1.59722,-2.91904 -2.46445,-4.34154l-0.35943,-2.51602c-0.15585,-1.23096 -1.2068,-2.18284 -2.48007,-2.18284c-1.22888,0 -2.25067,0.88666 -2.46053,2.05513l-0.47567,2.37835c-1.89523,5.88105 -0.96359,12.08313 -2.9848,18.06471c0,0 -0.79057,2.3717 1.58114,3.16227c2.37171,0.79057 3.16228,-1.58113 3.16228,-1.58113c1.08159,-3.2833 1.83287,-6.72617 2.14429,-10.17804c0.06995,-0.77537 0.09882,-1.46096 0.11567,-2.09679c1.88072,4.14495 2.24441,8.81418 4.03194,13.00497l0.63586,0.27718l-0.15158,0.2021l2.00797,1.50597c0.42123,0.32311 0.9483,0.51515 1.52021,0.51515c1.38071,0 2.5,-1.11929 2.5,-2.5v-2.53521h-0.30859c0.94063,-5.66611 0.81563,-11.38506 0.81563,-17.23946l0.75016,-0.91013c0,0 1.11804,-2.23607 -1.11803,-3.35411c-2.23607,-1.11804 -3.3541,1.11804 -3.3541,1.11804zM202.29251,289.14573h-1.01408c-2.0969,0 -4.20209,-0.17766 -6.29072,0.00851c-0.9628,0.08582 -1.94447,0.16475 -2.86703,0.45007c0.28288,-0.89566 -0.00423,-2.24317 -0.00423,-2.52197c0,-1.70188 0,-3.40376 0,-5.10564c1.78807,0 4.0559,0 5.61268,0c0,0 2.5,0 2.5,-2.5c0,-2.5 -2.5,-2.5 -2.5,-2.5c-1.53286,0 -4.07982,0 -5.61268,0c0,-0.93691 0,-1.87383 0,-2.81074c2.97377,0.84176 5.98753,1.20744 9.16198,1.21918h2.02817c0,0 2.5,0 2.5,-2.5c0,-2.5 -2.5,-2.5 -2.5,-2.5h-2.02817c-3.54875,0.01544 -6.92905,-0.50784 -10.22646,-1.84936c0,0 -1.82403,-0.72961 -2.88499,0.72163c-1.05053,0.70405 -1.05053,2.1066 -1.05053,2.1066c0,5.23944 0,10.47888 0,15.71832c0,1.49383 -0.14177,6 0.73223,6.83819c1.09869,1.05368 2.98751,0.68006 4.50918,0.72372c2.80689,0.08054 6.04678,-0.49852 8.92057,-0.49852h1.01408c0,0 2.5,0 2.5,-2.5c0,-2.5 -2.5,-2.5 -2.5,-2.5zM288.08668,272.67725l-2.65591,-1.22947c-4.29701,-0.84022 -13.73258,-2.60913 -15.09738,3.41956c-1.09557,4.83947 1.7323,4.88489 4.67303,6.73599c0.8191,0.5156 1.46264,1.32783 2.35901,1.69292c0.95213,0.38781 2.02986,0.32819 3.04226,0.50705c0.28966,0.05118 0.99969,0.48375 0.70858,0.52592c-4.32094,0.62604 -8.88518,1.5763 -13.3192,2.31531c0,0 -2.46598,0.411 -2.05498,2.87698c0.411,2.46598 2.87698,2.05499 2.87698,2.05499c4.18227,-0.69705 8.28058,-1.33811 12.34706,-2.57158c1.25334,-0.38017 2.99767,-0.12011 3.74223,-1.19762c2.92055,-4.22657 1.25651,-6.69761 -2.33368,-8.60085c-0.90834,-0.48152 -2.08499,-0.1321 -3.04225,-0.50704c-0.673,-0.2636 -1.06564,-0.99811 -1.69734,-1.34933c-0.73976,-0.41131 -1.6337,-0.49419 -2.36981,-0.91199c-0.08837,-0.05016 -0.11998,-0.79653 0.14535,-0.80984c0.47991,-0.02408 0.9375,0.23555 1.41718,0.26394c1.01232,0.05991 2.02817,0.00232 3.04226,0c1.53434,-0.0035 3.07718,0.14977 4.58013,0.4585l1.40043,0.7987c0,0 2.23607,1.11803 3.35411,-1.11804c1.11804,-2.23607 -1.11804,-3.3541 -1.11804,-3.3541zM214.24751,292.06716l0.78,-2.08746c0.86963,-0.87904 1.6386,-1.86612 2.2892,-2.93257c1.41871,0 3.29373,0 4.82446,0c0.02679,0.10817 0.05654,0.21447 0.08951,0.31874c0.1466,0.46358 2.92342,4.11172 3.41396,4.76577l0.93396,1.40788c0,0 1.38675,2.08013 3.46687,0.69338c2.08013,-1.38675 0.69338,-3.46688 0.69338,-3.46688l-1.09421,-1.63438c-0.85636,-1.14181 -2.29513,-1.96991 -2.67055,-3.34691c-0.68759,-2.522 0.36478,-6.0825 -0.50704,-8.61972c-0.17003,-0.4948 -2.90559,-4.08794 -3.41396,-4.76578c0,0 -0.99741,-1.32988 -2.45001,-1.00745c-0.27496,-0.19957 -0.63013,-0.35949 -1.08787,-0.45104c-2.45145,-0.49029 -2.94174,1.96116 -2.94174,1.96116c-0.25961,1.5407 -1.49743,2.76719 -1.94842,4.2631c-0.32339,1.07268 0.11497,2.25735 -0.08319,3.36005c-0.47761,2.65778 -1.82994,4.86449 -3.68855,6.70218l-1.24818,2.98296c0,0 -0.92847,2.32119 1.39272,3.24967c2.32119,0.92847 3.24966,-1.39272 3.24966,-1.39272zM245.65155,271.61065l0.28186,-0.75368c0,2.15505 0.48476,5.02835 0.04511,7.13287c-0.36237,1.73456 -1.21539,3.3478 -1.52528,5.09249c-0.18829,1.06006 -0.16217,3.20287 -1.19006,4.12486c-0.83934,0.75288 -2.59296,0.37038 -3.4495,0.4174c-0.64644,0.03548 -1.32334,0.50494 -1.92422,0.26393c-1.77158,-0.71058 -1.50486,-4.0987 -1.69258,-5.26299c-0.48745,-3.02341 -0.9818,-5.08035 -0.9818,-8.21927c0,0 0,-2.5 -2.5,-2.5c-2.5,0 -2.5,2.5 -2.5,2.5c0,3.32029 0.5003,5.83524 1.04636,9.02018c0.19342,1.12811 -0.25514,2.34299 0.09601,3.43237c0.34036,1.05592 1.21006,1.86317 1.89283,2.73761c0.7514,0.96232 1.29448,2.25275 2.4031,2.76423c1.26173,0.58213 2.77139,0.22154 4.16029,0.26394c2.41708,0.07378 4.64598,0.16237 6.69135,-1.61077c2.45256,-2.12614 2.3438,-4.21796 2.86629,-7.03008c0.32098,-1.72755 1.18353,-3.32317 1.51698,-5.04836c0.47369,-2.45074 0.04511,-5.57249 0.04511,-8.07841l-1.74632,-2.78186c0,0 -1.76777,-1.76776 -3.53554,0c-1.76776,1.76776 0,3.53554 0,3.53554zM334.66588,268.8288l0.03228,2.13475c-0.51889,1.50989 -0.28581,3.31459 -1.16843,4.645c-0.4741,0.71463 -1.64853,0.79725 -2.04938,1.5554c-0.61975,1.17215 -0.55963,2.59213 -0.82984,3.89021c-0.00425,0.02041 -0.4422,2.20928 -0.73894,3.69273c-0.3159,-0.44338 -0.63209,-0.82428 -0.81192,-1.0877c-2.25321,-3.30059 -2.62386,-8.63206 -2.61688,-12.80223c0,0 0,-2.5 -2.5,-2.5c-2.5,0 -2.5,2.5 -2.5,2.5c0.00552,3.65704 0.86609,6.65792 1.56624,10.10658c0.1893,0.93239 -0.22841,1.95408 0.08318,2.85302c0.62792,1.81156 2.1705,3.16492 3.14269,4.81745c0.85635,1.45563 0.89907,3.98422 2.53995,4.3839c1.78938,0.43585 3.61111,-1.24789 4.8886,-2.57448c2.27861,-2.36616 0.49593,-8.07241 2.04939,-10.68218c0.42585,-0.71542 1.58002,-0.77207 2.00696,-1.48685c1.15792,-1.9386 1.17681,-4.36212 1.87383,-6.50994l0.03229,-2.93567c0,0 0,-2.5 -2.5,-2.5c-2.5,0 -2.5,2.5 -2.5,2.5zM178.53073,270.44597l-0.46734,2.85062c-0.94135,2.81566 -1.69559,5.67039 -2.50923,8.52339c-0.39644,1.39011 -0.78052,2.7872 -1.05288,4.20684c-0.05188,0.27043 -0.05014,0.54649 -0.04434,0.82324c-0.01381,-0.09565 -0.04351,-0.18756 -0.09565,-0.27436c-0.43516,-0.72442 -1.50471,-0.85769 -2.02817,-1.52113c-1.07179,-1.35839 -1.07165,-3.29127 -1.66501,-4.91665c-1.0035,-2.7489 -1.48256,-5.44574 -2.56148,-8.18126c0,0 -0.92848,-2.32119 -3.24967,-1.39272c-2.32119,0.92847 -1.39272,3.24967 -1.39272,3.24967c1.80413,4.43451 2.01613,10.28729 4.90028,14.2824c0.49464,0.68518 1.48113,0.877 2.02817,1.52112c0.85452,1.00616 0.80021,3.18637 2.10993,3.3513c2.10455,0.26502 4.3012,-0.96676 5.91747,-2.34044c0.9228,-0.78429 0.65344,-2.33245 0.95937,-3.50423c1.10326,-4.22566 2.16037,-8.48155 3.53648,-12.62191l0.54675,-3.23388c0,0 0.41099,-2.46599 -2.05499,-2.87698c-2.46598,-0.411 -2.87698,2.05499 -2.87698,2.05499zM302.2989,283.39841c-0.2235,0.83144 -0.32707,3.36877 -1.29861,4.01495c-0.26278,0.17478 -4.60742,-0.08843 -4.75754,-0.54869c-0.19011,-0.5829 0.28359,-1.19875 0.3245,-1.81051c0.21248,-3.17752 0,-6.44823 0,-9.63381c0,0 0,-2.5 -2.5,-2.5c-2.5,0 -2.5,2.5 -2.5,2.5c0,3.19991 -0.14177,6.43748 0,9.63381c0.06331,1.42737 -0.43399,3.06319 0.3245,4.274c1.94696,3.10804 4.80899,2.8707 7.75297,2.78938c1.24173,-0.03431 2.68152,0.3936 3.71486,-0.29581c4.26477,-2.84535 3.55397,-8.36066 5.2085,-12.45763c0.80406,-1.99102 1.7832,-3.95446 2.16235,-6.06797l-4.77768,-2.27567c0,0 -2.37171,0.79057 -1.58114,3.16228c0.18146,0.54438 0.44622,0.92215 0.74648,1.18113c-0.82709,2.67505 -2.07324,5.2595 -2.81919,8.03453zM313.41863,277.46528l-0.54343,2.77916c-0.01379,4.30141 -0.64547,7.25975 -1.48474,11.41803c0,0 -0.49029,2.45145 1.96116,2.94174c2.45145,0.49029 2.94174,-1.96116 2.94174,-1.96116c0.83787,-4.23305 1.57361,-7.53543 1.55751,-11.90593l0.47066,-2.29127c0,0 0.49029,-2.45145 -1.96116,-2.94174c-2.45145,-0.49029 -2.94174,1.96116 -2.94174,1.96116zM152.63754,293.6739c0,0 0,2.5 2.5,2.5c2.5,0 2.5,-2.5 2.5,-2.5c0,-3.4339 -1.22892,-9.60866 1.02112,-12.19016l-2.50704,-4c0,0 -2.5,0 -2.5,2.5c0,0.09719 0.00377,0.1906 0.01104,0.28038c-1.79949,4.06801 -1.02512,8.85772 -1.02512,13.40977zM350.55996,288.54425l0.21231,0.04247l0.49692,-2.4846c0.03842,-0.17418 0.05867,-0.35518 0.05867,-0.54091c0,-1.36246 -1.0899,-2.47037 -2.4454,-2.49941c-0.71206,-0.50763 -1.57572,-0.50763 -1.57572,-0.50763l-0.42511,0.25243c-0.33094,-0.16168 -0.70289,-0.25243 -1.09602,-0.25243c-1.38071,0 -2.5,1.11929 -2.5,2.5v3.04226c0,0.26689 0.04182,0.524 0.11927,0.76515c-0.25524,0.71912 -0.35078,1.83234 0.88073,2.75597c0.09411,0.07058 0.18713,0.13343 0.27892,0.18909c0.23786,0.36199 0.55511,0.62129 1.00366,0.71069c4.00527,0.79823 4.97235,-1.44655 4.99177,-3.97308zM316.37712,271.83584c1.38071,0 2.5,-1.11929 2.5,-2.5c0,-1.38071 -1.11929,-2.5 -2.5,-2.5c-1.38071,0 -2.5,1.11929 -2.5,2.5c0,1.38071 1.11929,2.5 2.5,2.5zM157.67275,271.3288c1.38071,0 2.5,-1.11929 2.5,-2.5c0,-1.38071 -1.11929,-2.5 -2.5,-2.5c-1.38071,0 -2.5,1.11929 -2.5,2.5c0,1.38071 1.11929,2.5 2.5,2.5z"/><path d="M219.45164,281.4706c0.16431,-0.8936 -0.34279,-1.85376 -0.08318,-2.72445c0.1976,-0.66273 0.95661,-1.02141 1.32665,-1.60193c0.44666,0.47854 0.83504,0.98752 1.02853,1.60193c0.30367,0.96429 0.32652,2.11181 0.2891,3.30098c-0.89269,0 -1.78537,0 -2.67806,0c0.04245,-0.1913 0.08146,-0.38351 0.11695,-0.57653z"/><path d="M174.44656,287.59303c-0.0234,0.23933 -0.14694,0.94144 -0.16703,0.70181c-0.03233,-0.38564 0.15058,-0.80949 0.18238,-1.19547c0.00225,0.16518 0.00065,0.33008 -0.01534,0.49367z"/></g><g fill="#000000" stroke="#000000" stroke-width="0" stroke-linecap="butt"><path d="M121.60552,348.01735v-38.5h236.78896v38.5zM256.90769,316.93906c-4.07213,0.91666 -9.15245,4.37505 -10.50115,8.75948c-0.15987,0.51974 -0.13014,5.98677 -0.12829,6.87508c0.00355,1.69962 -0.1994,5.18801 0.97894,6.53221c3.30984,3.77571 6.91128,3.06639 11.15487,3.06639c0.79642,0 5.42994,0.03258 5.861,-0.12829c4.2517,-1.58666 3.53379,-5.05318 5.75711,-7.94959c0.55885,-0.72804 1.70438,-0.91156 2.1589,-1.70891c0.61527,-1.07933 0.58657,-2.41454 0.87985,-3.6218c0,-1.9694 0.26189,-5.15503 -0.79069,-7.00346c-2.6314,-4.62098 -7.3376,-4.36261 -11.838,-4.36261h-1.01409c0,0 -0.15143,0 -0.37975,0.03726c-0.89301,-0.7449 -2.13872,-0.49576 -2.13872,-0.49576zM321.79241,312.83417c-2.5,0 -2.5,2.5 -2.5,2.5c0,3.63835 0.14955,7.31353 0.00852,10.94874c-0.05565,1.43426 -0.90263,3.00079 -0.28525,4.29657c0.56487,1.18558 6.00781,4.09603 7.27277,4.42727c1.40046,0.36672 3.54011,-0.91524 4.33293,0.29604c0.85733,1.30986 1.07477,2.99258 1.98548,4.25961l0.41517,2.07583c0.20987,1.16847 1.23166,2.05513 2.46054,2.05513c1.25483,0 2.29374,-0.92451 2.47274,-2.12954l0.50029,-3.00172l-0.36286,-0.06048c0.89336,-2.27661 1.40878,-4.49694 1.8729,-7.48339c0.1949,-1.25417 1.42558,-2.49977 0.96634,-3.68299c-1.45092,-3.73824 -4.09641,-3.30175 -6.97053,-3.34613c-0.68757,-0.01061 -1.37507,0.02579 -2.06245,0.04511c-0.31276,0.00879 -0.85186,0.34007 -0.93782,0.03923c-0.17348,-0.60714 0.43238,-1.21554 0.42131,-1.84688c-0.06631,-3.78205 -0.08976,-7.61662 -4.23613,-9.26411c-1.18799,-0.47202 -2.55521,-0.08553 -3.83282,-0.12829h-1.01409c0,0 -0.07584,0 -0.20111,0.01321c-0.09758,-0.00868 -0.19948,-0.01321 -0.30593,-0.01321zM145.58817,338.91854l-1.34634,-1.06047c-2.9437,-0.9524 -4.11187,-4.41222 -6.5114,-6.55813c0.4697,0.10964 1.29133,0.20806 1.66514,0.13959c1.113,-0.20387 2.17706,-0.68878 3.14832,-1.26927c3.62929,-2.16913 7.4554,-6.25381 4.2381,-10.82615c-2.08533,-2.96363 -9.42441,-2.26265 -12.59541,-1.94654c-1.61381,0.16088 -3.60963,-0.35834 -4.81002,0.73223c-1.22626,1.11408 -0.54802,4.91473 -0.72006,6.59185c-0.50462,4.91908 0.34506,9.6474 -0.4852,14.53959c0,0 -0.41099,2.46599 2.05499,2.87698c2.46598,0.41099 2.87698,-2.05499 2.87698,-2.05499c0.35411,-2.15913 0.41195,-4.27653 0.40092,-6.38616c1.2726,1.39184 2.61447,2.84039 3.70024,4.36012c0.69548,0.97344 1.04469,2.23245 1.95278,3.01132c0.89341,0.76628 2.15178,0.95464 3.22767,1.43196l-0.33225,-0.04639c0,0 1.76777,1.76776 3.53554,0c1.76776,-1.76776 0,-3.53553 0,-3.53553zM299.65854,333.92919c-0.43859,-0.74185 -0.07642,-1.7887 -0.50704,-2.53521c-0.38637,-0.66979 -0.99707,-1.5007 -1.72187,-2.24721c2.92788,0.33156 6.48941,-0.54473 7.3631,-2.61987c0.69836,-1.6587 -0.38372,-3.63178 -1.08597,-5.28884c-2.03215,-4.79513 -6.73279,-5.85313 -11.32283,-5.36163c-1.44667,0.15491 -3.27418,-0.29656 -4.30298,0.73223c-2.33313,2.33314 -0.18358,7.42376 0.32696,9.84618c0.55526,2.63464 -0.61676,4.76528 -1.02691,7.23946c-0.30034,1.81178 -0.12124,3.68868 -0.49077,5.48764c0,0 -0.49029,2.45145 1.96116,2.94174c2.45145,0.49029 2.94174,-1.96116 2.94174,-1.96116c0.36406,-1.86188 0.20971,-3.79627 0.52331,-5.6673c0.14932,-0.89092 0.34741,-1.73798 0.53906,-2.57114c0.74082,0.52596 1.47856,1.05438 1.88763,1.8292c0.40237,0.76211 0.05968,1.79861 0.50704,2.53521c1.12141,1.84646 2.96895,3.15203 4.26053,4.88374l2.50704,1c0,0 2.5,0 2.5,-2.5c0,-1.60804 -1.03432,-2.18176 -1.77238,-2.38646c-1.05924,-1.10104 -2.31312,-2.04788 -3.08682,-3.35657zM213.7923,337.17222l-1.03083,0.04855c-2.58873,-0.50619 -3.09799,-0.79034 -5.80706,-0.54343c-0.78215,0.07129 -1.58005,0.16707 -2.32072,0.42653c0.48992,-1.42279 -0.00161,-4.26582 -0.00337,-5.03729c-0.00134,-0.58622 0.02688,-1.11165 0.07756,-1.59742c0.53078,0.07736 0.95498,-0.00747 0.95498,-0.00747c1.66778,-0.34259 3.3846,-0.46591 5.08718,-0.4585l2.63451,-0.58168c0,0 2.42535,-0.60634 1.81902,-3.0317c-0.60634,-2.42535 -3.03169,-1.81901 -3.03169,-1.81901l-1.42183,0.4324c-1.61768,0.00599 -3.24323,0.10764 -4.84506,0.3457c0.06934,-0.29136 0.13693,-0.59736 0.20134,-0.92223c0.23933,-1.20707 0.27562,-2.44167 0.32747,-3.67496c0.42815,0.12472 0.76694,0.12472 0.76694,0.12472c2.70423,0 6.42254,0 9.12677,0c0,0 2.5,0 2.5,-2.5c0,-2.5 -2.5,-2.5 -2.5,-2.5c-2.70423,0 -6.42254,0 -9.12677,0c0,0 -0.56309,0 -1.1548,0.26723c-0.31948,-0.35571 -0.80353,-0.64481 -1.53391,-0.74915c-2.47487,-0.35355 -2.82843,2.12132 -2.82843,2.12132c-0.81993,5.80887 -2.05329,11.15685 -2.05329,17.08596c0,1.48978 -0.14177,6.00697 0.73223,6.83819c1.11252,1.05806 3.0147,0.67392 4.54932,0.72007c2.61524,0.07864 4.16348,-0.59214 6.86901,-0.03638l2.01142,0.04855c0,0 2.5,0 2.5,-2.5c0,-2.5 -2.5,-2.5 -2.5,-2.5zM168.79988,339.62027l-0.13438,0.59421c-2.57134,0.05624 -4.34725,-1.05654 -6.89327,-1.41748c-0.38863,-0.0551 -0.96386,0.31005 -1.17742,-0.0193c-0.21987,-0.33908 0.38845,-0.73163 0.42983,-1.13364c0.13761,-1.33693 0.13569,-2.73764 0.10034,-4.13959c0.26259,0.04803 0.44192,0.04803 0.44192,0.04803c0.84507,0 4.22535,0 5.07042,0c0,0 2.5,0 2.5,-2.5c0,-2.5 -2.5,-2.5 -2.5,-2.5c-0.84507,0 -4.22535,0 -5.07042,0c0,0 -0.22447,0 -0.53889,0.06726c0.0135,-1.89593 0.03457,-3.0747 -0.58413,-5.26849c-0.21455,-0.76072 -1.59117,-2.25801 -0.80121,-2.23173c3.97165,0.13212 7.08593,2.22546 11.051,2.2921c0,0 2.5,0 2.5,-2.5c0,-2.5 -2.5,-2.5 -2.5,-2.5c-3.99515,0.10035 -9.16473,-4.11052 -13.28706,-1.76424c-1.39447,0.79368 -2.51188,2.29992 -2.87081,3.86379c-0.31175,1.35827 0.75119,2.68538 1.05552,4.04534c0.96033,4.29134 0.16539,8.73719 0.43332,13.08752c0.08114,1.31757 -0.34644,2.8691 0.42983,3.93679c1.8687,2.57021 9.33806,3.59055 12.21102,3.63364l2.90788,-1.43396c0,0 2.08012,-1.38675 0.69337,-3.46687c-1.38675,-2.08013 -3.46687,-0.69338 -3.46687,-0.69338zM239.09249,313.94742l-1.43396,2.90787c0,1.63699 0.54569,3.33765 0.09071,4.91014c-0.25167,0.8698 -1.10663,1.46064 -1.44365,2.30106c-0.80906,2.01756 -0.78343,5.17835 -2.1877,6.98641c-0.46679,0.60102 -1.3538,0.75559 -1.86001,1.3238c-1.29322,1.45161 -2.29142,3.14557 -3.31833,4.79633c-0.28995,0.4661 0.50344,-1.00919 0.53587,-1.55716c0.10984,-1.85591 0,-3.71832 0,-5.57747c0,-4.57449 -0.82557,-8.12982 -1.55514,-12.58002c0,0 -0.411,-2.46598 -2.87698,-2.05499c-2.46598,0.41099 -2.05499,2.87698 -2.05499,2.87698c0.34792,2.05784 1.13176,4.02324 1.5194,6.07397c0.48114,2.54542 -0.03229,5.61395 -0.03229,8.21927c0,0.78832 -0.07307,6.21442 0.26394,6.6955c4.74017,6.76673 8.10629,-0.02405 11.1508,-3.45633c0.61685,-0.69541 1.64726,-0.96837 2.19633,-1.71845c1.76052,-2.405 1.83724,-5.60463 2.88273,-8.22487c0.39501,-0.98998 1.32969,-1.73797 1.59861,-2.76937c0.11137,-0.42714 0.09072,-5.29251 0.09072,-6.2448l0.59421,-0.13437c0,0 1.38675,-2.08013 -0.69338,-3.46688c-2.08012,-1.38675 -3.46687,0.69338 -3.46687,0.69338zM194.01764,335.65109h-1.52113c-1.62253,0.02454 -3.24745,-0.37264 -4.7869,-0.88579c-1.93666,-0.64555 -3.98001,-1.09464 -6.02129,-1.11822c-0.63352,-0.00732 -1.48075,0.43111 -1.90018,-0.04374c-0.35691,-0.40406 0.43788,-1.00173 0.50412,-1.53676c0.10383,-0.83867 0.03905,-1.69105 0,-2.53521c-0.16124,-3.48552 3.9467,-3.29811 6.74669,-4.61855c2.61002,-1.23086 5.16478,-2.74838 7.22532,-4.76863c0,0 1.76776,-1.76776 0,-3.53553c-1.76776,-1.76776 -3.53554,0 -3.53554,0c-2.45929,2.52449 -5.47726,3.75152 -8.7451,5.00488c-2.99371,1.14822 -4.86123,1.01238 -6.50107,4.4259c-0.62258,1.29599 -0.42254,9.73139 0.31383,10.57488c3.07395,3.52116 4.63575,1.43673 7.67993,1.97631c3.24399,0.57501 5.60339,2.02288 9.02018,2.06045h1.52113c0,0 2.5,0 2.5,-2.5c0,-2.5 -2.5,-2.5 -2.5,-2.5zM278.72899,325.47503c0,4.7324 0,10.47888 0,15.21128c0,0 0,2.5 2.5,2.5c2.5,0 2.5,-2.5 2.5,-2.5c0,-4.7324 0,-10.47888 0,-15.21128c0,0 0,-2.5 -2.5,-2.5c-2.5,0 -2.5,2.5 -2.5,2.5zM280.72195,318.84826c1.38071,0 2.5,-1.11929 2.5,-2.5c0,-1.38071 -1.11929,-2.5 -2.5,-2.5c-1.38071,0 -2.5,1.11929 -2.5,2.5c0,1.38071 1.11929,2.5 2.5,2.5z"/><path d="M292.34871,320.91164c-0.0046,-0.01897 -0.01169,-0.03742 -0.02094,-0.0554c0.01821,0.00907 0.03692,0.01592 0.05615,0.02019c1.39343,0.30893 2.90875,-0.5247 4.27986,-0.12829c0.64563,0.18666 2.61743,2.84304 2.65086,2.87934c0.27846,0.3024 0.75923,0.42757 0.94219,0.79568c0.12403,0.24955 -0.46503,-0.34386 -0.74004,-0.38894c-0.61072,-0.1001 -1.24115,0.03167 -1.85624,-0.03659c-1.0218,-0.1134 -2.01822,-0.59808 -3.04226,-0.50704c-0.55418,0.04927 -1.10104,0.14446 -1.64385,0.26493c-0.19231,-0.95158 -0.39672,-1.90065 -0.62574,-2.84387z"/><path d="M291.61648,320.14419c0.17848,-0.17848 0.31732,0.23203 0.50775,0.5094c-0.27789,-0.19079 -0.68653,-0.33062 -0.50775,-0.5094z"/><path d="M259.42615,322.39756h1.01409c2.18246,0 6.10998,-0.8019 7.42962,1.7219c0.34078,0.65173 0.2234,3.88738 0.2234,4.15148c-0.10595,1.14339 -1.35169,1.85667 -2.03168,2.78197c-0.90393,1.23003 -1.44212,5.79343 -3.36966,6.24761c-1.38922,0.32733 -2.8526,-0.12829 -4.27986,-0.12829c-1.97069,0 -5.49709,0.74445 -7.09866,-0.98995c-0.8161,-0.88378 -0.0379,-2.40571 -0.03515,-3.60865c0.00403,-1.76516 -0.61366,-3.59681 -0.12829,-5.29394c0.72434,-2.53268 4.27976,-5.00006 6.65434,-5.42352c0.72031,0.54139 1.62185,0.54139 1.62185,0.54139z"/><path d="M133.63217,325.21433c0.09011,-0.92281 0.19653,-1.87288 0.01217,-2.78156c-0.0703,-0.34652 -1.08507,-0.74453 -0.73224,-0.76745c0.48892,-0.03175 0.79335,0.63976 1.27449,0.73224c2.36492,0.45454 5.23472,-0.0992 7.63992,-0.04511c0.64863,0.01459 1.63206,-0.10754 1.08619,1.0092c-0.78146,1.59873 -3.21107,2.76145 -4.80832,3.24748c-1.50148,0.45688 -3.52968,0.0474 -4.62417,1.10127c0.02405,-0.82766 0.07023,-1.65902 0.15197,-2.49606z"/></g><path d="M95,121.53211h290" fill="none" stroke="#000000" stroke-width="5" stroke-linecap="round"/><text transform="translate(99.60005,113.76336) scale(0.5,0.5)" font-size="40" xml:space="preserve" fill="#000000" stroke="none" stroke-width="1" stroke-linecap="butt" font-family="Sans Serif" font-weight="normal" text-anchor="start"><tspan x="0" dy="0">niveau réussi !</tspan></text><text transform="translate(125.08005,164.52693) scale(0.5,0.5)" font-size="40" xml:space="preserve" fill="#000000" stroke="none" stroke-width="1" stroke-linecap="butt" font-family="Sans Serif" font-weight="normal" text-anchor="start"><tspan x="0" dy="0">0  1  2  3  4  5  6  7  8  9  +</tspan></text><g fill="#ff0000" stroke="#000000" stroke-width="0" stroke-linecap="butt"><path d="M148.75,253.52693v-38.5h182.5v38.5zM175.52033,231.67328c0.12525,0.03734 2.70775,0.19553 3.09735,0.93658c1.33381,2.53701 0.3046,6.45677 -2.55231,7.25778c-1.55135,0.43496 -3.2215,-0.09071 -4.83267,-0.09071c-3.0565,0 -6.00337,0.16634 -9.00971,-0.45146c0,0 -2.45146,-0.49029 -2.94174,1.96116c-0.49029,2.45145 1.96116,2.94174 1.96116,2.94174c6.12014,1.19636 19.00694,2.70025 22.29999,-4.49474c0.48025,-1.0493 0.15717,-2.3032 0.1903,-3.45671c0.05097,-1.77509 0.1121,-4.81599 -0.88499,-6.33293c-1.9263,-2.93062 -3.20752,-2.25084 -5.90265,-3.06343c-3.22091,-0.97111 -6.51336,-1.19577 -9.82293,-0.99132c0.51532,-0.29915 0.99863,-0.82911 1.09371,-1.76801c2.42165,-1.32045 5.13659,-0.83173 8.00715,-1.39285c0,0 2.45145,-0.49029 1.96116,-2.94174c-0.49029,-2.45145 -2.94174,-1.96116 -2.94174,-1.96116c-4.2267,0.86858 -7.31023,0.29235 -11.00971,2.95146v-0.5c0,0 -2.5,0 -2.5,2.5c0,0.12711 0.00646,0.24775 0.01873,0.36227l-0.48471,0.22673c-0.242,1.62194 -0.80898,3.23391 -1.67775,4.62476c0,0 -1.02211,1.70352 0.27453,2.98456c-0.79577,2.22827 1.44072,3.12287 1.44072,3.12287c0.42969,0.16735 0.85565,0.35014 1.27379,0.55c0.5826,0.8639 1.6644,1.08026 1.6644,1.08026c0.11173,0.02184 0.22261,0.04246 0.33272,0.062c0.17643,0.12078 0.34976,0.24579 0.51956,0.37518l0.58833,0.01067l0.54968,0.10069l0.04939,-0.08983l1.50021,0.02722c0.70026,0.09243 1.39194,0.20726 2.09506,0.39529c0.22934,0.72722 0.8223,1.66732 2.35534,1.66732c2.5,0 2.5,-2.5 2.5,-2.5l-1.57153,-3.3212c-2.45084,-0.94005 -4.45278,-1.02833 -6.83505,-1.42597c-0.04217,-0.02499 -0.08441,-0.04986 -0.12673,-0.07459c3.15173,-0.30104 6.29835,-0.183 9.32093,0.71812zM218.46877,247.15889l-2.24578,-2.33342c-2.25646,-0.36698 -3.41046,-1.68499 -4.75813,-3.00645c2.20274,-0.09613 5.17091,-0.46432 5.35282,-0.60873c1.15281,-0.9152 1.13514,-2.73964 1.40286,-4.18701c0.81267,-4.39347 -2.41618,-9.3008 -6.69726,-10.61805c-1.20834,-0.37179 -2.52659,-0.10251 -3.79057,-0.12829c-1.47913,-0.03017 -5.94686,-0.08868 -6.76776,0.73223c-1.02062,1.02062 -0.57698,2.83277 -0.73224,4.26777c-0.32784,3.03013 0.60231,5.17782 1.04511,7.97277c0.31438,1.98439 -0.04511,4.0181 -0.04511,6.02723c0,0 0,2.5 2.5,2.5c2.5,0 2.5,-2.5 2.5,-2.5c0,-0.34022 0.00065,-1.00179 0.00044,-1.78761c2.41333,2.52755 4.4243,4.84846 7.93316,5.95105l-0.16966,-0.04541c0,0 1.11803,2.23606 3.3541,1.11803c2.23607,-1.11803 1.11803,-3.3541 1.11803,-3.3541zM321.50047,241.50916l0.05343,0.33929c-0.78409,-1.91111 -2.08812,-3.56509 -3.16118,-5.33022c-0.26391,-0.43413 -0.74987,-1.94164 -1.19674,-3.18989c0.94032,0.07533 1.8779,0.14173 2.65476,-0.31534c3.88919,-2.28825 3.18301,-5.11744 1.57802,-8.43078c-1.86593,-3.85202 -8.44132,-8.00159 -12.81408,-5.54136c-3.16384,1.78006 -3.72321,6.90222 -2.75367,10.02664c0.26662,0.85922 1.2317,1.36066 1.57328,2.19293c1.28244,3.12462 1.82045,8.22915 1.79842,11.5165c0,0 0,2.5 2.5,2.5c2.5,0 2.5,-2.5 2.5,-2.5c-0.00621,-1.15299 -0.06753,-2.44339 -0.18742,-3.78773c0.00912,0.01552 0.01825,0.031 0.0274,0.04644c0.92923,1.56682 2.18196,2.97067 2.83882,4.66977l1.05343,1.33929c0,0 1.76777,1.76776 3.53554,0c1.76776,-1.76776 0,-3.53554 0,-3.53554zM273.58896,225.49069c-0.32573,0.62764 -0.43318,1.43116 -0.97719,1.88293c-0.64937,0.53925 -1.70216,0.37751 -2.36861,0.89551c-0.8426,0.65491 -1.15755,1.8449 -2,2.5c-0.71844,0.55867 -1.84245,0.42859 -2.53118,1.02351c-1.00037,0.86413 -1.94449,1.93587 -2.35099,3.19373c-0.98494,3.0478 1.35938,8.07949 4.25367,9.52663c0.63158,0.31579 5.70334,0.28122 6.61803,0.26394c3.10958,-0.05875 5.11098,0.51208 7.13623,-2.70135c2.12628,-3.37373 0.83372,-10.57143 0.43394,-14.20023l-3.64169,-1.91962c0,0 -0.00268,-0.00107 -0.00788,-0.00304c-0.15132,-0.46292 -4.56434,-0.462 -4.56434,-0.462zM236.2327,241.27693h-1c-1.83334,0 -3.66667,-0.00388 -5.5,0c-0.82674,0.00175 -1.68743,-0.21233 -2.49009,-0.05282c0.16706,-0.9325 -0.02904,-2.12578 -0.01843,-2.24098c0.02178,-0.23622 0.04528,-0.47158 0.07017,-0.7062c0.96539,0 5.12381,0 5.93834,0c0,0 2.5,0 2.5,-2.5c0,-2.5 -2.5,-2.5 -2.5,-2.5c-0.6037,0 -4.7074,0 -5.3111,0c0.05919,-0.4985 0.11355,-0.99805 0.15971,-1.5h0.56014c0.85934,0.65647 2.00226,0.46598 2.00226,0.46598c0.91501,-0.15533 1.83002,-0.31065 2.74502,-0.46598h2.84398c1.38071,0 2.5,-1.11929 2.5,-2.5c0,-1.38071 -1.11929,-2.5 -2.5,-2.5h-2.5c-1.17851,-1.17851 -3.33334,0 -5,0h-1.40563c-0.36479,-0.29388 -0.87652,-0.5 -1.59437,-0.5c-2.5,0 -2.5,2.5 -2.5,2.5c0.00702,4.13506 -1.48534,8.40977 -1,12.5c0.19708,1.66084 -0.29709,3.78096 0.91503,4.93336c1.04644,0.99488 2.8875,0.03986 4.33131,0.05447c2.58437,0.02615 5.1692,0.01217 7.75366,0.01217h1c0,0 2.5,0 2.5,-2.5c0,-2.5 -2.5,-2.5 -2.5,-2.5zM297.43484,226.76172l1.34891,3.01787c-0.03229,1.35969 0.22729,4.83612 -0.89076,5.80456c-0.72289,0.62616 -1.84008,0.6141 -2.62207,1.16467c-0.92838,0.65364 -1.7005,1.51744 -2.42686,2.3901c-0.367,0.44092 -0.63245,2.13627 -0.70979,1.56783c-0.17127,-1.25886 -1.10071,-2.29047 -1.61931,-3.45025c-0.82486,-1.84468 -1.32694,-4.47194 -1.28226,-6.47957c0,0 0,-2.5 -2.5,-2.5c-2.5,0 -2.5,2.5 -2.5,2.5c0.06108,4.02557 1.27052,7.3594 3.32059,10.72481c0.65696,1.07846 0.65588,2.7658 1.77784,3.34536c4.46864,2.3083 5.0862,-0.01931 7.29021,-2.43216c1.35602,-1.48451 3.58685,-1.96827 4.95107,-3.44523c2.34281,-2.53642 2.15073,-7.06511 2.10924,-10.19544l-1.65108,-3.98213c0,0 -0.98479,-2.29787 -3.28266,-1.31306c-2.29787,0.9848 -1.31306,3.28266 -1.31306,3.28266zM260.23269,224.77693h-1c-5.06322,0 -9.46865,1 -14.5,1c0,0 -2.5,0 -2.5,2.5c0,2.5 2.5,2.5 2.5,2.5c2.32394,0 4.50929,-0.21067 6.68021,-0.43861c-0.18021,0.50561 -0.18021,0.93861 -0.18021,0.93861c0.04843,1.89441 -1.03914,3.64715 -1.44895,5.49733c-0.0632,0.28534 -0.05105,5.22574 -0.05105,6.00267l0.62829,2.29057c0,0 0.79057,2.3717 3.16228,1.58113c2.37171,-0.79057 1.58114,-3.16227 1.58114,-3.16227l-0.37171,-0.70943c0,-1.66586 -0.44227,-3.37806 -0.05106,-4.99733c0.52331,-2.16604 1.51317,-4.27463 1.55105,-6.50267c0,0 0.00001,-0.70527 -0.37459,-1.36661c1.1023,-0.08091 2.22203,-0.13339 3.37459,-0.13339h1c0,0 2.5,0 2.5,-2.5c0,-2.5 -2.5,-2.5 -2.5,-2.5z"/><path d="M165.8333,225.82596l-0.03733,0.16735c-0.0028,0.00027 -0.00559,0.00053 -0.0084,0.0008c0.01549,-0.05599 0.03073,-0.11204 0.04573,-0.16815z"/><path d="M315.73269,228.27693h-3c-0.4401,0 -0.85364,0.11372 -1.21283,0.31338c-0.3482,-0.34408 -0.75044,-0.65704 -0.91546,-1.10395c-0.07992,-0.21644 -0.08563,-3.90355 0.24633,-3.97337c1.42582,-0.29987 3.64128,0.51926 4.64202,1.55909c1.70997,1.77674 3.8399,3.70971 0.23994,3.20484z"/><path d="M278.16253,230.6785c-1.1091,2.83429 0.39587,5.98955 -0.56606,8.79978c-0.31082,0.90804 -1.9043,0.32228 -2.86377,0.29865c-2.76822,-0.06817 -3.678,0.9338 -5,-1c-0.55228,-0.80786 -1.5451,-1.10149 -1.12829,-2.20943c0.51855,-1.37838 2.08619,-0.98021 3.11783,-1.78277c0.84232,-0.65527 1.15782,-1.84455 2,-2.5c0.7507,-0.58425 1.92679,-0.46539 2.63138,-1.10449c0.19408,-0.17604 0.3664,-0.37059 0.52386,-0.57779z"/><path d="M205.71938,236.39654c-0.25163,-0.86471 -0.49556,-1.7284 -0.48668,-2.61961c0.00831,-0.83329 0.18412,-1.68726 0,-2.5c0.81274,0.18412 1.66698,0.02269 2.5,0c2.06589,-0.05628 3.57404,0.27758 5.01571,2.02071c0.92695,1.12079 0.31515,1.96159 0.49646,3.23294c0.0427,0.29942 0.69673,0.74147 0.40286,0.81299c-0.49368,0.12016 -0.91268,-0.49053 -1.41503,-0.56664c-0.66828,-0.10125 -1.35558,0.12086 -2.02723,0.04511c-1.4009,-0.15799 -3.07676,-1.64132 -4.16353,-0.74331c-0.119,0.09833 -0.22604,0.20459 -0.32256,0.31781z"/></g><g fill="#00b0ff"><text transform="translate(109.31496,202.06116) scale(0.61281,0.61281)" font-size="40" xml:space="preserve" fill="#00b0ff" stroke="none" stroke-width="1" stroke-linecap="butt" font-family="Sans Serif" font-weight="normal" text-anchor="start"><tspan x="0" dy="0">gagné, vous avez 1m</tspan></text><path d="M370.68504,185.40151l-7.58978,7.58978h5.85236l-9.97002,11.02207l2.74329,-8.39738h-6.05788l9.90212,-10.12303z" stroke="#000000" stroke-width="0" stroke-linecap="round"/></g></g></g></svg>