<svg xmlns="http://www.w3.org/2000/svg" xmlns:xlink="http://www.w3.org/1999/xlink" version="1.1" width="88.99945068359375" height="89.00140380859375" viewBox="-0.5 -0.5 88.99945068359375 89.00140380859375"><g><g data-paper-data="{&quot;isPaintingLayer&quot;:true}" fill-rule="nonzero" stroke-linecap="butt" stroke-linejoin="miter" stroke-miterlimit="10" stroke-dasharray="" stroke-dashoffset="0" style="mix-blend-mode: normal"><path d="M 84.7614 88.0014 C 83.9329 88.0014 83.1044 87.6848 82.4712 87.0542 L 1.6253 6.2057 C 0.3615 4.9419 0.3615 2.8892 1.6253 1.6253 C 2.8891 0.3615 4.9419 0.3615 6.2057 1.6253 L 87.0516 82.4712 C 88.3154 83.735 88.3154 85.7877 87.0516 87.0516 C 86.4183 87.6822 85.5898 88.0014 84.7613 88.0014 Z " fill="#d99e82" stroke-width="1" stroke="none"/><path d="M 35.6301 17.8151 C 35.6301 27.654 27.654 35.6301 17.8151 35.6301 C 7.9761 35.6301 0 27.654 0 17.8151 C 0 7.9761 7.9761 0 17.8151 0 C 27.654 0 35.6301 7.9761 35.6301 17.8151 Z " fill="#fcb1e3" stroke-width="1" stroke="none"/><path d="M 33.1607 54.5936 C 23.585 52.3325 17.6555 42.7369 19.9166 33.1612 C 22.1777 23.5856 31.7733 17.656 41.3489 19.9171 C 50.9246 22.1782 56.8542 31.7738 54.593 41.3495 C 52.3319 50.9251 42.7363 56.8547 33.1607 54.5936 Z " fill="#ffd983" stroke-width="1" stroke="none"/><path d="M 74.5029 56.6852 C 74.5029 66.5242 66.5242 74.5029 56.6852 74.5029 C 46.8463 74.5029 38.8702 66.5241 38.8702 56.6852 C 38.8702 46.8463 46.8463 38.8702 56.6852 38.8702 C 66.5242 38.8702 74.5029 46.849 74.5029 56.6852 Z " fill="#a6d388" stroke-width="1" stroke="none"/><path d="M 84.7614 88.0014 C 83.9329 88.0014 83.1044 87.6848 82.4712 87.0542 L 62.6297 67.2128 C 61.3633 65.949 61.3633 63.8962 62.6297 62.6324 C 63.8962 61.3686 65.9437 61.3686 67.2101 62.6324 L 87.0516 82.4738 C 88.3154 83.7376 88.3154 85.7904 87.0516 87.0542 C 86.4183 87.6822 85.5898 88.0014 84.7613 88.0014 Z " fill="#d99e82" stroke-width="1" stroke="none"/></g></g></svg>