<svg version="1.1" xmlns="http://www.w3.org/2000/svg" xmlns:xlink="http://www.w3.org/1999/xlink" width="274.00001" height="353.7323" viewBox="0,0,274.00001,353.7323"><g transform="translate(-202.68616,-78.5)"><g stroke="#ff0000" stroke-width="2" stroke-miterlimit="10"><path d="M224.68617,431.2323h39v-149" fill="none" stroke-linecap="round"/><path d="M401.68617,431.2323h-46v-149" fill="none" stroke-linecap="round"/><path d="M203.68616,176.23231v163" fill="none" stroke-linecap="round"/><path d="M424.68616,176.23231v163" fill="none" stroke-linecap="round"/><g><path d="M205.5,280.5v-201h217v201z" fill="#b1fcfa" stroke-linecap="butt"/><g stroke-linecap="butt"><path d="M213.48617,105.73231c0,-11.32183 9.17816,-20.5 20.5,-20.5c11.32184,0 20.5,9.17817 20.5,20.5c0,11.32184 -9.17816,20.5 -20.5,20.5c-11.32184,0 -20.5,-9.17816 -20.5,-20.5z" fill="#ffffff"/><path d="M225.48617,105.73231c0,-4.69442 3.80558,-8.5 8.5,-8.5c4.69442,0 8.5,3.80558 8.5,8.5c0,4.69442 -3.80558,8.5 -8.5,8.5c-4.69442,0 -8.5,-3.80558 -8.5,-8.5z" fill="#000000"/></g><g stroke-linecap="butt"><path d="M374.48617,105.73231c0,-11.32183 9.17817,-20.5 20.5,-20.5c11.32183,0 20.5,9.17817 20.5,20.5c0,11.32184 -9.17817,20.5 -20.5,20.5c-11.32183,0 -20.5,-9.17816 -20.5,-20.5z" fill="#ffffff"/><path d="M386.48617,105.73231c0,-4.69442 3.80558,-8.5 8.5,-8.5c4.69442,0 8.5,3.80558 8.5,8.5c0,4.69442 -3.80558,8.5 -8.5,8.5c-4.69442,0 -8.5,-3.80558 -8.5,-8.5z" fill="#000000"/></g><g><g><path d="M234.5,180c0,-43.90664 35.59336,-79.5 79.5,-79.5c43.90664,0 79.5,35.59336 79.5,79.5c0,43.90664 -35.59336,79.5 -79.5,79.5c-43.90664,0 -79.5,-35.59336 -79.5,-79.5z" fill="#b1fcbb" stroke-linecap="butt"/><path d="M309.68617,129.2323h166" fill="none" stroke-linecap="round"/><path d="M251.48617,183c0,-8.83655 7.16345,-16 16,-16c8.83655,0 16,7.16345 16,16c0,8.83655 -7.16345,16 -16,16c-8.83655,0 -16,-7.16345 -16,-16z" fill="#000000" stroke-linecap="butt"/><path d="M346.48617,183c0,-8.83655 7.16345,-16 16,-16c8.83655,0 16,7.16345 16,16c0,8.83655 -7.16345,16 -16,16c-8.83655,0 -16,-7.16345 -16,-16z" fill="#000000" stroke-linecap="butt"/></g><path d="M338.97561,182c0,0 -7.52699,32 -24.97561,32c-17.44862,0 -24.97561,-32 -24.97561,-32z" fill="#ff0000" stroke-linecap="butt"/></g></g></g></g></svg>