<svg version="1.1" xmlns="http://www.w3.org/2000/svg" xmlns:xlink="http://www.w3.org/1999/xlink" width="1095.90324" height="745.52102" viewBox="0,0,1095.90324,745.52102"><g transform="translate(87.25,40.10102)"><g stroke-miterlimit="10"><path d="M-74.34676,668.72385v-516h1083v516z" fill="#00ffb5" stroke="none" stroke-width="0"/><path d="M-29.68903,-40.10102h951.95654v427.71125l-0.44957,-0.18732l-0.66471,-0.57406l-3.01673,-0.95987l-0.67601,-0.28167l-0.91068,-0.55064l-1.03419,-0.77014l-5,-3l-1.8063,-0.85203l-1.77133,-0.92257l-4.78427,-1.9137l-1.41061,-1.1755l-0.5426,-0.69762l-1.29996,-0.7194l-2.49366,-1.68802l-2.10674,-0.85783l-1.99025,-1.1014l-2.28233,-0.69867l-1.36976,-1.14147l-3.25093,-2.20063l-0.67593,-0.27522l-0.58979,-0.42985l-2.47284,-1.10852l-2.37581,-1.94384l-1.65005,-0.85348l-1.50131,-1.09417l-3.31341,-1.48533l-0.30704,-0.20469l-0.32277,-0.17147l-1.04474,-0.90227l-1.62978,-0.51857l-0.46959,-0.24947l-3.261,-0.93754l-3.23338,-1.0288l-0.52909,-0.05291l-1.64372,-0.47257l-1.36976,0.17122l-0.36368,-0.03636h-30l-1.27551,0.12755l-1.84949,-0.12755l-4.6661,1.62671l-4.7089,1.49829l-0.83334,0.71969l-1.80629,0.57473l-3.261,0.93754l-0.46959,0.24947l-1.62978,0.51857l-1.04473,0.90227l-0.32277,0.17147l-0.37569,0.25046l-3.06729,0.88184l-0.59577,0.05958l-0.08302,0.02641l-0.08711,0.00119l-3.82932,0.86468l-3,1l-1.59965,0.71709h-0.49466l-3.90625,0.39063l-0.42179,0.1342l-2.30108,0.16838l-2.83227,1.46497l-3.0386,0.96683l-1.74617,1.50805l-0.39315,0.20335l-0.60462,0.49469l-1.24402,0.55767l-1.50131,1.09417l-0.60575,0.31332l-2.16325,0.77655l-0.64531,0.39834l-0.72168,0.23292l-3.40569,1.9526l-7,5l-1.55057,1.35974l-1.59615,1.30593l-0.71296,0.71296l-1.10887,0.70033l-0.06244,0.06076l-0.07738,0.04002l-3.03835,2.48593l-0.74368,0.74369l-1.54692,1.16018l-3.89413,2.33648l-0.48985,0.36478l-1.11324,-1.56186l-2.34435,-3.79784l-1.69317,-1.19214l-1.49699,-1.37561l-4,-3l-1.92133,-1.16174l-1.89833,-1.19894l-6,-3l-1.31724,-0.50181l-0.10483,-0.06471l-1.12725,-0.40465l-1.11923,-0.42637l-0.12171,-0.01909l-1.32669,-0.47625l-7.06854,-1.76713l-4.913,-1.63767l-0.21434,-0.14289l-3.46688,-1.84178l-1.29883,-0.37341l-1.20294,-0.6159l-3.78889,-1.02749l-1.72344,-0.28724l-0.65309,-0.18777l-0.27057,0.03382l-3.35289,-0.55881l-2.05789,-0.13495l-2.05208,-0.2052h-34.37644l-21.39008,-2.79001l-0.48935,-0.0147l-0.48073,-0.09261l-11,-1l-0.85085,0.00766l-0.84452,-0.10388l-44,-1l-0.28431,0.02192l-0.28373,-0.02837h-7l-2.05208,0.2052l-2.05789,0.13495l-5.49694,0.91616l-5.94952,0.74369h-10.44356l-1.54682,0.15468l-1.55405,0.03837l-8,1l-1.47037,0.33502l-1.49216,0.21837l-5.01425,1.25357h-5.92236l-3.90625,0.39063l-0.08302,0.02641l-0.08711,0.00119l-3.82932,0.86468l-2.08915,0.69639l-13.43721,3.3593l-5.95258,0.6614h-28.36848l-8.7593,-0.87593h-0.16233l-0.15952,-0.03008l-23,-2l-1.08552,0.01403l-1.08022,-0.10802h-4.18544l-0.5298,-0.21192l-0.70732,-0.20404l-0.67175,-0.30113l-1.31448,-0.43816l-2.41087,-1.20543l-1.65681,-0.63117l-1.61784,-0.72524l-2.30304,-0.76768l-4.31789,-1.72715l-0.70732,-0.20404l-0.67175,-0.30113l-0.62799,-0.20933l-0.2085,-0.16681l-0.17858,-0.25053l-2.89062,-2.65625l-2.57864,-1.93399l-0.74369,-0.74369l-3.03835,-2.48593l-0.39315,-0.20335l-1.74617,-1.50805l-0.67473,-0.21469l-0.84984,-0.87345l-1.08125,-0.45052l-0.03178,-0.02366l-2.50779,-1.50467l-2.71528,-2.2216l-0.07738,-0.04002l-0.06243,-0.06076l-0.73832,-0.4663l-13.55618,-14.40345l-0.11791,-0.10259l-2.38101,-4.16676l-1.37186,-1.92644l-1.3528,-1.93987l-2.81296,-3.28179l-0.45137,-1.35413l-1.60584,-3.58227l-0.05131,-0.0704l-0.02868,-0.08226l-1.51421,-2.50428l-1.15636,-3.03544l-0.18091,-0.36184l-0.22206,-0.69788l-0.19949,-1.27174l-1.39754,-3.66854l-0.18091,-0.36184l-0.17977,-0.56497v-0.81522l0.0207,-0.0828l0.69639,-2.08915l0.86469,-3.82932l0.00119,-0.08711l0.02641,-0.08301l0.39063,-3.90625v-15.98914l0.15577,-0.61332l-0.15577,-0.993v-0.40454l-0.39062,-3.90625l-0.56327,-1.77027l-0.28789,-1.83527l-0.14834,-0.38939l-0.00051,-0.00506l-0.56327,-1.77027l-0.28789,-1.83527l-0.93116,-2.44429c-0.36169,-3.0703 -1.27974,-5.97031 -2.6506,-8.59644l-0.30147,-0.94747l-0.73402,-0.84992c-1.33033,-2.10229 -2.96559,-3.99248 -4.84361,-5.60839l-1.84425,-2.13544l-1.84456,-0.49853c-3.70159,-2.16618 -8.01009,-3.40772 -12.60856,-3.40772c-4.59848,0 -8.90697,1.24155 -12.60856,3.40772l-1.84456,0.49853l-1.84425,2.13544c-1.87802,1.6159 -3.51328,3.50609 -4.8436,5.60839l-0.73403,0.84992l-0.30147,0.94747c-1.80371,3.45536 -2.82353,7.38485 -2.82353,11.55253v2l0.39063,3.90625l0.02641,0.08301l0.00119,0.08711l0.86469,3.82932l1,3l0.37052,0.82656l0.30045,0.94426l0.04611,0.29394v10.2598l-0.25356,0.70635l-1,4l-0.2815,1.92359l-0.07431,0.23355l-0.08661,0.86603l-0.12602,0.86118l0.01545,0.2446l-0.19344,1.93443v7l0.24512,2.45121l0.24036,2.45168l1,5l0.71179,2.3252l0.04451,0.28369l0.21557,0.56588l0.17725,0.57902l0.13905,0.25126l0.86568,2.2724l0.34497,0.68992l0.2575,1.64153l1.39754,3.66855l0.18092,0.36183l0.30476,0.95783l0.08654,0.1002l0.41517,1.1909l1.49829,4.70891l1.21174,1.40306l0.66326,1.09694l0.56583,0.75444l0.71708,2.15125l1.60584,3.58227l0.53203,0.72998l0.35223,0.83177l2.24557,3.22006l4.45397,5.1963l2.82137,4.93739l1.41056,1.98079l0.13193,0.25507l0.38346,0.46866l0.35125,0.49325l0.21137,0.19439l1.53985,1.88204l1.73222,1.73221l15.74045,16.72423l2.96166,2.57681l0.40867,0.22733l0.33517,0.32611l1.38855,0.87697l0.93793,0.76739l0.16204,0.18388l0.69806,0.51984l0.67362,0.55114l0.21769,0.1126l1.55924,1.16113l0.21666,0.12999l2.46266,2.12684l2.20766,2.26898l0.81072,0.3378l0.6647,0.57407l2.1303,0.67782l0.65439,0.6367l1.40587,1.7115l1.98656,1.58925l1.82337,1.7741l1.87266,1.18273l1.3595,1.0876l0.97642,0.27069l5.11059,2.55529l1.65681,0.63116l1.61784,0.72524l2.30304,0.76768l4.31789,1.72715l0.70732,0.20403l0.67175,0.30113l1.31448,0.43816l2.41087,1.20544l1.65681,0.63116l1.61784,0.72524l2.30304,0.76768l4.31789,1.72715l3.77193,1.08806l0.8216,0.05963l0.78498,0.24977l3.90625,0.39063h7.91509l21.75814,1.89201l9.83917,0.98392h1.24689l1.2407,0.12407h27.04915l-0.51054,1.02108l-0.41361,0.47892l-0.30476,0.95782l-0.18092,0.36184l-0.51637,1.35547h-74.60032c-0.11694,-0.01945 -0.23393,-0.03877 -0.35098,-0.05797c-6.95209,-1.14009 -13.22341,-4.88127 -20.10825,-6.37073c-9.60771,-2.07852 -19.22025,-2.87808 -28.76088,-5.25769c-4.93216,-1.23017 -8.64815,-5.9113 -12.66319,-8.65234c-3.20447,-2.18767 -5.11642,-2.87774 -8.88906,-5.1771c-1.97423,-1.20325 -3.1078,-3.64162 -5.25026,-4.53431c-12.15902,-5.06626 -23.20175,-11.54071 -34.44274,-18.4454c-5.74532,-3.52902 -11.04191,-8.9087 -17.29899,-11.60679c-7.59293,-3.27412 -19.6093,-5.03269 -26.33501,-6.47748c-6.60733,-1.41936 -15.14017,-0.75109 -21.02572,-0.75109c-2.46106,0 -5.02402,1.14278 -7.368,1.15576c-8.24016,0.04565 -13.00279,0.31236 -20.62473,2.84608c-3.98421,1.32445 -11.94354,2.08175 -16.31106,2.54454c-7.5931,0.80458 -15.14079,2.86103 -22.74652,3.60937c-4.389,0.43184 -8.46003,-0.10532 -12.85902,1.24178c-6.28473,1.92456 -12.3264,6.06232 -18.07942,8.60298c-6.19023,2.73374 -12.49757,3.27253 -18.92162,4.85527c-2.1438,0.52818 -4.97187,2.25495 -6.96266,2.29998c-2.27368,0.05142 -4.31309,-0.08757 -6.60089,0.41823c-10.75654,2.37815 -20.91745,5.39678 -31.99269,5.58177c-4.58701,0.07662 -19.99361,0.81488 -32.45792,0.18908c-0.55461,-3.20417 -1.09152,-6.41129 -1.59889,-9.62334c-0.22299,-1.41171 1.5584,-2.60718 1.84296,-3.66005c0.79698,-2.94881 1.66702,-11.97805 0.86469,-14.9467c-1.63553,-6.05145 -5.12513,-7.38377 -7.97406,-11.33889c-1.23288,-1.71158 -0.19091,-2.67543 -1.00091,-4.42264c-1.18173,-2.54906 -2.60154,-5.00041 -4.22456,-7.29387c-1.58012,-2.23283 -5.87614,-5.18074 -7.66657,-6.68324c-0.34669,-0.29094 -0.69045,-0.60001 -1.03307,-0.92107c0.77347,-3.81032 1.72726,-7.47435 3.1682,-10.79474c2.0596,-4.74596 7.54585,-7.08214 11.42281,-10.50781c4.9899,-4.40906 9.2805,-8.18996 13.72006,-13.14974c1.81784,-2.03085 7.12229,-3.3667 9.18666,-4.48631c1.98563,-1.0769 5.85993,-5.30181 7.9268,-5.36068c2.66193,-0.07581 7.26421,-1.48358 9.78571,-1c8.36956,1.60515 11.088,3.5448 20.10714,3c8.75284,-0.52871 16.84717,-4.86897 24.50164,-8.84225c2.68797,-1.39527 10.49013,-7.53068 15.52118,-8.46004c3.7814,-0.69852 7.58093,-1.87459 10.97719,-3.57272c6.43368,-3.21684 10.11081,-8.45785 14.14467,-14.01811c7.98273,-11.00336 15.90465,-24.77342 7.73033,-38.60689c-7.59122,-12.84669 -23.40393,-15.979 -36.32812,-8.59375c-6.374,3.64229 -6.09879,7.85313 -9.51001,12.11833c-0.91031,1.1382 -1.20721,4.59318 -2.06975,4.96741c-7.85858,3.40956 -24.58928,13.44267 -28.44399,14.29561c-2.12431,0.47005 -9.19211,-2.20947 -12.52312,-2.28759c-5.60189,-0.13139 -9.8636,0.83319 -15.07764,1c-5.671,0.18143 -10.91377,-0.44872 -16.43415,1.24178c-1.53425,0.46983 -7.55048,2.49363 -8.94133,3.66447c-2.56642,2.16045 -4.37751,5.14004 -7.00394,7.22712c-1.43628,1.14134 -4.74284,2.07952 -6.41044,3.06537c-3.23979,1.9153 -6.40135,4.41627 -9.66826,6.1893c-0.58188,0.3158 -1.42073,0.0804 -1.91736,0.51821c-3.53872,3.11953 -5.22645,7.13379 -7.84204,9.91426c-8.40746,8.93743 -20.87662,15.50875 -26.81608,26.69153c-2.39047,4.50077 -4.44605,10.53803 -6.23103,17.07415zM41.06096,361.33241c0.3942,1.45856 1.4905,2.70126 2.63397,3.68881c1.12647,1.3092 2.38624,2.50043 3.75824,3.55261c0.84069,0.75855 39.06023,2.59326 45.38786,2.15002c7.19051,-0.50369 14.05455,-0.03445 21.23547,-1.59533c1.20784,-0.26254 108.73451,-20.34201 116.7494,-21.42194c15.30765,-2.06256 30.63603,-6.69889 40.79048,-19.00731c5.40559,-6.55223 6.34466,-18.60312 3.6049,-28.37986c2.1582,-1.87213 4.16842,-3.85622 5.95368,-5.97819c8.4685,-10.06568 14.13528,-22.91571 16.29868,-35.82131c0.84855,-5.06198 2.05258,-9.16537 0.43317,-14.61738c-5.48823,-18.47706 -28.90609,-24.33152 -42.44373,-10.61094c-7.2851,7.38355 -216.56828,124.33922 -214.40211,128.04081z" fill="#00ffff" stroke="#3eb318" stroke-width="0"/><path d="M155.83358,425.08453c3.59642,-1.7409 6.99619,-3.91568 10.72136,-5.36068c2.1802,-0.8457 4.67875,-0.14748 7.00455,-0.39062c6.67394,-0.6977 13.29728,-2.2993 20,-3c16.35546,-1.7098 36.15091,-8.63379 52.34944,-6.60937c16.03741,2.00427 22.58675,9.97655 34.00671,17.17513h-128.27775c1.43578,-0.557 2.83961,-1.15802 4.19569,-1.81445z" fill="#00ffff" stroke="#3eb318" stroke-width="0"/><path d="" fill="#00ffff" stroke="#3eb318" stroke-width="0"/><path d="M785.7642,426.86519l1.38855,-0.87697l0.06244,-0.06075l0.07738,-0.04002l3.03835,-2.48592l1.53695,-1.53695l1.1393,-0.81379l0.27521,-0.02013l1.61953,-0.83768l1.50962,-0.54192l2.38821,-1.4742l2.49284,-1.2894l0.45605,-0.37313l1.81088,-0.18108l1.77026,-0.56327l1.83528,-0.28788l3.66855,-1.39754l0.36184,-0.18092l0.43733,-0.13915l0.75393,0.09424l1.64372,-0.47256l0.52909,-0.05291l3.23338,-1.0288l3.261,-0.93754l0.46959,-0.24947l1.62978,-0.51856l0.23263,-0.20091l3.44771,-1.31341l0.36184,-0.18092l0.56815,-0.18078l0.01468,0.00102l0.18664,-0.06507l0.18836,-0.05993l0.01113,-0.00962l4.27996,-1.4921l4.31605,-1.37328h15.0499l0.97544,0.80125l3,2l2.14748,1.14085l0.23207,0.16913l0.55257,0.2477l0.53476,0.2841l0.27598,0.07934l0.30354,0.13606l1.73122,1.44269l0.5426,0.69762l1.29996,0.7194l2.49366,1.68802l2.10674,0.85783l1.99025,1.1014l2.28233,0.69867l1.36976,1.14146l3.25093,2.20064l0.67593,0.27522l0.58979,0.42985l3.58227,1.60584l2.30304,0.76768l2.45798,0.98319l2.17641,1.30584l0.53512,0.40134h-103.49719z" fill="#00ffff" stroke="#3eb318" stroke-width="0"/><path d="M753.31095,85.89898c0,-35.89851 29.10149,-65 65,-65c35.89851,0 65,29.10149 65,65c0,35.89851 -29.10149,65 -65,65c-35.89851,0 -65,-29.10149 -65,-65z" fill="#ffff00" stroke="#3eb318" stroke-width="0"/><path d="M-87,705.17v-559h41.53947l-0.63322,0.54687l-0.46562,1.72279l-1.24189,1.86283l-0.72932,1.37283l-0.83011,1.31434l-3,6l-0.63116,1.65681l-0.72524,1.61784l-1,3l-0.77921,3.45079l-0.6673,0.81559l-0.85348,1.65006l-1.09417,1.5013l-1.60584,3.58227l-0.12793,0.38378l-0.46179,0.89279l-0.04618,0.63111l-1.36411,4.09232l-0.86469,3.82932l-0.00119,0.08711l-0.02641,0.08302l-0.39062,3.90625v0.98913l-0.15576,0.61332l0.15576,0.993v0.40454l0.39063,3.90625l0.56327,1.77027l0.28789,1.83527l1.39754,3.66855l0.18092,0.36183l0.30476,0.95783l0.41361,0.47891l0.10071,0.20143l0.13258,0.20992l0.3531,1.10974l1.29435,1.49872l0.31628,0.50078l1.03414,1.06286l4.7771,5.53138l2.25179,0.60859l8.70748,3.62811l2.69701,-0.54582l0.79685,0.21537l5.54774,-1.49939l5.6326,-1.13993l0.61641,-0.54899l2.65637,-0.71794l6.16566,-7.13919l1.74189,-1.55137l1.76369,-6.94451l1.59272,-3.55299l0.12793,-0.38378l0.46179,-0.89279l0.02273,-0.31061l0.03742,-0.07235l1.07623,-1.24617h0.55682l1.377,-0.1377l1.38379,-0.01521l7.98998,-0.88778l66.98421,-1.97012l1.27954,-0.16608l1.28958,-0.04242l21.76081,-2.90144l54.6101,17.73661c-5.4705,-0.42637 -11.21217,0.83697 -16.4749,3.84424c-6.374,3.64229 -6.09879,7.85313 -9.51001,12.11833c-0.91031,1.1382 -1.20721,4.59318 -2.06975,4.96741c-7.85858,3.40956 -24.58928,13.44267 -28.44399,14.29561c-2.12431,0.47005 -9.19211,-2.20947 -12.52312,-2.28759c-5.60189,-0.13139 -9.8636,0.83319 -15.07764,1c-5.671,0.18143 -10.91377,-0.44872 -16.43415,1.24178c-1.53425,0.46983 -7.55048,2.49363 -8.94133,3.66447c-2.56642,2.16045 -4.37751,5.14004 -7.00394,7.22712c-1.43628,1.14134 -4.74284,2.07952 -6.41044,3.06537c-3.23979,1.9153 -6.40135,4.41627 -9.66826,6.1893c-0.58188,0.3158 -1.42073,0.0804 -1.91736,0.51821c-3.53872,3.11953 -5.22645,7.13379 -7.84204,9.91426c-8.40746,8.93743 -20.87662,15.50875 -26.81608,26.69153c-5.50586,10.36641 -9.23513,28.88388 -11.9733,42.8739c-1.23402,2.95961 -1.91546,6.20726 -1.91546,9.61406c0,0.12888 0.00098,0.25752 0.00292,0.38594c-0.81257,5.18012 1.23614,10.22191 4.75816,14.41314c0.46889,0.9861 2.20519,2.06807 1.41319,2.71293c-13.22894,10.77116 -17.0002,27.45103 -11.9325,43.99978c1.8053,5.89528 4.67798,12.21787 8.49386,16.98771c2.33311,2.91638 7.58345,6.39264 7.55227,10.66575c-0.03271,4.48359 -1.2993,9.98401 -0.61836,14.32861c0.17368,1.10813 1.49466,2.00253 1.29423,3.10614c-0.51017,2.80905 -3.25321,5.05144 -3.29423,7.90614c-0.04536,3.15694 0.26202,6.4061 1.05912,9.49752c-1.04054,1.78175 -1.87906,3.51547 -2.44574,5.09065c-0.26466,0.73566 -4.46848,11.94538 -4.89229,15.99944c-1.00299,9.59429 -1.85095,22.2356 2.73438,31.40625c1.81666,3.63331 3.50851,5.97635 6.45358,8.92142c1.17653,1.17653 3.05641,1.95796 3.49623,3.56265c1.04099,3.79803 2.61885,7.09213 4.2879,10.64306c2.15524,4.58528 0.16404,11.1383 1.02791,16.27913c1.85569,11.04303 7.52046,21.30396 12.2487,31.27409c2.01212,4.24283 10.6803,21.72805 13.17051,24.25191c7.06411,7.15958 13.80821,9.43265 24.25356,6.82131c14.68251,-3.67063 20.945,-16.46878 18.19017,-30.31695c-2.15725,-10.84421 -11.93993,-24.5709 -16.57702,-35.17122c-3.61944,-8.27397 -1.22357,-18.47741 -3.91832,-27.27718c-1.05968,-3.4604 -2.59183,-5.87276 -4.12093,-9.11533c-1.29723,-2.75087 -1.32397,-6.16545 -2.76229,-8.87288c-1.54509,-2.90841 -3.67818,-6.63135 -5.71141,-9.13932c-1.02446,-1.26366 -2.69738,-2.1575 -3.16359,-3.71602c-0.40826,-1.36478 -0.09597,-2.5474 0.48777,-3.63718c1.39323,0.081 2.79761,0.11504 4.20786,0.12796c1.50611,0.01379 3.64202,-0.57768 5.81556,-1.30771c0.13092,0.14375 0.26348,0.28598 0.39768,0.42664c6.39813,9.08719 27.67167,9.63128 36.01792,16.29326c2.1128,1.68643 3.56382,4.06637 5.38798,6.06147c3.39221,3.71009 8.23044,7.58334 11.40175,10.55607c0.62715,0.58788 0.62872,1.63667 1.18974,2.28796c2.04716,2.37659 5.98295,5.68134 8.59375,7.42188c5.54049,3.69366 20.5725,8.89359 27.43661,10.37856c2.50937,0.54287 6.34103,-0.07958 8.54422,0.9377c4.25342,1.96393 7.59512,4.2158 12.00738,5.56696c3.3073,1.01279 7.01228,1.20794 10.22862,2.55104c10.08374,4.21084 21.27952,13.18595 32.81708,7.41717c4.4637,-2.23185 8.49908,-5.70653 11.26735,-9.85893c2.76827,-4.1524 4.42359,-9.21379 4.76695,-14.19252c1.09078,-15.81637 -20.95692,-27.42176 -34.05642,-31.4332c-3.3073,-1.01279 -7.01228,-1.20794 -10.22862,-2.55104c-4.30585,-1.79807 -7.92148,-4.08335 -12.37747,-5.40782c-4.02835,-1.19735 -9.32905,-0.66581 -13.00399,-2.28292c-2.79799,-1.23121 -6.20596,-2.12643 -8.88656,-3.56647c-9.63782,-5.17752 -16.01694,-17.63767 -25.14763,-24.23479c-7.85925,-5.67847 -17.16991,-8.15868 -25.9746,-11.77824c0.99482,-7.25892 -0.16625,-14.65475 -4.31336,-21.4205c-0.16964,-0.27676 -0.29596,-0.5701 -0.39256,-0.87498c9.71717,-0.05544 19.45903,-0.34971 28.99204,-1.30301c7.42752,-0.74275 14.64284,-3.14533 21.87791,-4.82201c7.94238,-1.84059 16.67349,-2.8023 24.81109,-4.9619c6.75115,-1.79166 14.04211,-3.64223 20.31231,-6.67742c3.59642,-1.7409 6.99619,-3.91568 10.72136,-5.36068c2.1802,-0.8457 4.67875,-0.14748 7.00455,-0.39062c6.67394,-0.6977 13.29728,-2.2993 20,-3c16.35546,-1.7098 36.15091,-8.63379 52.34944,-6.60937c18.45963,2.30699 24.34868,12.52089 39.56397,20.36068c9.74963,5.02357 19.58609,10.13081 28.99155,15.74081c3.56776,2.12803 6.84167,6.40227 10.21336,8.86165c3.80475,2.77527 10.0408,4.69455 14.47542,6.91186c7.64113,3.82056 20.36152,5.58447 28.73026,6.125c8.07284,0.52142 15.66303,4.43244 23.25795,6.75822c5.40993,1.65668 11.20315,1.91859 16.71572,3.06217c3.97463,0.82453 9.066,1.9152 12.76188,3.36826c2.53408,0.99629 4.81751,3.12072 7.54033,3.1418c14.88744,0.11529 27.56893,-8.53305 28.64962,-23.93292c0.57672,-8.21832 -5.76117,-21.98313 -13.65576,-25.27254c-2.96809,-1.2367 -5.88505,-2.68233 -9.00614,-3.45546c-1.0229,-0.25338 -2.73621,0.64608 -3.99248,0.33046c-7.45445,-1.87282 -14.77192,-3.64341 -22.32973,-4.88284c-6.95209,-1.14009 -13.22341,-4.88127 -20.10825,-6.37073c-9.60771,-2.07852 -19.22025,-2.87808 -28.76088,-5.25769c-4.93216,-1.23017 -8.64815,-5.9113 -12.66319,-8.65234c-3.20447,-2.18767 -5.11642,-2.87774 -8.88906,-5.1771c-1.97423,-1.20325 -3.1078,-3.64162 -5.25026,-4.53431c-12.15902,-5.06626 -23.20175,-11.54071 -34.44274,-18.4454c-5.74532,-3.52902 -11.04191,-8.9087 -17.29899,-11.60679c-7.59293,-3.27412 -19.6093,-5.03269 -26.33501,-6.47748c-6.60733,-1.41936 -15.14017,-0.75109 -21.02572,-0.75109c-2.46106,0 -5.02402,1.14278 -7.368,1.15576c-8.24016,0.04565 -13.00279,0.31236 -20.62473,2.84608c-3.98421,1.32445 -11.94354,2.08175 -16.31106,2.54454c-7.5931,0.80458 -15.14079,2.86103 -22.74652,3.60937c-4.389,0.43184 -8.46003,-0.10532 -12.85902,1.24178c-6.28473,1.92456 -12.3264,6.06232 -18.07942,8.60298c-6.19023,2.73374 -12.49757,3.27253 -18.92162,4.85527c-2.1438,0.52818 -4.97187,2.25495 -6.96266,2.29998c-2.27368,0.05142 -4.31309,-0.08757 -6.60089,0.41823c-10.75654,2.37815 -20.91745,5.39678 -31.99269,5.58177c-4.58701,0.07662 -19.99361,0.81488 -32.45792,0.18908c-0.55461,-3.20417 -1.09152,-6.41129 -1.59889,-9.62334c-0.22299,-1.41171 1.5584,-2.60718 1.84296,-3.66005c0.79698,-2.94881 -4.26045,-22.33047 -7.10937,-26.28559c-1.23288,-1.71158 -0.19091,-2.67543 -1.00091,-4.42264c-1.18173,-2.54906 -2.60154,-5.00041 -4.22456,-7.29387c-1.58012,-2.23283 -5.87614,-5.18074 -7.66657,-6.68324c-0.34669,-0.29094 -0.69045,-0.60001 -1.03307,-0.92107c0.77347,-3.81032 1.72726,-7.47435 3.1682,-10.79474c2.0596,-4.74596 7.54585,-7.08214 11.42281,-10.50781c4.9899,-4.40906 9.2805,-8.18996 13.72006,-13.14974c1.81784,-2.03085 7.12229,-3.3667 9.18666,-4.48631c1.98563,-1.0769 5.85993,-5.30181 7.9268,-5.36068c2.66193,-0.07581 7.26421,-1.48358 9.78571,-1c8.36956,1.60515 11.088,3.5448 20.10714,3c8.75284,-0.52871 16.84717,-4.86897 24.50164,-8.84225c2.68797,-1.39527 10.49013,-7.53068 15.52118,-8.46004c3.7814,-0.69852 7.58093,-1.87459 10.97719,-3.57272c6.43368,-3.21684 10.11081,-8.45785 14.14467,-14.01811c7.98273,-11.00336 15.90465,-24.77342 7.73033,-38.60689c-2.21223,-3.74377 -5.12266,-6.66254 -8.45634,-8.73644l32.20556,10.45992l1.64616,0.35839l0.18083,0.07423l1.00779,0.18455l1.0011,0.21795l0.19547,0.00117l1.65716,0.30347l49,4l0.6522,-0.01188l0.64688,0.08396l25.32981,0.745c-5.44829,0.60732 16.18543,1.74625 7.16334,0.21068l1.50685,0.04432l0.72451,-0.05099l0.72446,0.0516l15.97077,-0.45631l0.40954,0.18359l3.65155,1.21718l4.85067,2.77181l1.44863,0.64601l0.14188,0.09696l1.0035,0.41381l0.99137,0.4421l0.16803,0.03601l1.46636,0.60469l9.63727,2.89118l8.20168,2.73389l3.90599,1.46474c-1.587,-0.31591 -3.22816,-0.48159 -4.90801,-0.48159c-4.59848,0 -8.90697,1.24155 -12.60856,3.40772l-1.84456,0.49853l-1.84425,2.13544c-1.87802,1.6159 -3.51328,3.50609 -4.8436,5.60839l-0.73403,0.84992l-0.30147,0.94747c-1.80371,3.45536 -2.82353,7.38485 -2.82353,11.55253v2l0.39063,3.90625l0.02641,0.08301l0.00119,0.08711l0.86469,3.82932l1,3l0.37052,0.82656l0.30045,0.94426l0.04611,0.29394v10.2598l-0.25356,0.70635l-1,4l-0.2815,1.92359l-0.07431,0.23355l-0.08661,0.86603l-0.12602,0.86118l0.01545,0.2446l-0.19344,1.93443v7l0.24512,2.45121l0.24036,2.45168l1,5l0.71179,2.3252l0.04451,0.28369l0.21557,0.56588l0.17725,0.57902l0.13905,0.25126l0.86568,2.2724l0.34497,0.68992l0.2575,1.64153l1.39754,3.66855l0.18092,0.36183l0.30476,0.95783l0.08654,0.1002l0.41517,1.1909l1.49829,4.70891l1.21174,1.40306l0.66326,1.09694l0.56583,0.75444l0.71708,2.15125l1.60584,3.58227l0.53203,0.72998l0.35223,0.83177l2.24557,3.22006l4.45397,5.1963l2.82137,4.93739l1.41056,1.98079l0.13193,0.25507l0.38346,0.46866l0.35125,0.49325l0.21137,0.19439l1.53985,1.88204l1.73222,1.73221l15.74045,16.72423l2.96166,2.57681l0.40867,0.22733l0.33517,0.32611l1.38855,0.87697l0.93793,0.76739l0.16204,0.18388l0.69806,0.51984l0.67362,0.55114l0.21769,0.1126l1.55924,1.16113l0.21666,0.12999l2.46266,2.12684l2.20766,2.26898l0.81072,0.3378l0.6647,0.57407l2.1303,0.67782l0.65439,0.6367l1.40587,1.7115l1.98656,1.58925l1.82337,1.7741l1.87266,1.18273l1.3595,1.0876l0.97642,0.27069l5.11059,2.55529l1.65681,0.63116l1.61784,0.72524l2.30304,0.76768l4.31789,1.72715l0.70732,0.20403l0.67175,0.30113l1.31448,0.43816l2.41087,1.20544l1.65681,0.63116l1.61784,0.72524l2.30304,0.76768l4.31789,1.72715l3.77193,1.08806l0.8216,0.05963l0.78498,0.24977l3.90625,0.39063h7.91509l21.75814,1.89201l9.83917,0.98392h1.24689l1.2407,0.12407h27.04915l-0.51054,1.02108l-0.41361,0.47892l-0.30476,0.95782l-0.18092,0.36184l-1.39754,3.66854l-0.28789,1.83527l-0.56327,1.77027l-0.39062,3.90625v0.40454l-0.15576,0.993l0.15576,0.61332v8.98914l0.39063,3.90625l0.02641,0.08301l0.00119,0.08711l0.50244,2.2251l-0.07644,0.30098l0.15576,0.993v0.40455l0.39063,3.90625l0.56327,1.77026l0.04611,0.29394v1.02955l0.24512,2.45121l0.24036,2.45168l0.51452,2.57259v0.52452l0.39063,3.90625l0.02641,0.08301l0.00119,0.08711l0.86469,3.82932l1.01093,3.03279l0.09677,0.96777l0.56327,1.77026l0.28789,1.83527l1.39754,3.66855l0.18092,0.36183l0.30476,0.95783l0.25446,0.29464l0.01116,0.11161l0.02641,0.08301l0.00119,0.08711l0.86469,3.82932l1,3l0.30113,0.67175l0.20404,0.70732l0.89781,2.24454l0.0073,0.09982l0.14392,0.27824l0.95096,2.3774l1.81343,3.48179l0.7167,0.87093l0.51819,1.00184l0.84765,1.03601l0.38875,1.08294l0.18621,0.30165l0.09795,0.3407l1.84178,3.46688l0.40356,0.60534l0.20392,0.5438l-21.74109,-4.49815l-0.08272,-0.00867l-0.07952,-0.02434l-25,-5l-0.21914,-0.02148l-0.21164,-0.06075l-11,-2l-1.41207,-0.11347l-1.39709,-0.23441l-30,-2l-0.68809,0.02278l-0.68421,-0.07646l-86,-1l-0.14542,0.01283l-0.14526,-0.01452h-26.0983l-6.72136,-3.36068l-1.31724,-0.50181l-0.10483,-0.06471l-1.12725,-0.40465l-1.11922,-0.42637l-0.12171,-0.01909l-1.32669,-0.47625l-1.88562,-0.47141l-1.31027,-1.07629l-3,-2l-1.37283,-0.72931l-1.31434,-0.83011l-0.86775,-0.43388l-1.67327,-1.36903l-0.07738,-0.04002l-0.06243,-0.06076l-3.28483,-2.07463l-2.21467,-1.661l-1.92133,-1.16174l-1.89833,-1.19894l-1.31953,-0.65977l-10.71225,-9.06421l-3.2343,-2.22501l-0.08043,-0.03346l-0.06727,-0.05536l-3.48179,-1.81343l-1.03554,-0.41422l-4.78661,-4.18829l-1.81383,-1.29262l-1.78639,-1.33029l-5,-3l-0.86935,-0.41008l-0.8127,-0.51328l-1.37935,-0.68968l-3.75428,-2.1453l-0.18158,-0.20881l-0.02822,-0.02658l-0.02249,-0.03157l-4.48781,-5.12892l-0.23286,-0.86159l-2.13258,-1.84178l-0.14675,-0.16771l-2.86626,-2.68252l-0.95836,-0.57958l-2.4898,-2.15028l-2.24909,-0.71563l-2.0196,-1.22137l-3.2578,-0.4578l-1.06726,-0.33958l-3.90625,-0.39062h-0.22285l-2.79039,-0.39212l-0.80176,0.39212h-0.185l-0.24705,0.0247l-1.15049,-0.18047l-1.91935,0.48746l-0.58936,0.05894l-1.41313,0.44963l-7.08381,1.79907l-1.55138,1.74189l-7.13918,6.16566l-0.71794,2.65637l-0.54899,0.61641l-1.13993,5.63259l-1.49939,5.54775l0.21536,0.79685l-0.54582,2.69701l3.62812,8.70747l0.60859,2.2518l5.53139,4.7771l1.06286,1.03414l0.50078,0.31628l1.49873,1.29436l0.8068,0.25671l2.81741,2.34783l4.19812,4.19813l1.83116,1.49822l14.98137,17.22858l0.40176,0.37834l0.3384,0.43593l19,20l0.24363,0.20999l0.20368,0.24895l2.60996,2.60995l0.63547,0.90255l1.55155,0.95774l1.24138,1.01567l2.49284,1.2894l2.38821,1.4742l1.50962,0.54192l1.61953,0.83769l1.00509,0.07354l1.76164,1.05698l0.86935,0.41008l0.8127,0.51328l2,1l1.31724,0.5018l0.10483,0.06471l1.12725,0.40466l1.11923,0.42637l0.1217,0.01909l1.3267,0.47625l4,1l1.92359,0.2815l0.23355,0.07431l0.86604,0.0866l0.86118,0.12603l0.2446,-0.01545l1.93443,0.19344h0.2233l12.24116,1.74874l1.0804,0.04565l1.06838,0.16712l7.20907,0.40051l0.24289,0.12144l5.40384,3.85988l0.95274,0.54624l0.01382,0.01228l1.2205,0.6954l1.21863,0.69867l0.01759,0.00568l0.95421,0.54368l9,4l1.14632,0.37805l1.10145,0.49375l3,1l0.2846,0.06426l0.26894,0.11313l12.01969,3.69836l4.04769,1.61907l0.08355,0.02411c-3.7043,1.45343 -7.35617,3.09632 -11.11129,4.07269c-12.26779,3.18978 -24.68626,5.11832 -36.50206,9.69128c-3.56349,1.37915 -11.54963,1.80692 -15.7449,2.04868c-9.73035,0.56074 -19.58692,0.89904 -29.24197,2.24202c-12.01406,1.67111 -23.49614,1.83595 -35.46197,2.81196c-7.78325,0.63486 -15.07935,2.25256 -22.80567,2.89733c-4.00876,0.33453 -8.4233,-0.27017 -12.54806,0.13736c-14.99576,1.4816 -30.63107,5.07083 -45.71336,4.86264c-4.97169,-0.06863 -13.67786,-9.92786 -19.0404,-11.30679c-14.45178,-3.71618 -27.84794,5.25022 -31.76456,19.61116c-2.97336,10.90233 5.26652,20.67626 12.45777,27.3733c4.43679,4.13188 9.67602,5.87195 15.12667,8.54649c4.44663,2.18188 7.64964,4.20317 12.64475,5.38522c13.29612,3.14641 29.645,-1.22374 42.86743,-2.78296c5.7756,-0.68107 11.54767,-1.4484 17.35099,-1.82642c4.70935,-0.30676 9.96617,0.38862 14.79781,-0.34015c9.07346,-1.36858 11.31676,-2.28348 20.02405,-2.65985c15.59728,-0.67417 30.84751,-1.42601 46.34147,-4c7.22785,-1.20075 14.82467,-0.84424 22.12697,-0.84424c4.6966,0 12.33779,-1.86849 17.30379,-2.54639c4.61678,-0.63023 8.92897,-3.04126 13.24739,-4.545c9.07524,-3.16014 19.55978,-4.37188 28.90976,-6.81081c5.22199,-1.36215 9.42025,-4.29831 14.99355,-5.25356c4.23395,-0.72569 9.03232,0.30332 13.41519,-0.40325c8.44607,-1.36162 15.84309,-0.87442 24.17252,-1.73703c7.13128,-0.73852 37.21719,-2.45902 53.25826,-5.3452c14.41554,-2.5937 31.64285,-6.22355 44.64027,-9.18483c6.32368,-1.44076 12.54209,-3.33299 18.88887,-4.66829c1.35588,-0.28526 4.77779,-0.33246 7.70144,-0.6614h106.86651l1.25946,-0.12595l0.07738,0.00753l1.28391,-0.14365l1.2855,-0.12855l0.07408,-0.02357l1.2579,-0.14074l14,-3l0.1877,-0.06029l0.19556,-0.02499l12.36496,-2.85345l16.35819,-2.88674l1.76873,-0.49779l1.79233,-0.40472l15,-5l3.58227,-1.60584l0.0704,-0.05131l0.08226,-0.02868l3.35938,-2.03125l2.1966,-1.64745l1.98374,-0.99187l1.10914,-0.70051l1.17025,-0.59277l36,-23l0.19189,-0.15146l0.21589,-0.11469l6,-4l1.90356,-1.56365l1.9066,-1.55994l2.96299,-2.96299c0.63392,0.3443 1.29966,0.76303 2.00455,1.26923c7.63779,5.48482 14.72177,12.27872 23.22953,16.31202c11.62167,5.50954 21.81184,6.8286 33.84117,10.65246c8.04098,2.55605 15.86077,5.76251 23.81611,8.5738c6.27887,2.21885 16.57416,3.84317 20.72366,4.81115c16.98675,3.96256 35.06715,8.34427 52.64723,5.18119c10.17407,-1.83056 17.01774,-4.35603 26.64067,-8.01968c1.31023,-0.49883 4.61576,-3.08223 5.84425,-3.04046c10.80385,0.36735 12.19498,3.31817 22.28985,-6.7767c7.61329,-7.61329 9.13395,-14.5658 6.62912,-24.3068c-0.65124,-2.5326 -3.85648,-8.64937 -6.62476,-11.04321c-2.23818,-1.93545 -4.50221,-4.81655 -7.18204,-6.20267c-9.52511,-4.92678 -22.09635,-4.03079 -31.68034,0.51432c-6.22487,2.95209 -11.65134,6.67786 -18.46042,8.39373c-6.06164,1.52753 -9.41716,1.4611 -16.58254,0.96695c-11.42226,-0.78773 -27.75518,-4.70958 -38.80304,-8.06014c-6.04067,-1.832 -17.29675,-6.97055 -25.91026,-9.19342c-4.92719,-1.27156 -9.92547,-2.27606 -14.81007,-3.70251c-10.72439,-3.13186 -17.95943,-10.04217 -26.70862,-16.00585l0.70886,-1.97468l0.65464,-2.61858l0.88002,-2.3467l0.37536,-0.45878l0.20336,-0.39316l1.50805,-1.74616l0.96683,-3.03861l1.46497,-2.83227l0.16838,-2.30108l0.1342,-0.42179l0.39063,-3.90625v-2.02955l0.04611,-0.29394l0.56327,-1.77026l0.39063,-3.90625v-0.40455l0.15576,-0.993l-0.15576,-0.61332v-11.98913l-0.19344,-1.93443l0.01545,-0.2446l-0.12603,-0.86118l-0.0866,-0.86603l-0.07431,-0.23355l-0.2815,-1.92359l-0.86622,-3.46486l-0.08056,-1.10088l-0.83768,-1.61953l-0.54192,-1.50961l-1.4742,-2.38821l-1.2894,-2.49284l-0.21771,-0.26609l1.40872,-1.15259l2.50779,-1.50468l1.03419,-0.77014l1.10342,-0.66718l4,-3l1.30548,-1.19963l0.80548,-0.65903l1.38855,-0.87697l0.06244,-0.06075l0.07738,-0.04002l3.03835,-2.48592l1.53695,-1.53695l1.1393,-0.81379l0.27521,-0.02013l1.61953,-0.83768l1.50962,-0.54192l2.38821,-1.4742l2.49284,-1.2894l0.45605,-0.37313l1.81088,-0.18108l1.77026,-0.56327l1.83528,-0.28788l3.66855,-1.39754l0.36184,-0.18092l0.43733,-0.13915l0.75393,0.09424l1.64372,-0.47256l0.52909,-0.05291l3.23338,-1.0288l3.261,-0.93754l0.46959,-0.24947l1.62978,-0.51856l0.23263,-0.20091l3.44771,-1.31341l0.36184,-0.18092l0.56815,-0.18078l0.01468,0.00102l0.18664,-0.06507l0.18836,-0.05993l0.01113,-0.00962l4.27996,-1.4921l4.31605,-1.37328h15.0499l0.97544,0.80125l3,2l2.14748,1.14085l0.23207,0.16913l0.55257,0.2477l0.53476,0.2841l0.27598,0.07934l0.30354,0.13606l1.73122,1.44269l0.5426,0.69762l1.29996,0.7194l2.49366,1.68802l2.10674,0.85783l1.99025,1.1014l2.28233,0.69867l1.36976,1.14146l3.25093,2.20064l0.67593,0.27522l0.58979,0.42985l3.58227,1.60584l2.30304,0.76768l2.45798,0.98319l2.17641,1.30584l2.96827,2.22621l1.09694,0.66326l1.40306,1.21174l0.67473,0.21468l0.84985,0.87345l2.12975,0.8874l0.35771,0.2607l3.58227,1.60584l2.56095,0.85365l0.27549,0.1033l1.57541,0.65642l0.11369,-0.02301l5.60208,2.10078l1.94809,0.51636l1.92709,0.58992l6.02184,1.20437l3.47759,1.98719l2.24987,1.00332l2.24791,1.00768l1.31448,0.43816l4.78224,2.39112l1.13131,1.13131l3.03835,2.48592l0.07738,0.04002l0.06244,0.06075l3.31916,2.09631l2.20142,1.10071l0.47892,0.41361l0.95782,0.30476l0.36184,0.18092l3.66855,1.39754l1.83528,0.28788l1.77026,0.56327l0.00507,0.0005l0.38939,0.14834l8.90934,1.39754l11.00564,-2.79509l9.95749,-11.18034l2.96978,-14.6742l-4.36732,-10.48156l-6.46363,-6.28895l-3.31916,-2.09631l-0.20142,-0.10072l-0.47892,-0.4136l-0.95782,-0.30477l-0.36184,-0.18091l-3.54237,-1.34948l-2.99865,-2.45344l-0.07738,-0.04002l-0.06244,-0.06076l-3.31916,-2.09631l-10,-5l-1.6568,-0.63117l-1.61784,-0.72524l-0.65155,-0.21718l-4.85068,-2.77182l-3.58538,-1.59888l-0.08518,-0.01826l-0.07622,-0.04218l-3.75378,-1.14912l-8.01768,-1.60354l-3.37189,-1.26446l-1.53791,-1.58062l-0.81072,-0.3378l-0.66471,-0.57406l-3.01673,-0.95987l-0.67601,-0.28167l-0.91068,-0.55064l-1.03419,-0.77014l-5,-3l-1.8063,-0.85203l-1.77133,-0.92257l-4.78427,-1.9137l-1.41061,-1.1755l-0.5426,-0.69762l-1.29996,-0.7194l-2.49366,-1.68802l-2.10674,-0.85783l-1.99025,-1.1014l-2.28233,-0.69867l-1.36976,-1.14147l-3.25093,-2.20063l-0.67593,-0.27522l-0.58979,-0.42985l-2.47284,-1.10852l-2.37581,-1.94384l-1.65005,-0.85348l-1.50131,-1.09417l-3.31341,-1.48533l-0.30704,-0.20469l-0.32277,-0.17147l-1.04474,-0.90227l-1.62978,-0.51857l-0.46959,-0.24947l-3.261,-0.93754l-3.23338,-1.0288l-0.52909,-0.05291l-1.64372,-0.47257l-1.36976,0.17122l-0.36368,-0.03636h-30l-1.27551,0.12755l-1.84949,-0.12755l-4.6661,1.62671l-4.7089,1.49829l-0.83334,0.71969l-1.80629,0.57473l-3.261,0.93754l-0.46959,0.24947l-1.62978,0.51857l-1.04473,0.90227l-0.32277,0.17147l-0.37569,0.25046l-3.06729,0.88184l-0.59577,0.05958l-0.08302,0.02641l-0.08711,0.00119l-3.82932,0.86468l-3,1l-1.59965,0.71709h-0.49466l-3.90625,0.39063l-0.42179,0.1342l-2.30108,0.16838l-2.83227,1.46497l-3.0386,0.96683l-1.74617,1.50805l-0.39315,0.20335l-0.60462,0.49469l-1.24402,0.55767l-1.50131,1.09417l-0.60575,0.31332l-2.16325,0.77655l-0.64531,0.39834l-0.72168,0.23292l-3.40569,1.9526l-7,5l-1.55057,1.35974l-1.59615,1.30593l-0.71296,0.71296l-1.10887,0.70033l-0.06244,0.06076l-0.07738,0.04002l-3.03835,2.48593l-0.74368,0.74369l-1.54692,1.16018l-3.89413,2.33648l-0.48985,0.36478l-1.11324,-1.56186l-2.34435,-3.79784l-1.69317,-1.19214l-1.49699,-1.37561l-4,-3l-1.92133,-1.16174l-1.89833,-1.19894l-6,-3l-1.31724,-0.50181l-0.10483,-0.06471l-1.12725,-0.40465l-1.11923,-0.42637l-0.12171,-0.01909l-1.32669,-0.47625l-7.06854,-1.76713l-4.913,-1.63767l-0.21434,-0.14289l-3.46688,-1.84178l-1.29883,-0.37341l-1.20294,-0.6159l-3.78889,-1.02749l-1.72344,-0.28724l-0.65309,-0.18777l-0.27057,0.03382l-3.35289,-0.55881l-2.05789,-0.13495l-2.05208,-0.2052h-34.37644l-21.39008,-2.79001l-0.48935,-0.0147l-0.48073,-0.09261l-11,-1l-0.85085,0.00766l-0.84452,-0.10388l-44,-1l-0.28431,0.02192l-0.28373,-0.02837h-7l-2.05208,0.2052l-2.05789,0.13495l-5.49694,0.91616l-5.94952,0.74369h-10.44356l-1.54682,0.15468l-1.55405,0.03837l-8,1l-1.47037,0.33502l-1.49216,0.21837l-5.01425,1.25357h-5.92236l-3.90625,0.39063l-0.08302,0.02641l-0.08711,0.00119l-3.82932,0.86468l-2.08915,0.69639l-13.43721,3.3593l-5.95258,0.6614h-28.36848l-8.7593,-0.87593h-0.16233l-0.15952,-0.03008l-23,-2l-1.08552,0.01403l-1.08022,-0.10802h-4.18544l-0.5298,-0.21192l-0.70732,-0.20404l-0.67175,-0.30113l-1.31448,-0.43816l-2.41087,-1.20543l-1.65681,-0.63117l-1.61784,-0.72524l-2.30304,-0.76768l-4.31789,-1.72715l-0.70732,-0.20404l-0.67175,-0.30113l-0.62799,-0.20933l-0.2085,-0.16681l-0.17858,-0.25053l-2.89062,-2.65625l-2.57864,-1.93399l-0.74369,-0.74369l-3.03835,-2.48593l-0.39315,-0.20335l-1.74617,-1.50805l-0.67473,-0.21469l-0.84984,-0.87345l-1.08125,-0.45052l-0.03178,-0.02366l-2.50779,-1.50467l-2.71528,-2.2216l-0.07738,-0.04002l-0.06243,-0.06076l-0.73832,-0.4663l-13.55618,-14.40345l-0.11791,-0.10259l-2.38101,-4.16676l-1.37186,-1.92644l-1.3528,-1.93987l-2.81296,-3.28179l-0.45137,-1.35413l-1.60584,-3.58227l-0.05131,-0.0704l-0.02868,-0.08226l-1.51421,-2.50428l-1.15636,-3.03544l-0.18091,-0.36184l-0.22206,-0.69788l-0.19949,-1.27174l-1.39754,-3.66854l-0.18091,-0.36184l-0.17977,-0.56497v-0.81522l0.0207,-0.0828l0.69639,-2.08915l0.86469,-3.82932l0.00119,-0.08711l0.02641,-0.08301l0.39063,-3.90625v-15.98914l0.15577,-0.61332l-0.15577,-0.993v-0.40454l-0.39062,-3.90625l-0.56327,-1.77027l-0.28789,-1.83527l-0.14834,-0.38939l-0.00051,-0.00506l-0.56327,-1.77027l-0.28789,-1.83527l-0.93116,-2.44429c-0.36169,-3.0703 -1.27974,-5.97031 -2.6506,-8.59644l-0.30147,-0.94747l-0.73402,-0.84992c-1.33033,-2.10229 -2.96559,-3.99248 -4.84361,-5.60839l-1.84425,-2.13544l-1.84456,-0.49853c-0.51904,-0.30374 -1.05,-0.5893 -1.59204,-0.85581l0.90698,0.29889l18,4l1.39962,0.16735l0.1174,0.03735l1.19174,0.11917l1.18922,0.14219l0.1227,-0.011l1.40259,0.14026h6.61537l16.62384,1.84709l1.38379,0.01521l1.377,0.1377h49l1.76416,-0.17642l1.77138,-0.07485l5.24116,-0.74874h0.2233l3.90625,-0.39062l0.08302,-0.02641l0.08711,-0.00119l3.7579,-0.84856l25.99813,-1.73321h5.16759l2.45122,-0.24512l2.45169,-0.24036l2.57258,-0.51452h4.39484l17.56552,9.16462l2.1667,0.86847l0.24569,0.14288l0.62282,0.20525l0.60869,0.24398l0.27998,0.04888l2.217,0.7306l9,2l1.39962,0.16735l0.1174,0.03735l1.19174,0.11917l1.18922,0.14219l0.1227,-0.011l1.40259,0.14026h18l1.25946,-0.12595l0.07737,0.00753l1.28391,-0.14365l1.28551,-0.12855l0.07408,-0.02357l1.2579,-0.14074l14,-3l1.0614,-0.34089l1.09247,-0.22203l42,-13l2.10265,-0.88859l2.117,-0.85383l17.5451,-9.20198l3.52282,2.21807l3.16972,1.57934l0.11006,0.06983l0.11965,0.04463l0.1143,0.05695l0.12616,0.03273l3.31811,1.23757l18.22091,4.79498l2.23573,0.74524l3.82932,0.86469l0.08711,0.00119l0.08302,0.02641l3.90625,0.39063h3l3.90625,-0.39062l0.52594,-0.16734l0.55121,-0.02798l3.79469,-1.00582l15.71675,-5.89378l0.67063,0.08018l1.57115,0.3027l11,1l0.30229,-0.00272l0.29813,0.05002l12.76889,0.85126l0.89924,0.22481l2.08915,0.69638l3.82932,0.86469l0.08711,0.00119l0.08302,0.02641l0.18013,0.01801l0.45465,0.62656l0.39647,1.24605l3.17697,3.6786l0.95502,1.31614l0.82647,0.74664l2.46341,2.85237l1.47817,0.39951l17.14497,12.63314l2.02811,1.20295l2.01547,1.22401l22.80218,10.90539l0.0053,0.00265l0.47891,0.41361l0.95783,0.30476l0.36183,0.18092l3.66855,1.39754l1.83527,0.28789l1.77027,0.56327l3.90625,0.39063h0.40454l0.993,0.15576l0.62038,-0.15756l3.88833,-0.38883l0.08302,-0.02641l0.08711,-0.00119l3.82932,-0.86469l1.09232,-0.36411l0.63111,-0.04618l0.89279,-0.46179l0.38378,-0.12793l3.58227,-1.60584l1.5013,-1.09417l1.65006,-0.85348l3.03835,-2.48592l0.28605,-0.28605l0.8123,-0.59201l0.32354,-0.54383l1.5781,-1.5781l0.60868,-0.74394l0.69507,-0.66394l6,-7l2.22271,-3.18728l0.00982,-0.01159l0.00591,-0.01097l0.00713,-0.01022l0.00592,-0.01398l1.84402,-3.42035l9.4924,-22.78177l1.17838,-1.35281l0.1961,-1.59782l2.99469,-0.86513l1.56424,-0.62641l1.60137,-0.52428l41.42052,-18.30209l0.7482,-0.13901l0.87853,-0.58568l3.36787,-1.90928l1.54317,-1.36475l1.71409,-1.14273l2.70726,-2.76742l0.79093,-0.69948l0.32577,-0.68775l10.08936,-12.61169l10.09138,-0.72081l1.00342,-0.17325l1.01684,-0.05392l11.79879,-1.8152l16.78653,-0.93258l0.34263,-0.0536l0.34675,0.00573l12,-1l0.50814,-0.09394l0.51659,-0.01276l7.60879,-0.9511l3.29034,0.96775v526.17641z" fill="#3eb218" stroke="#3eb318" stroke-width="0.5"/><path d="" fill="#3eb218" stroke="#3eb318" stroke-width="0.5"/><path d="" fill="#3eb218" stroke="#3eb318" stroke-width="0.5"/></g></g></svg>