<svg version="1.1" xmlns="http://www.w3.org/2000/svg" xmlns:xlink="http://www.w3.org/1999/xlink" width="1012.02531" height="792.82583" viewBox="0,0,1012.02531,792.82583"><g transform="translate(40.9933,26.58748)"><g stroke-miterlimit="10"><path d="M-40.9933,766.23835v-792.82583h951.95654v792.82583z" fill="#00ffff" stroke="#3eb318" stroke-width="0"/><path d="M971.03199,81.83762c0,2.5 -2.5,2.5 -2.5,2.5h-4.5045c-1.43911,-0.12446 -2.87822,-0.24891 -4.31733,-0.37337c-0.65165,-1.12062 -1.08948,-2.39676 -1.95494,-3.36186c-1.27297,-1.41954 -4.54865,-0.78076 -5.73974,-0.76927c-2.82646,0.02726 -6.86003,0.60801 -9.58339,-0.06688c-2.17259,-0.53839 -3.80854,-2.57738 -6.00601,-3.003c-2.26898,-0.43948 -4.62198,0.06688 -6.93313,0.06688c-5.005,0 -10.01001,0 -15.01501,0c-2.33734,0 -9.3106,-1.32274 -10.24424,-0.73224c-0.72533,0.45875 94.93051,579.94709 54.00434,610.16845c-39.87122,29.44234 -968.4898,-32.78905 -970.52415,-31.64559c-2.36678,1.3303 -6.6155,-558.20732 -9.06197,-557.02999c-6.43516,3.09683 12.11761,-12.5427 20.30071,-16.49125c2.40968,-1.16273 5.11408,-1.67951 7.45455,-2.97594c1.57729,-0.87369 2.82861,-2.37814 4.54329,-2.93588c0.2999,-0.09755 7.93299,-0.60483 9.20698,-0.28769c5.13513,1.27831 10.58144,5.84478 14.87722,8.83769c3.04848,0.07765 6.15725,-0.43019 9.14681,0.17131c2.58537,0.52017 13.51371,2.40896 16.51651,3.00301c1.19662,0.23673 2.14268,1.19266 3.29599,1.58991c4.56535,1.5725 5.28475,0.68035 9.89023,2.84026c3.14666,1.47575 2.97872,2.88207 5.7192,4.98386c3.1612,2.42445 7.83188,1.93133 10.8165,4.76484c0.81164,0.77054 0.71014,2.21164 1.5015,3.003c0.79136,0.79136 2.21165,0.71015 3.00301,1.50151c0.79136,0.79136 0.7109,2.21088 1.5015,3.003c0.82985,0.83145 2.42493,0.6871 3.12387,1.63126c0.47455,0.64105 3.98703,8.97335 4.25558,9.93786c0.48919,1.75687 0.33801,3.63172 0.50701,5.44759c0.08664,1.19793 -0.04978,2.43335 0.25992,3.59378c0.29748,1.11464 1.3024,1.97403 1.52797,3.10541c0.31499,1.57986 -0.1139,3.23044 0.05471,4.83254c0.26711,2.53805 1.32241,4.96174 1.5015,7.50751c0.35171,4.99952 -0.34901,10.07191 0.00589,15.06925c0.46351,6.52671 1.8823,13.14315 2.80762,19.62295c2.0812,14.57417 4.5591,28.97849 7.69432,43.36009c0.00677,2.4018 -0.826,4.93157 -0.05203,7.20526c0.51915,1.52512 1.71954,2.76744 2.19133,4.30787c1.43958,4.70033 1.30772,10.33351 2.11486,15.1898c1.34894,8.11611 3.55539,16.11487 4.74295,24.25552c2.37121,16.25448 3.02975,32.50667 3.02975,48.89328c0,14.24765 -0.76241,28.72609 -0.00257,42.94978c0.44225,8.27862 1.79735,16.40814 2.87462,24.60746c1.52081,11.57522 2.50105,23.24948 3.74944,34.85768c2.42875,22.58376 6.12295,45.45882 6.88984,68.17143c0.372,11.0174 0.00218,22.1128 0.00218,33.13738c0,4.16917 0,8.33834 0,12.50751c0,2.70438 -0.54444,5.45762 -0.03228,8.11306c0.29974,1.55408 1.2593,2.94043 1.5015,4.5045c0.45067,2.91036 -0.67518,5.96055 -0.03459,8.83508c0.24343,1.09235 1.23153,1.9169 1.5015,3.00301c0.25546,1.02777 -0.17308,2.13845 0.03459,3.17693c0.31036,1.552 1.19107,2.95253 1.50151,4.5045c0.18498,0.92477 -0.2548,1.91205 -0.0346,2.82907c0.47793,1.99039 1.89219,3.63066 2.80595,5.46236c1.22952,2.46466 2.06197,5.10821 3.07664,7.66883c0.46112,1.16367 1.39802,2.15437 1.62492,3.38533c0.27302,1.48113 -0.53132,3.05334 -0.16863,4.51511c0.4993,2.01238 3.39227,0.90492 4.3159,1.13366c1.08633,0.26904 2.002,1.001 3.00301,1.5015c1.07307,0.02047 2.2343,-0.36505 3.21919,0.06142c2.46988,1.06947 4.22046,3.36714 6.52976,4.74959c1.85628,1.11124 3.87464,1.92603 5.80971,2.89356c7.24362,3.6218 15.52075,5.12234 22.56836,9.03252c3.37758,1.87396 6.49147,4.58367 10.214,5.87385c7.74639,2.6848 15.75371,-0.09588 23.55712,1.37849c1.76889,0.33421 3.42236,1.1181 5.13353,1.67715c2.20932,0.75584 4.58879,0.86791 6.87848,1.32585c1.55199,0.31039 2.95455,1.18109 4.5045,1.5015c2.58993,0.53541 5.31245,-0.35864 7.9341,-0.0102c4.35359,0.57863 8.78138,2.22736 13.14434,3.0232c2.91178,0.53113 5.80672,1.23441 8.75734,1.46774c1.5614,0.12347 3.15357,-0.23233 4.69876,0.02376c1.56142,0.25878 2.95455,1.18109 4.5045,1.50151c3.54399,0.73264 7.97513,-0.03228 11.61156,-0.03228c9.4914,0 18.76594,0.06232 28.21715,1.00744c5.88808,0.59254 12.2235,1.0295 18.13959,0.50127c6.53809,-0.58376 12.97207,-2.51477 19.5187,-3.00294c2.42584,-0.18089 4.92021,0.53981 7.29768,0.025c2.57745,-0.55812 4.77461,-2.33087 7.33358,-2.9684c1.09056,-0.2717 2.2535,0.05962 3.37119,-0.05836c3.0276,-0.31959 5.97315,-1.27319 9.00901,-1.5015c8.97769,-0.67514 18.43304,-0.15337 27.43649,0.11883c3.46006,-2.58213 7.63691,-1.63464 11.80876,-1.62885c4.14763,0.00576 7.70967,-1.12027 11.76567,-1.48933c0.88817,-0.08082 1.81074,0.27492 2.67496,0.05471c1.0845,-0.27634 1.9021,-1.3002 3.003,-1.5015c2.46169,-0.45012 5.10444,0.69842 7.50751,0c1.07468,-0.31235 1.9021,-1.3002 3.003,-1.5015c2.46169,-0.45012 5.10398,0.69687 7.5075,0c2.70408,-0.78401 5.22838,-2.18833 7.98881,-2.74216c7.55139,-1.51505 16.45197,-0.32772 24.11711,-0.32772c3.26821,0 6.54642,0.26302 9.80465,0.00764c3.20258,-0.25102 6.31721,-1.24699 9.51952,-1.5015c2.4265,-0.19285 4.91866,0.51742 7.3024,0.02463c1.54995,-0.32042 2.95074,-1.20014 4.5045,-1.5015c4.83594,-0.93795 22.91755,-3.72678 26.8531,-4.4699c3.00785,-0.56795 6.16701,0.4887 9.18294,-0.0346c3.09523,-0.53706 5.66111,-2.80237 8.68018,-3.67075c3.78612,-1.08901 9.33673,-0.86359 13.23679,-0.86603c16.84184,0 33.68368,0 50.52553,0c6.18118,0 12.36236,0 18.54354,0c2.73603,0 5.50161,0.41992 8.20806,0.01873c5.05056,-0.74867 9.12278,-1.51869 14.31446,-1.52023c6.21882,0.01396 11.43421,-1.68792 17.47744,-2.68337c6.27789,-1.0341 22.11625,-1.48055 23.66865,-1.78886c1.03224,-0.20501 2.11264,0.10875 3.15711,-0.02012c2.53286,-0.3125 4.9665,-1.2642 7.50751,-1.5015c5.13293,-0.47936 10.39571,0.47518 15.52557,-0.00144c6.4076,-0.59534 21.86903,-4.10964 23.09489,-4.42518c1.04791,-0.26973 1.85572,-1.16707 2.89481,-1.46901c5.24155,-1.52309 11.37795,-0.98014 16.47829,-2.99023c2.99829,-1.18165 5.75424,-2.90395 8.63758,-4.34352c2.35533,-1.17595 4.60684,-2.56202 6.79226,-4.02982c0.37217,-0.24996 0.96724,-0.33962 1.10546,-0.76611c0.20758,-0.6405 -0.18467,-1.33641 -0.20594,-2.00938c-0.13117,-4.14905 0,-8.3573 0,-12.50751c0,-5.79733 -0.58669,-12.00937 0.01216,-17.76887c0.0177,-0.17026 1.93424,-9.7332 1.99755,-10.04975c0.6542,-3.25699 1.88784,-6.3808 2.52208,-9.64174c0.6168,-3.1713 -0.57624,-51.59198 -1.40994,-54.37559c-0.10285,-0.34339 -1.41113,-9.67798 -1.50394,-10.28066c-1.05216,-6.83278 -1.61791,-13.07628 -1.61791,-20.00051c0,-6.10588 -0.94363,-11.66842 -1.40693,-17.72688c-0.57521,-7.52182 -0.09456,-15.27682 -0.09456,-22.81366c0,-9.23471 -0.19007,-18.886 1.54157,-27.98334c0.29311,-1.53991 1.23512,-2.91307 1.49371,-4.45915c0.25726,-1.53816 -0.27121,-3.14919 0.0346,-4.67843c0.21946,-1.09742 1.22667,-1.91812 1.5015,-3.003c0.22384,-0.88359 -0.19048,-1.83376 -0.04814,-2.73408c0.72149,-4.56376 1.39455,-5.50588 3.11575,-9.50364c1.13989,-4.58685 2.38053,-9.41329 2.82667,-14.13105c0.15702,-1.6605 -0.20038,-3.35881 0.07949,-5.00307c0.99027,-5.81799 4.43016,-11.2088 6.08442,-16.8451c1.36421,-4.64806 2.76175,-9.57768 3.83324,-14.29348c1.04706,-4.60833 0.99158,-9.48788 2.12892,-14.07592c0.64772,-2.61288 2.52049,-4.84895 3.00068,-7.49774c0.27881,-1.53797 -0.21459,-3.13415 -0.05299,-4.68881c0.66831,-6.4294 2.50767,-12.65918 3.01304,-19.10587c0.51809,-2.60185 0.83259,-5.25326 1.56133,-7.80414c1.24043,-4.34203 3.19763,-7.86118 4.1946,-12.27283c1.01219,-4.47896 1.79876,-9.0095 2.75678,-13.49972c0.23526,-1.10263 0.18928,-2.32648 0.76819,-3.29396c0.74356,-1.24264 2.33465,-1.83352 3.05251,-3.09117c1.60334,-2.80894 1.3242,-6.37756 2.60974,-9.34543c0.6472,-1.49415 1.95366,-2.65364 2.53948,-4.1729c1.69995,-4.40865 1.15813,-9.69339 2.06079,-14.22899c0.83907,-4.21609 3.51586,-8.0673 4.52357,-12.09978c0.63688,-2.54855 0.45304,-5.24472 0.96225,-7.82182c0.84128,-4.19026 2.26896,-8.18641 3.29257,-12.32923c1.91085,-7.7337 3.58789,-15.36444 6.10397,-22.95396c1.36872,-4.12861 1.1912,-9.42713 3.46121,-13.19049c0.87177,-1.44527 2.54783,-2.24763 3.57044,-3.59041c1.61352,-2.1187 1.83365,-5.08054 3.41715,-7.22176c0.54274,-0.7339 1.71433,-0.80852 2.26844,-1.53387c1.17297,-1.53545 2.92468,-6.9284 3.5673,-8.46822c2.08868,-5.00474 4.50788,-9.87954 8.27303,-13.83502c0.48684,-0.99532 2.83357,-5.88323 3.28652,-6.34471c0.66413,-0.67663 2.11824,-0.2592 2.64414,-1.04806c0.64253,-0.9638 -0.63976,-2.86951 0.35886,-3.45645c2.4022,-1.4119 10.69615,-0.73223 13.77978,-0.73223c5.005,0 10.01001,0 15.01501,0c1.33286,0 7.69074,-0.01318 8.08189,0.06687c2.19285,0.44882 3.83616,2.45363 6.006,3.00301c5.84269,1.47929 12.52165,-2.59259 17.7099,2.16685c0.69866,0.64091 0.69871,1.76276 1.04806,2.64414c0.56289,-0.12446 1.12578,-0.24891 1.68867,-0.37337h4.5045c0,0 2.5,0 2.5,2.5z" fill="#3eb218" stroke="none" stroke-width="0.5"/><text transform="translate(129.39111,169.69341) scale(1.38982,1.38982)" font-size="40" xml:space="preserve" fill="#00ffb5" stroke="#000000" stroke-width="1" font-family="Sans Serif" font-weight="normal" text-anchor="start"><tspan x="0" dy="0">merci d'avoir joué à ce jeu</tspan></text><text transform="translate(151.71517,234.45547) scale(1.222,1.222)" font-size="40" xml:space="preserve" fill="#00ffb5" stroke="#000000" stroke-width="1" font-family="Sans Serif" font-weight="normal" text-anchor="start"><tspan x="0" dy="0">aviez-vous aimé ? quel serait</tspan><tspan x="0" dy="46.15px">les amélioration, la suite</tspan><tspan x="0" dy="46.15px">à imaginer ! vous pouvez</tspan><tspan x="0" dy="46.15px">étoiler le jeu !</tspan></text></g></g></svg>