<svg version="1.1" xmlns="http://www.w3.org/2000/svg" xmlns:xlink="http://www.w3.org/1999/xlink" width="1227.25759" height="773.06015" viewBox="0,0,1227.25759,773.06015"><defs><linearGradient x1="467.15327" y1="246.17" x2="467.15327" y2="674.67" gradientUnits="userSpaceOnUse" id="color-1"><stop offset="0" stop-color="#a14c4c"/><stop offset="1" stop-color="#866666"/></linearGradient><linearGradient x1="-69.34677" y1="551.22385" x2="213.65324" y2="551.22385" gradientUnits="userSpaceOnUse" id="color-2"><stop offset="0" stop-color="#ffff00" stop-opacity="0.5098"/><stop offset="1" stop-color="#ffff00" stop-opacity="0"/></linearGradient></defs><g transform="translate(131.93354,40.10102)"><g stroke="#3eb318" stroke-miterlimit="10"><path d="M-25.97827,426.89898v-467h951.95654v467z" fill="#00ffff" stroke-width="0" stroke-linecap="butt"/><path d="M-52.34674,674.67v-428.5c0,0 484.23618,10 611.99999,10c22.2155,0 4.78881,-39.60229 28.88012,-32.59563c1.45442,0.423 27.44136,12.64525 40.08719,16.26372c17.99597,5.14935 45.35143,4.10109 47.37503,3.92978c31.6881,-2.68249 24.65767,2.40213 24.65767,2.40213l89.24077,14.82192c0,0 66.75022,25.57059 84.7494,27.87562c18.8716,2.41675 34.98688,-13.69441 34.98688,-13.69441c0,0 4.14644,1.0528 8.02295,1.0528c47.49883,0 69,-30.05592 69,-30.05592v428.5z" fill="url(#color-1)" stroke-width="0" stroke-linecap="butt"/><path d="M-69.34677,639.72385v-177h283v177z" fill="url(#color-2)" stroke-width="0" stroke-linecap="butt"/><path d="M-53.34675,594.72385c164.14249,46.16507 366.88617,14.94795 436,-8c69.11383,-22.94795 -12.47184,-78.95513 63,-121c12.03135,-6.70259 37.03175,-11.83944 48.96166,-12.6008c62.90565,-4.01461 123.85134,19.01854 177.03834,-27.3992c49.1743,-42.91575 14.50967,-83.76893 20.90935,-138.54324c1.83495,-15.70515 -6.64392,-37.14372 14.61918,-54.45676c95.42165,-77.6951 113.28708,-203.9302 217.47147,-13c104.18439,190.9302 331.51802,284.77374 -13,440c-344.51802,155.22626 -893.6423,16.88705 -968,2c-74.3577,-14.88705 -2.9335,-66.99342 9,-194c11.9335,-127.00658 -185.03759,-166.33522 33,-253c218.03759,-86.66478 544.19237,-10.41862 601,1c31.07564,6.24636 4.93998,29.75457 4.5161,54.99187c-0.21063,12.54075 2.46551,17.66133 3.01741,30.50378c0.36777,8.5579 4.80077,24.71849 -11.53351,33.50435c-38.61107,20.76807 -104.31674,-4.1898 -145.03109,-6.43662c-54.37302,-3.00057 -82.19451,13.34955 -114.96891,29.43662c-42.64703,20.93298 -8.20256,47.88729 -14.8838,77.91584c-2.29806,10.32853 34.62313,22.78415 1.8838,33.08416c-127.92371,40.24566 -296.32831,-15.20009 -343,1c-46.67169,16.20009 -184.14249,78.83493 -20,125z" fill="#3eb218" stroke-width="0.5" stroke-linecap="round"/><path d="M14.31095,81.89898c0,-35.89851 29.10149,-65 65,-65c35.89851,0 65,29.10149 65,65c0,35.89851 -29.10149,65 -65,65c-35.89851,0 -65,-29.10149 -65,-65z" fill="#ffff00" stroke-width="0" stroke-linecap="butt"/></g></g></svg>