<svg version="1.1" xmlns="http://www.w3.org/2000/svg" xmlns:xlink="http://www.w3.org/1999/xlink" width="151.13956" height="50.16883" viewBox="0,0,151.13956,50.16883"><g transform="translate(-424.65677,-296.87015)"><g stroke-miterlimit="10"><text transform="translate(425.10996,335.87656) scale(0.90638,0.90638)" font-size="40" xml:space="preserve" fill="#3eb318" stroke="none" stroke-width="1" stroke-linecap="butt" font-family="Sans Serif" font-weight="400" text-anchor="start"><tspan x="0" dy="0">⭐⭐⭐</tspan></text><path d="M450.63519,301.65384l6.92577,13.76404l14.3391,1.51255l-10.51369,11.68885l2.3503,15.5517l-13.65151,-6.90074l-13.25145,7.07593l2.72533,-16.07689l-10.36372,-10.66367l14.13926,-2.12525z" fill="none" stroke="#0045ff" stroke-width="2.5" stroke-linecap="round"/><path d="M500.69625,301.65384l6.92577,13.76404l14.3391,1.51255l-10.51369,11.68885l2.3503,15.5517l-13.65151,-6.90074l-13.25145,7.07593l2.72533,-16.07689l-10.36372,-10.66367l14.13926,-2.12525z" fill="none" stroke="#0045ff" stroke-width="2.5" stroke-linecap="round"/><path d="M550.10717,301.65384l6.92577,13.76404l14.3391,1.51255l-10.51369,11.68885l2.3503,15.5517l-13.65151,-6.90074l-13.25145,7.07593l2.72533,-16.07689l-10.36372,-10.66367l14.13926,-2.12525z" fill="none" stroke="#0045ff" stroke-width="2.5" stroke-linecap="round"/></g></g></svg>