<svg version="1.1" xmlns="http://www.w3.org/2000/svg" xmlns:xlink="http://www.w3.org/1999/xlink" width="2167.93999" height="792.82583" viewBox="0,0,2167.93999,792.82583"><g transform="translate(1045.84876,26.58748)"><g stroke-miterlimit="10"><path d="M-40.99328,766.23835v-792.82583h951.95654v792.82583z" fill="#00ffff" stroke="#3eb318" stroke-width="0"/><path d="M-1045.3217,641.14334c4.48129,-1.65367 8.29359,-1.88398 12.82687,-3.65118c8.93098,-3.48153 19.794,-10.8764 28.28047,-13.40892c6.82116,-2.03555 12.28471,-1.62061 19.33133,-4.05405c8.04659,-2.76805 15.36513,-4.20484 23.41586,-7.01568c5.17634,-1.80727 11.6858,-5.79968 16.28858,-6.48016c8.32233,-1.23038 16.38753,-2.31667 25.48755,-5.00087c5.97145,-1.76138 11.98669,-3.127 18.4486,-5.94567c4.44953,-1.94088 9.75408,-5.81176 13.86788,-7.02423c4.21467,-1.2422 7.09848,0.16424 11.22486,-0.89529c6.45208,-1.6567 14.2204,-5.64329 21.22743,-8.4888c20.34552,-8.26003 40.44005,-16.15091 61.21685,-25.34939c6.70901,-2.97027 13.42679,-4.6808 20.75957,-9.15573c2.65108,-1.61785 5.76702,-4.52417 8.43908,-6.19673c7.28094,-4.55748 13.50815,-6.34315 20.64018,-10.51537c11.8377,-6.92503 24.40658,-15.55894 36.592,-23.39087c6.37042,-3.55367 12.69546,-6.26024 19.46244,-10.83913c2.89257,-1.95727 6.19104,-5.01999 8.88458,-6.46296c2.65259,-1.42103 4.42128,-0.87633 6.95761,-2.02393c9.02954,-4.08555 20.9847,-11.69435 31.37596,-19.27573c5.6875,-4.14956 12.0543,-10.44221 17.72322,-14.53708c10.36691,-7.4884 19.52545,-11.38138 29.681,-18.26233c14.53839,-9.85055 29.78015,-21.69835 44.90467,-33.30446c13.41672,-9.83421 27.20385,-20.19954 40.30831,-29.16059c5.20308,-3.55795 9.90342,-5.73013 15.2263,-9.6332c2.83553,-2.07919 15.31685,-12.77672 17.80996,-14.49012c2.84141,-1.95276 5.15004,-2.52654 7.92125,-4.28789c15.50615,-9.85551 33.11436,-25.29293 48.82996,-35.78312c13.75867,-9.18392 25.05578,-12.61053 39.6062,-23.9033c13.36028,-10.29178 24.02958,-13.58007 36.38241,-21.1474c10.13777,-6.21039 20.74829,-13.61834 30.76304,-19.48079c6.54857,-3.83341 12.71979,-6.44319 19.49193,-10.85961c10.92913,-7.12738 22.65571,-16.90188 33.82841,-24.81271c14.05295,-9.95019 27.47473,-17.68304 41.1029,-26.45052c34.86923,-22.73559 70.53149,-47.33277 103.58563,-65.37553c9.47561,-5.1723 20.47474,-13.18179 29.29663,-16.83606c9.66787,-4.0047 18.30725,-5.23344 27.30521,-7.79208c3.98273,-1.13252 8.73634,-3.74095 11.90453,-3.30701c0.32331,0.04429 7.18584,4.28635 8.06709,4.82718c5.68199,3.48704 11.36397,6.9741 17.04595,10.46115c9.94348,6.10233 19.88694,12.20466 29.83042,18.307c4.91097,3.01387 12.72758,3.63712 15.62756,9.71429c1.69292,3.54766 2.19601,8.75482 3.8483,12.36036c0.43268,0.94946 -30.39143,396.03852 73.70723,440.70362c42.79553,18.36207 362.21283,88.87068 535.07057,8.08444c84.16665,-39.33585 -8.14776,-269.03127 72.00516,-269.1456c231.69648,-0.33048 411.81139,287.69378 411.81139,287.69378c0,0 -57.90936,89.16093 -221.35709,101.32412c-524.3965,39.02369 -1688.61591,38.99805 -1795.9372,30.10065c-137.60152,-11.40775 -154.17853,-98.33431 -150.1186,-99.83248z" fill="#3eb218" stroke="none" stroke-width="0.5"/><path d="M719.83484,103.01317c0,-35.89851 29.10149,-65 65,-65c35.89851,0 65,29.10149 65,65c0,35.89851 -29.10149,65 -65,65c-35.89851,0 -65,-29.10149 -65,-65z" fill="#ffff00" stroke="#3eb318" stroke-width="0"/></g></g></svg>