<svg version="1.1" xmlns="http://www.w3.org/2000/svg" xmlns:xlink="http://www.w3.org/1999/xlink" width="1419.05638" height="810.23829" viewBox="0,0,1419.05638,810.23829"><g transform="translate(285.93881,93.17895)"><g stroke="#3eb318" stroke-miterlimit="10"><path d="M-48.24462,357.23232c-354.80861,-135.28674 -186.53955,-299.87341 0,-371c186.53955,-71.12659 616.82992,-135.80586 973,0c356.17008,135.80586 186.84238,299.75794 0,371c-186.84238,71.24206 -618.19139,135.28674 -973,0z" fill="#00ffff" stroke-width="0" stroke-linecap="butt"/><path d="M-74.24462,650.2323c-370.30965,-116.86154 -178.32008,-257.72613 0,-314c178.32008,-56.27387 623.81226,-117.13864 995,0c371.18774,117.13864 178.53771,257.65745 0,314c-178.53771,56.34255 -624.69035,116.86154 -995,0z" fill="#00ffb5" stroke-width="0" stroke-linecap="butt"/><path d="M904.57474,318.23231c12.26537,16.08928 125.07531,146.02556 1,220c-124.07531,73.97444 -331.79373,7.53799 -370,0c-38.20627,-7.53799 68.48085,-45.97783 0,-73c-68.48085,-27.02217 -126.20447,34.00606 -185,0c-58.79553,-34.00606 141.63084,-66.80239 0,-107c-141.63084,-40.19761 -335.93518,10.02112 -377,0c-41.06482,-10.02112 -56.57129,-35.42869 0,-91.99998c56.57129,-56.57129 174.54738,6.11427 205,0c30.45261,-6.11427 18.86835,-12.9472 23.10389,-27.38271c4.23554,-14.43551 -6.23697,-24.45031 28.39611,-24.1173c34.63308,0.33301 29.04335,32.74095 52.5,52.5c23.45665,19.75905 25.90702,32.80594 49,33c23.09299,0.19406 61.87161,-26.86136 70,-32c8.12839,-5.13864 2.0628,-6.46149 4.89668,-13.89583c2.83389,-7.43433 -0.14189,-10.25216 12.10332,-9.10417c12.24521,1.14799 2.81232,-75.93586 47,-85c44.18768,-9.06414 -13.88437,61.63288 7,103c20.88438,41.36712 43.76092,87.31544 97,102.99998c53.23908,15.68454 85.58974,-37.51513 144,-32c58.41026,5.51513 47.13418,56.06381 89,54c41.86582,-2.06381 25.0667,-41.83009 53,-61c27.9333,-19.16991 36.73463,-25.08928 49,-9z" fill="#3eb318" stroke-width="2" stroke-linecap="round"/><path d="M-25.24462,451.2323c66.39073,-50.74149 178.30385,-35.2221 287,0c108.69615,35.2221 -50.01101,69.86058 0,93c50.01101,23.13942 125.72695,-24.34203 201,0c75.27305,24.34203 -37.93948,59.50765 0,65c37.93948,5.49235 275.09239,-21.69004 449,0c173.90761,21.69004 66.1403,52.01736 0,56c-66.1403,3.98264 -576.15927,80.81314 -930,0c-353.84073,-80.81314 -73.39073,-163.25851 -7,-214z" fill="#3eb318" stroke-width="2" stroke-linecap="round"/><path d="M758.31094,82.89898c0,-35.89851 29.10149,-65 65,-65c35.89851,0 65,29.10149 65,65c0,35.89851 -29.10149,65 -65,65c-35.89851,0 -65,-29.10149 -65,-65z" fill="#ffff00" stroke-width="0" stroke-linecap="butt"/></g></g></svg>