<svg version="1.1" xmlns="http://www.w3.org/2000/svg" xmlns:xlink="http://www.w3.org/1999/xlink" width="246.80966" height="47.72256" viewBox="0,0,246.80966,47.72256"><g transform="translate(-426.60252,-298.92605)"><g fill="#3eb318" stroke="#3eb318" stroke-width="2.5" stroke-linecap="round" stroke-miterlimit="10"><path d="M450.6352,301.65384l6.92577,13.76404l14.3391,1.51255l-10.51369,11.68885l2.3503,15.5517l-13.65151,-6.90074l-13.25145,7.07593l2.72533,-16.07689l-10.36372,-10.66367l14.13926,-2.12525z"/><path d="M500.69626,301.65384l6.92577,13.76404l14.3391,1.51255l-10.51369,11.68885l2.3503,15.5517l-13.65151,-6.90074l-13.25145,7.07593l2.72533,-16.07689l-10.36372,-10.66367l14.13926,-2.12525z"/><path d="M550.10718,301.65384l6.92577,13.76404l14.3391,1.51255l-10.51369,11.68885l2.3503,15.5517l-13.65151,-6.90074l-13.25145,7.07593l2.72533,-16.07689l-10.36372,-10.66367l14.13926,-2.12525z"/><path d="M600.16823,301.65384l6.92577,13.76404l14.3391,1.51255l-10.51369,11.68885l2.3503,15.5517l-13.65151,-6.90074l-13.25145,7.07593l2.72533,-16.07689l-10.36372,-10.66367l14.13926,-2.12525z"/><path d="M649.57915,301.65384l6.92577,13.76404l14.3391,1.51255l-10.51369,11.68885l2.3503,15.5517l-13.65151,-6.90074l-13.25145,7.07593l2.72533,-16.07689l-10.36372,-10.66367l14.13926,-2.12525z"/></g></g></svg>