<svg version="1.1" xmlns="http://www.w3.org/2000/svg" xmlns:xlink="http://www.w3.org/1999/xlink" width="307" height="353.7323" viewBox="0,0,307,353.7323"><g transform="translate(-412.68616,-223.5)"><g stroke="#ff0000" stroke-width="2" stroke-miterlimit="10"><path d="M519.68617,576.2323h-46v-149" fill="none" stroke-linecap="round"/><path d="M611.68617,576.2323h-46v-149" fill="none" stroke-linecap="round"/><path d="M413.68616,484.23231v-163" fill="none" stroke-linecap="round"/><path d="M718.68616,455.23231l-86,-134" fill="none" stroke-linecap="round"/><g><path d="M415.5,425.5v-201h217v201z" fill="#b1fcfa" stroke-linecap="butt"/><g stroke-linecap="butt"><path d="M423.48617,250.73231c0,-11.32183 9.17816,-20.5 20.5,-20.5c11.32184,0 20.5,9.17817 20.5,20.5c0,11.32184 -9.17816,20.5 -20.5,20.5c-11.32184,0 -20.5,-9.17816 -20.5,-20.5z" fill="#ffffff"/><path d="M435.48617,250.73231c0,-4.69442 3.80558,-8.5 8.5,-8.5c4.69442,0 8.5,3.80558 8.5,8.5c0,4.69442 -3.80558,8.5 -8.5,8.5c-4.69442,0 -8.5,-3.80558 -8.5,-8.5z" fill="#000000"/></g><g stroke-linecap="butt"><path d="M584.48617,250.73231c0,-11.32183 9.17817,-20.5 20.5,-20.5c11.32183,0 20.5,9.17817 20.5,20.5c0,11.32184 -9.17817,20.5 -20.5,20.5c-11.32183,0 -20.5,-9.17816 -20.5,-20.5z" fill="#ffffff"/><path d="M596.48617,250.73231c0,-4.69442 3.80558,-8.5 8.5,-8.5c4.69442,0 8.5,3.80558 8.5,8.5c0,4.69442 -3.80558,8.5 -8.5,8.5c-4.69442,0 -8.5,-3.80558 -8.5,-8.5z" fill="#000000"/></g><g><g><path d="M444.5,325c0,-43.90664 35.59336,-79.5 79.5,-79.5c43.90664,0 79.5,35.59336 79.5,79.5c0,43.90664 -35.59336,79.5 -79.5,79.5c-43.90664,0 -79.5,-35.59336 -79.5,-79.5z" fill="#b1fcbb" stroke-linecap="butt"/><path d="M519.68617,274.2323h166" fill="none" stroke-linecap="round"/><path d="M461.48617,328c0,-8.83655 7.16345,-16 16,-16c8.83655,0 16,7.16345 16,16c0,8.83655 -7.16345,16 -16,16c-8.83655,0 -16,-7.16345 -16,-16z" fill="#000000" stroke-linecap="butt"/><path d="M556.48617,328c0,-8.83655 7.16345,-16 16,-16c8.83655,0 16,7.16345 16,16c0,8.83655 -7.16345,16 -16,16c-8.83655,0 -16,-7.16345 -16,-16z" fill="#000000" stroke-linecap="butt"/></g><path d="M548.97561,327c0,0 -7.52699,32 -24.97561,32c-17.44862,0 -24.97561,-32 -24.97561,-32z" fill="#ff0000" stroke-linecap="butt"/></g></g></g></g></svg>